<?xml version="1.0" encoding="utf-8"?>
<!-- Generator: Adobe Illustrator 22.0.1, SVG Export Plug-In . SVG Version: 6.00 Build 0)  -->
<svg version="1.1" id="Layer_1" xmlns="http://www.w3.org/2000/svg" xmlns:xlink="http://www.w3.org/1999/xlink" x="0px" y="0px"
	 viewBox="0 0 318.2 318.2" style="enable-background:new 0 0 318.2 318.2;" xml:space="preserve">
<path d="M192.7,252.1v-7.9h-29.2v9.8H178l-15.4,20.1v7.3h30.8v-9.8h-15.5L192.7,252.1z M124.2,244.2L124.2,244.2H145l-16.5,37.2
	h13.4l16.9-40.3v-7.6h-34.6V244.2z M119.9,136.7h25.6v15h-25.6V136.7z M283.1,52.7L232.6,2.2c-1.4-1.4-3.3-2.2-5.3-2.2h-187
	c-4.1,0-7.5,3.4-7.5,7.5v303.2c0,4.1,3.4,7.5,7.5,7.5h237.5c4.1,0,7.5-3.4,7.5-7.5V58C285.3,56,284.6,54.1,283.1,52.7z M234.8,25.6
	l24.9,24.9h-24.9L234.8,25.6L234.8,25.6z M47.8,15h172v10.3h-172V15z M270.3,303.2H47.8V40.3h172V58c0,4.1,3.4,7.5,7.5,7.5h43
	L270.3,303.2L270.3,303.2z M212.5,113.7c4.1-0.8,6.7-4.7,6-8.8c-0.8-4.1-4.7-6.7-8.8-6l-1.5,0.3v-3.4h2.9c4.1,0,7.5-3.4,7.5-7.5
	s-3.4-7.5-7.5-7.5h-17.6l-19.6-9c-1-0.4-2-0.7-3.1-0.7h-49.3c-2,0-3.9,0.8-5.3,2.2l-9.7,9.7h-9.2c-4.1,0-7.5,3.4-7.5,7.5v72.2
	c0,4.1,3.4,7.5,7.5,7.5h9.2l9.7,9.7c1.4,1.4,3.3,2.2,5.3,2.2h49.3c1.1,0,2.1-0.2,3.1-0.7l19.3-8.8v4.4h-2.9v15h20.9v-15h-2.9v-4.5
	h2.9c4.1,0,7.5-3.4,7.5-7.5s-3.4-7.5-7.5-7.5h-2.9V152l4.3-0.8c4.1-0.8,6.7-4.7,6-8.8c-0.8-4.1-4.7-6.7-8.8-6l-1.5,0.3v-3.5l4.3-0.8
	c4.1-0.8,6.7-4.7,6-8.8c-0.8-4.1-4.7-6.7-8.8-6l-1.5,0.3v-3.5L212.5,113.7z M160.7,155.3h-56.1v-21.1h56.1V155.3z M160.7,119.2
	h-56.1V98.1h56.1V119.2z M193.2,102.1l-4.3,0.8c-4.1,0.8-6.7,4.7-6,8.8c0.7,3.6,3.8,6.1,7.4,6.1c0.5,0,0.9,0,1.4-0.1l1.5-0.3v3.5
	l-4.3,0.8c-4.1,0.8-6.7,4.7-6,8.8c0.7,3.6,3.8,6.1,7.4,6.1c0.5,0,0.9,0,1.4-0.1l1.5-0.3v3.5l-4.3,0.8c-4.1,0.8-6.7,4.7-6,8.8
	c0.7,3.6,3.8,6.1,7.4,6.1c0.5,0,0.9,0,1.4-0.1l1.5-0.3v2.6h-1.3c-1.1,0-2.1,0.2-3.1,0.7l-13.1,6c0.1-0.5,0.1-1,0.1-1.5V90.6
	c0-0.5-0.1-1-0.1-1.5l13.1,6c1,0.4,2,0.7,3.1,0.7h1.3V102.1z M119.9,100.6h25.6v15h-25.6V100.6z"/>
</svg>
