<?xml version="1.0" encoding="utf-8"?>
<!-- Generator: Adobe Illustrator 22.0.1, SVG Export Plug-In . SVG Version: 6.00 Build 0)  -->
<svg version="1.1" id="Layer_1" xmlns="http://www.w3.org/2000/svg" xmlns:xlink="http://www.w3.org/1999/xlink" x="0px" y="0px"
	 viewBox="0 0 318.2 318.2" style="enable-background:new 0 0 318.2 318.2;" xml:space="preserve">
<path d="M109.9,233.2l-15.7,48.2h14.2l2.4-9h15.6l2.4,9h14.2l-15.9-48.2H109.9z M113.6,261.7c2-7.5,3.3-12.6,3.9-15.1s1-4.4,1.2-5.5
	c0.2,1.2,0.7,3.2,1.4,6s1.3,5,1.8,6.8l2.1,7.9H113.6z M180.1,117.6c-5.9,6.4-8.8,15.5-8.8,27.3c0,11.4,3.2,20.3,9.6,26.5
	c6.4,6.2,15.2,9.4,26.5,9.4c5.5,0,10.1-0.4,14-1.2c3.8-0.8,7.4-2.1,10.8-3.7V161c-4.1,1.9-8,3.3-11.8,4.2c-3.8,0.9-7.8,1.3-12,1.3
	c-5.4,0-9.7-1.5-12.7-4.6c-3-3.1-4.6-7.3-4.8-12.8H236v-9.3c0-10-2.8-17.8-8.3-23.4c-5.5-5.7-13.3-8.5-23.2-8.5
	C194.1,108,186,111.2,180.1,117.6z M214.3,125.5c2.4,2.6,3.6,6.2,3.7,11h-26.9c0.3-4.7,1.7-8.4,4-11c2.3-2.6,5.5-3.9,9.6-3.9
	C208.7,121.6,211.9,122.9,214.3,125.5z M132.9,87.3h-23.8l-32.4,92.3h21l6.7-21.9h33.5l6.7,21.9h21L132.9,87.3z M109.2,141.4
	c6.5-21.2,10.5-34.4,11.9-39.8c0.3,1.5,0.9,3.6,1.7,6.2c0.8,2.6,4.2,13.8,10.4,33.6H109.2z M215.4,237.4c-3-2.6-7.6-4-13.7-4h-16.6
	v48h13v-15.9h3.6c5.8,0,10.3-1.5,13.5-4.4c3.2-2.9,4.7-7.1,4.7-12.4C220,243.8,218.4,240,215.4,237.4z M205.1,253.2
	c-1.1,1.1-2.7,1.6-4.6,1.6h-2.4v-11h3.3c3.6,0,5.4,1.6,5.4,4.9C206.8,250.6,206.3,252.2,205.1,253.2z M283.1,52.7L232.6,2.2
	c-1.4-1.4-3.3-2.2-5.3-2.2h-187c-4.1,0-7.5,3.4-7.5,7.5v303.2c0,4.1,3.4,7.5,7.5,7.5h237.5c4.1,0,7.5-3.4,7.5-7.5V58
	C285.3,56,284.6,54.1,283.1,52.7z M234.8,25.6l24.9,24.9h-24.9L234.8,25.6L234.8,25.6z M47.8,15h172v10.3h-172V15z M270.3,303.2
	H47.8V40.3h172V58c0,4.1,3.4,7.5,7.5,7.5h43L270.3,303.2L270.3,303.2z M148.3,281.4h28.5v-10.6h-15.5v-9.1h14.4v-10.4h-14.4v-7.5
	h15.5v-10.4h-28.5V281.4z"/>
</svg>
