<?xml version="1.0" encoding="utf-8"?>
<!-- Generator: Adobe Illustrator 22.0.1, SVG Export Plug-In . SVG Version: 6.00 Build 0)  -->
<svg version="1.1" id="Layer_1" xmlns="http://www.w3.org/2000/svg" xmlns:xlink="http://www.w3.org/1999/xlink" x="0px" y="0px"
	 viewBox="0 0 318.2 318.2" style="enable-background:new 0 0 318.2 318.2;" xml:space="preserve">
<path d="M156.2,157.7l6.7,21.9h21l-32.6-92.3h-23.8L95,179.6h21l6.7-21.9H156.2z M139.5,101.6c0.3,1.5,0.9,3.6,1.7,6.2
	c0.8,2.6,4.2,13.8,10.4,33.6h-24C134.1,120.2,138.1,106.9,139.5,101.6z M203.5,81.8c-7,0-10.4,3.1-10.4,9.4c0,6.3,3.5,9.4,10.4,9.4
	c3.5,0,6.1-0.8,7.8-2.5c1.7-1.7,2.6-4,2.6-6.9C214,84.9,210.5,81.8,203.5,81.8z M193.9,109.3h19.2v70.3h-19.2V109.3z M137.9,233.2
	l-15.7,48.2h14.2l2.4-9h15.6l2.4,9H171l-15.9-48.2H137.9z M141.6,261.7c2-7.5,3.3-12.6,3.9-15.1s1-4.4,1.2-5.5
	c0.2,1.2,0.7,3.2,1.4,6c0.7,2.8,1.3,5,1.8,6.8l2.1,7.9H141.6z M283.1,52.7L232.6,2.2c-1.4-1.4-3.3-2.2-5.3-2.2h-187
	c-4.1,0-7.5,3.4-7.5,7.5v303.2c0,4.1,3.4,7.5,7.5,7.5h237.5c4.1,0,7.5-3.4,7.5-7.5V58C285.3,56,284.6,54.1,283.1,52.7z M234.8,25.6
	l24.9,24.9h-24.9L234.8,25.6L234.8,25.6z M47.8,15h172v10.3h-172V15z M270.3,303.2H47.8V40.3h172V58c0,4.1,3.4,7.5,7.5,7.5h43
	L270.3,303.2L270.3,303.2z M176.2,233.4h13v48h-13V233.4z"/>
</svg>
