<?xml version="1.0" encoding="utf-8"?>
<!-- Generator: Adobe Illustrator 22.0.1, SVG Export Plug-In . SVG Version: 6.00 Build 0)  -->
<svg version="1.1" id="Layer_1" xmlns="http://www.w3.org/2000/svg" xmlns:xlink="http://www.w3.org/1999/xlink" x="0px" y="0px"
	 viewBox="0 0 318.2 318.2" style="enable-background:new 0 0 318.2 318.2;" xml:space="preserve">
<path d="M114.6,233.2l-15.7,48.2h14.2l2.4-9h15.6l2.4,9h14.2l-15.9-48.2H114.6z M118.3,261.7c2-7.5,3.3-12.6,3.9-15.1
	c0.6-2.6,1-4.4,1.2-5.5c0.2,1.2,0.7,3.2,1.4,6c0.7,2.8,1.3,5,1.8,6.8l2.1,7.9H118.3z M199.6,233.4h13v48h-13V233.4z M157.6,60.2
	c-38.3,0-69.4,31.1-69.4,69.4c0,38.3,31.1,69.4,69.4,69.4s69.4-31.1,69.4-69.4C227,91.4,195.9,60.2,157.6,60.2z M157.6,184
	c-30,0-54.4-24.4-54.4-54.4c0-30,24.4-54.4,54.4-54.4c30,0,54.4,24.4,54.4,54.4C212,159.6,187.6,184,157.6,184z M173.2,257.8
	c-0.4,1.3-0.8,3.1-1.2,5.4c-0.5,2.3-0.8,4.2-0.9,5.7c-0.1-2.1-0.9-5.9-2.2-11.3l-6.5-24.3h-14.6l15.7,48h15.3l15.7-48h-14.5
	L173.2,257.8z M283.1,52.7L232.6,2.2c-1.4-1.4-3.3-2.2-5.3-2.2h-187c-4.1,0-7.5,3.4-7.5,7.5v303.2c0,4.1,3.4,7.5,7.5,7.5h237.5
	c4.1,0,7.5-3.4,7.5-7.5V58C285.3,56,284.6,54.1,283.1,52.7z M234.8,25.6l24.9,24.9h-24.9L234.8,25.6L234.8,25.6z M47.8,15h172v10.3
	h-172V15z M270.3,303.2H47.8V40.3h172V58c0,4.1,3.4,7.5,7.5,7.5h43L270.3,303.2L270.3,303.2z M187.9,116.7L153,94.1
	c-3-1.9-6-2.9-8.9-2.9c-6.2,0-12.9,4.6-12.9,14.8v47.2c0,10.1,6.7,14.8,12.9,14.8c3,0,6-1,8.9-2.9l34.9-22.6
	c4.9-3.1,7.7-7.9,7.7-12.9C195.5,124.6,192.7,119.9,187.9,116.7z M179.7,130l-33.6,21.7v-44.1l33.6,21.7c0.2,0.1,0.3,0.2,0.5,0.3
	C180,129.7,179.9,129.9,179.7,130z"/>
</svg>
