<?xml version="1.0" encoding="utf-8"?>
<!-- Generator: Adobe Illustrator 22.0.1, SVG Export Plug-In . SVG Version: 6.00 Build 0)  -->
<svg version="1.1" id="Layer_1" xmlns="http://www.w3.org/2000/svg" xmlns:xlink="http://www.w3.org/1999/xlink" x="0px" y="0px"
	 viewBox="0 0 318.2 318.2" style="enable-background:new 0 0 318.2 318.2;" xml:space="preserve">
<path d="M189.3,94.3c0.6-0.5,1.6-1.4,3.1-2.9l-0.1,4.4l-0.1,4v24.3h8.9v-42h-7.3l-13.5,10.8l4.3,5.3L189.3,94.3z M122.1,94.3
	c0.6-0.5,1.6-1.4,3.1-2.9l-0.1,4.4l-0.1,4v24.3h8.9v-42h-7.3L113,92.8l4.3,5.3L122.1,94.3z M189.3,151.9c0.6-0.5,1.6-1.4,3.1-2.9
	l-0.1,4.4l-0.1,4v24.3h8.9v-42h-7.3l-13.5,10.8l4.3,5.3L189.3,151.9z M159.9,124.7c5,0,8.7-1.8,11.1-5.3c2.4-3.5,3.6-9,3.6-16.3
	c0-7.1-1.2-12.5-3.7-16.1c-2.5-3.7-6.1-5.5-11-5.5c-5,0-8.7,1.8-11.1,5.3c-2.4,3.5-3.6,9-3.6,16.4c0,7.1,1.2,12.5,3.7,16.1
	C151.4,122.8,155.1,124.7,159.9,124.7z M155.4,92c0.9-2.2,2.4-3.4,4.5-3.4c2,0,3.5,1.1,4.5,3.4c0.9,2.3,1.4,6,1.4,11.1
	c0,5.1-0.5,8.8-1.4,11c-0.9,2.3-2.4,3.4-4.5,3.4c-2.1,0-3.6-1.1-4.5-3.3c-0.9-2.2-1.3-5.9-1.3-11.1C154.1,97.9,154.5,94.2,155.4,92z
	 M283.1,52.7L232.6,2.2c-1.4-1.4-3.3-2.2-5.3-2.2h-187c-4.1,0-7.5,3.4-7.5,7.5v303.2c0,4.1,3.4,7.5,7.5,7.5h237.5
	c4.1,0,7.5-3.4,7.5-7.5V58C285.3,56,284.6,54.1,283.1,52.7z M234.8,25.6l24.9,24.9h-24.9L234.8,25.6L234.8,25.6z M47.8,15h172v10.3
	h-172V15z M270.3,303.2H47.8V40.3h172V58c0,4.1,3.4,7.5,7.5,7.5h43L270.3,303.2L270.3,303.2z M126.3,139c-5,0-8.7,1.8-11.1,5.3
	s-3.6,9-3.6,16.4c0,7.1,1.2,12.5,3.7,16.1c2.5,3.6,6.1,5.5,11,5.5c5,0,8.7-1.8,11.1-5.3c2.4-3.5,3.6-9,3.6-16.3
	c0-7.1-1.2-12.5-3.7-16.1C134.8,140.8,131.2,139,126.3,139z M130.8,171.7c-0.9,2.3-2.4,3.4-4.5,3.4c-2.1,0-3.6-1.1-4.5-3.3
	c-0.9-2.2-1.3-5.9-1.3-11.1s0.4-8.9,1.4-11.1c0.9-2.3,2.4-3.4,4.5-3.4c2,0,3.5,1.1,4.5,3.4c0.9,2.3,1.4,6,1.4,11.1
	C132.2,165.8,131.7,169.4,130.8,171.7z M129.6,256.2v-0.3c2.3-0.5,4.1-1.8,5.4-3.7c1.4-1.9,2.1-4.2,2.1-6.9c0-4.1-1.6-7.1-4.7-9
	c-3.2-1.9-8-2.9-14.5-2.9h-16.7v48h18.7c5.6,0,10.1-1.3,13.4-3.8c3.3-2.5,4.9-5.9,4.9-10.3c0-2.9-0.7-5.3-2-7.2
	C134.8,258.3,132.6,257,129.6,256.2z M117.8,243.2c4.1,0,6.1,1.3,6.1,4c0,1.5-0.5,2.6-1.5,3.4c-1,0.8-2.5,1.1-4.3,1.1h-3.9v-8.6
	L117.8,243.2L117.8,243.2z M118.7,271.4h-4.6v-10.1h4.3c2.1,0,3.6,0.4,4.7,1.3s1.6,2.1,1.6,3.7C124.8,269.7,122.7,271.4,118.7,271.4
	z M146.6,150.4l4.3,5.3l4.8-3.9c0.6-0.5,1.6-1.4,3.1-2.9l-0.1,4.4l-0.1,4v24.3h8.9v-42h-7.3L146.6,150.4z M204,255.1
	c0,2.9,0.2,6.8,0.5,11.7h-0.2l-17.5-33.3h-16.9v48h11.5v-21.6c0-2.8-0.2-6.9-0.6-12.2h0.3l17.5,33.8h17v-48H204V255.1z M146.5,233.4
	h13v48h-13V233.4z"/>
</svg>
