<?xml version="1.0" encoding="utf-8"?>
<!-- Generator: Adobe Illustrator 22.0.1, SVG Export Plug-In . SVG Version: 6.00 Build 0)  -->
<svg version="1.1" id="Layer_1" xmlns="http://www.w3.org/2000/svg" xmlns:xlink="http://www.w3.org/1999/xlink" x="0px" y="0px"
	 viewBox="0 0 318.2 318.2" style="enable-background:new 0 0 318.2 318.2;" xml:space="preserve">
<path d="M118.7,243.3c2,0,3.9,0.3,5.7,0.9c1.8,0.6,3.5,1.3,5.3,2.1l4-10.2c-4.7-2.3-9.7-3.4-14.9-3.4c-4.7,0-8.9,1-12.4,3
	s-6.2,4.9-8.1,8.7s-2.8,8.1-2.8,13.1c0,7.9,1.9,14,5.8,18.2c3.9,4.2,9.4,6.3,16.7,6.3c5.1,0,9.6-0.9,13.6-2.7v-11
	c-2,0.8-4,1.5-6,2.1c-2,0.6-4,0.9-6.2,0.9c-7,0-10.5-4.6-10.5-13.8c0-4.4,0.9-7.9,2.6-10.5C113.2,244.6,115.7,243.3,118.7,243.3z
	 M158.1,64.7c-35.8,0-64.9,29.1-64.9,64.9s29.1,64.9,64.9,64.9s64.9-29.1,64.9-64.9S193.9,64.7,158.1,64.7z M109,137.3
	c0,0.6,0,1.1,0,1.7c-0.6-3-0.9-6.2-0.9-9.4c0-27.5,22.4-49.9,49.9-49.9c4.9,0,9.6,0.7,14,2c2.6,1.9,4.1,4.8,4.1,8.1
	c0,3.6-2,6.9-5.1,8.7l-0.1,0.1c-0.1,0-0.1,0.1-0.1,0.1c-0.9,0.5-1.8,0.8-2.8,1c0,0-0.1,0-0.1,0c-4.6,0.9-10.4,0.1-14.6-0.5
	c-2.3-0.3-4.1-0.6-5.6-0.6C126.4,98.6,109,115.9,109,137.3z M155.6,127.1c0,2.2-1.8,3.9-3.9,3.9c-2.2,0-3.9-1.8-3.9-3.9
	c0-2.2,1.8-3.9,3.9-3.9C153.8,123.2,155.6,124.9,155.6,127.1z M207.8,134.1c-2.3,25.5-23.7,45.5-49.7,45.5c-8.4,0-16.3-2.1-23.2-5.7
	c4,1.4,8.4,2.2,12.9,2.2c9.7,0,18.9-3.6,26.1-10.1c0,0,0,0,0,0c5.2-4.6,9.3-12,13.2-19.1c3.5-6.3,7.5-13.5,10.9-15.7
	c0.1,0,0.1-0.1,0.2-0.1c0,0,0,0,0,0c1.1-0.7,2.3-1.1,3.5-1.1C204.5,129.9,206.9,131.6,207.8,134.1z M201.8,114.9
	c-4.1,0-8.1,1.2-11.5,3.4c-0.1,0-0.1,0.1-0.2,0.1c-0.1,0-0.1,0.1-0.2,0.1c-0.1,0.1-0.2,0.1-0.3,0.2c-6.3,4.3-10.8,12.3-15.6,20.8
	c-3.4,6.1-6.9,12.4-10.2,15.3c0,0-0.1,0.1-0.1,0.1c-4.4,3.9-10,6.1-15.9,6.1c-13.1,0-23.7-10.7-23.7-23.7c0-8.7,4.7-16.4,11.8-20.5
	c-1.9,3-3.1,6.5-3.1,10.3c0,10.4,8.5,18.9,18.9,18.9c10.4,0,18.9-8.5,18.9-18.9c0-4.6-1.7-8.8-4.4-12.1c1.6-0.1,3.2-0.3,4.8-0.6
	c2.6-0.5,5-1.3,7.3-2.6c0,0,0.1,0,0.1-0.1h0c0.2-0.1,0.3-0.2,0.5-0.3c7-4.1,11.6-11.3,12.4-19.2c6.9,6.1,12.1,14,14.8,23
	C204.6,115,203.2,114.9,201.8,114.9z M283.1,52.7L232.6,2.2c-1.4-1.4-3.3-2.2-5.3-2.2h-187c-4.1,0-7.5,3.4-7.5,7.5v303.2
	c0,4.1,3.4,7.5,7.5,7.5h237.5c4.1,0,7.5-3.4,7.5-7.5V58C285.3,56,284.6,54.1,283.1,52.7z M234.8,25.6l24.9,24.9h-24.9L234.8,25.6
	L234.8,25.6z M47.8,15h172v10.3h-172V15z M47.8,303.2V40.3h172V58c0,4.1,3.4,7.5,7.5,7.5h43v237.7H47.8z M168.9,233.4h-12l-20,29.2
	v9.5h19.1v9.3h12.8v-9.3h5.3v-9.7h-5.3L168.9,233.4L168.9,233.4z M156.2,252.6c-0.1,1.8-0.1,3.2-0.1,4.3v5.6h-7.9l5.3-7.9
	c0.9-1.5,1.8-3,2.5-4.7h0.4C156.3,249.9,156.3,250.8,156.2,252.6z M197,233.4h-16.6v48h15.5c8,0,14.2-2.2,18.6-6.5
	s6.6-10.5,6.6-18.5c0-7.4-2.1-13.1-6.3-17.1C210.6,235.4,204.7,233.4,197,233.4z M204.9,267.3c-1.8,2.3-4.7,3.4-8.7,3.4h-2.9v-26.9
	h3.8c3.5,0,6.2,1.1,7.9,3.2c1.7,2.1,2.6,5.4,2.6,9.8C207.6,261.5,206.7,265,204.9,267.3z"/>
</svg>
