<?xml version="1.0" encoding="utf-8"?>
<!-- Generator: Adobe Illustrator 22.0.1, SVG Export Plug-In . SVG Version: 6.00 Build 0)  -->
<svg version="1.1" id="Layer_1" xmlns="http://www.w3.org/2000/svg" xmlns:xlink="http://www.w3.org/1999/xlink" x="0px" y="0px"
	 viewBox="0 0 318.2 318.2" style="enable-background:new 0 0 318.2 318.2;" xml:space="preserve">
<path d="M154.5,233.4h-16.6v48h15.5c8,0,14.2-2.2,18.6-6.5s6.6-10.5,6.6-18.5c0-7.4-2.1-13.1-6.3-17.1
	C168.2,235.4,162.2,233.4,154.5,233.4z M162.4,267.3c-1.8,2.3-4.7,3.4-8.7,3.4h-2.9v-26.9h3.8c3.5,0,6.2,1.1,7.9,3.2
	s2.6,5.4,2.6,9.8C165.2,261.5,164.3,265,162.4,267.3z M222.5,247.6c0-9.5-6.5-14.2-19.6-14.2h-15.7v48h13v-17.5h3.3l10.2,17.5h14.7
	l-14-20.9C219.8,257.4,222.5,253.1,222.5,247.6z M202.6,254.2h-2.4v-11h2.6c4.4,0,6.7,1.7,6.7,5
	C209.4,252.2,207.2,254.2,202.6,254.2z M283.1,52.7L232.6,2.2c-1.4-1.4-3.3-2.2-5.3-2.2h-187c-4.1,0-7.5,3.4-7.5,7.5v303.2
	c0,4.1,3.4,7.5,7.5,7.5h237.5c4.1,0,7.5-3.4,7.5-7.5V58C285.3,56,284.6,54.1,283.1,52.7z M234.8,25.6l24.9,24.9h-24.9L234.8,25.6
	L234.8,25.6z M47.8,15h172v10.3h-172V15z M47.8,303.2V40.3h172V58c0,4.1,3.4,7.5,7.5,7.5h43v237.7H47.8z M152.7,183.7
	C152.7,183.7,152.7,183.7,152.7,183.7c0.2,0.3,0.4,0.6,0.5,0.8c0,0.1,0.1,0.1,0.1,0.1c0.1,0.2,0.3,0.4,0.5,0.5
	c0.1,0.1,0.1,0.1,0.2,0.2c0.2,0.2,0.4,0.3,0.6,0.5c0,0,0.1,0.1,0.1,0.1c0.2,0.2,0.5,0.3,0.7,0.5c0.1,0,0.2,0.1,0.3,0.1
	c0.1,0.1,0.2,0.1,0.3,0.2l31.5,14.6c1,0.5,2.1,0.7,3.2,0.7c1.3,0,2.6-0.3,3.8-1c2.1-1.2,3.5-3.5,3.7-5.9l2.5-34.2c0,0,0,0,0,0
	c0-0.2,0-0.3,0-0.5c0-0.1,0-0.2,0-0.3c0-0.1,0-0.2,0-0.3c-0.1-1.2-0.4-2.2-1-3.2c0,0,0,0,0,0L140.8,54.7c-1.3-2.3-3.8-3.8-6.5-3.8
	h-16.8c-4.1,0-7.5,3.4-7.5,7.5v49.3c0,1.3,0.3,2.6,1,3.8L152.7,183.7z M184,183.2l-8.5-4l9.2-5.3L184,183.2z M125,93.5l33.7,58.4
	c1.4,2.4,3.9,3.8,6.5,3.8c1.3,0,2.6-0.3,3.7-1c3.6-2.1,4.8-6.7,2.7-10.2l-45.3-78.5h3.6l52.9,91.7l-21,12.1l-36.9-64V93.5z
	 M115.7,243.3c2,0,3.9,0.3,5.7,0.9c1.8,0.6,3.5,1.3,5.3,2.1l4-10.2c-4.7-2.3-9.7-3.4-14.9-3.4c-4.7,0-8.9,1-12.4,3
	c-3.5,2-6.2,4.9-8.1,8.7c-1.9,3.8-2.8,8.1-2.8,13.1c0,7.9,1.9,14,5.8,18.2s9.4,6.3,16.7,6.3c5.1,0,9.6-0.9,13.6-2.7v-11
	c-2,0.8-4,1.5-6,2.1c-2,0.6-4,0.9-6.2,0.9c-7,0-10.5-4.6-10.5-13.9c0-4.4,0.9-7.9,2.6-10.5C110.2,244.6,112.6,243.3,115.7,243.3z"/>
</svg>
