<?xml version="1.0" encoding="utf-8"?>
<!-- Generator: Adobe Illustrator 22.0.1, SVG Export Plug-In . SVG Version: 6.00 Build 0)  -->
<svg version="1.1" id="Layer_1" xmlns="http://www.w3.org/2000/svg" xmlns:xlink="http://www.w3.org/1999/xlink" x="0px" y="0px"
	 viewBox="0 0 318.2 318.2" style="enable-background:new 0 0 318.2 318.2;" xml:space="preserve">
<path d="M107.6,144.4c10.4,0,10.4,5.2,10.4,8c0,6.7,0,13,2.3,18.4c2.2,5,7.2,11.1,18.8,11.1c4.1,0,7.5-3.4,7.5-7.5s-3.4-7.5-7.5-7.5
	c-5.1,0-6.1,0-6.1-14.5c0-6.3-1.9-11.6-5.5-15.5c3.5-3.9,5.5-9.1,5.5-15.5c0-14.5,1.1-14.5,6.1-14.5c4.1,0,7.5-3.4,7.5-7.5
	s-3.4-7.5-7.5-7.5c-11.7,0-16.7,6-18.8,11.1c-2.3,5.4-2.3,11.7-2.3,18.4c0,2.8,0,8-10.4,8c-4.1,0-7.5,3.4-7.5,7.5
	S103.5,144.4,107.6,144.4z M124.3,243.3c2,0,3.9,0.3,5.7,0.9s3.5,1.3,5.3,2.1l4-10.2c-4.7-2.3-9.7-3.4-14.9-3.4c-4.7,0-8.9,1-12.4,3
	c-3.5,2-6.2,4.9-8.1,8.7c-1.9,3.8-2.8,8.1-2.8,13.1c0,7.9,1.9,14,5.8,18.2c3.9,4.2,9.4,6.3,16.7,6.3c5.1,0,9.6-0.9,13.6-2.7v-11
	c-2,0.8-4,1.5-6,2.1c-2,0.6-4,0.9-6.2,0.9c-7,0-10.5-4.6-10.5-13.8c0-4.4,0.9-7.9,2.6-10.5C118.8,244.6,121.2,243.3,124.3,243.3z
	 M283.1,52.7L232.6,2.2c-1.4-1.4-3.3-2.2-5.3-2.2h-187c-4.1,0-7.5,3.4-7.5,7.5v303.2c0,4.1,3.4,7.5,7.5,7.5h237.5
	c4.1,0,7.5-3.4,7.5-7.5V58C285.3,56,284.6,54.1,283.1,52.7z M234.8,25.6l24.9,24.9h-24.9L234.8,25.6L234.8,25.6z M47.8,15h172v10.3
	h-172V15z M270.3,303.2H47.8V40.3h172V58c0,4.1,3.4,7.5,7.5,7.5h43L270.3,303.2L270.3,303.2z M210.6,129.4c-10.4,0-10.4-5.2-10.4-8
	c0-6.7,0-13-2.3-18.4c-2.2-5-7.2-11.1-18.8-11.1c-4.1,0-7.5,3.4-7.5,7.5s3.4,7.5,7.5,7.5c5.1,0,6.1,0,6.1,14.5
	c0,6.3,1.9,11.6,5.5,15.5c-3.5,3.9-5.5,9.1-5.5,15.5c0,14.5-1.1,14.5-6.1,14.5c-4.1,0-7.5,3.4-7.5,7.5s3.4,7.5,7.5,7.5
	c11.7,0,16.7-6,18.8-11.1c2.3-5.4,2.3-11.7,2.3-18.4c0-2.8,0-8,10.4-8c4.1,0,7.5-3.4,7.5-7.5S214.7,129.4,210.6,129.4z M166.9,252.8
	c-4.3-2-7-3.3-7.9-4.1c-1-0.7-1.5-1.6-1.5-2.5c0-0.9,0.4-1.6,1.1-2.2c0.8-0.6,2-0.9,3.7-0.9c3.3,0,7.1,1,11.6,3.1l4-10
	c-5.2-2.3-10.2-3.4-15.2-3.4c-5.6,0-10,1.2-13.3,3.7c-3.2,2.5-4.8,5.9-4.8,10.3c0,2.4,0.4,4.4,1.1,6.1c0.8,1.7,1.9,3.3,3.5,4.6
	s3.9,2.7,7,4.1c3.5,1.6,5.6,2.6,6.4,3.1c0.8,0.5,1.4,1,1.7,1.5s0.5,1.1,0.5,1.7c0,1-0.4,1.9-1.3,2.6c-0.9,0.7-2.3,1-4.2,1
	c-2.2,0-4.7-0.4-7.4-1.1c-2.7-0.7-5.2-1.7-7.7-3V279c2.3,1.1,4.6,1.9,6.8,2.3s4.8,0.7,8,0.7c3.8,0,7.2-0.6,10-1.9s5-3.1,6.5-5.4
	c1.5-2.3,2.3-5,2.3-7.9c0-3.2-0.8-5.9-2.4-8.1C173.9,256.6,171,254.6,166.9,252.8z M205.7,252.8c-4.3-2-7-3.3-7.9-4.1
	c-1-0.7-1.5-1.6-1.5-2.5c0-0.9,0.4-1.6,1.1-2.2s2-0.9,3.7-0.9c3.3,0,7.1,1,11.6,3.1l4-10c-5.2-2.3-10.2-3.4-15.2-3.4
	c-5.6,0-10,1.2-13.3,3.7c-3.2,2.5-4.8,5.9-4.8,10.3c0,2.4,0.4,4.4,1.1,6.1c0.8,1.7,1.9,3.3,3.5,4.6c1.6,1.3,3.9,2.7,7,4.1
	c3.5,1.6,5.6,2.6,6.4,3.1c0.8,0.5,1.4,1,1.7,1.5c0.4,0.5,0.5,1.1,0.5,1.7c0,1-0.4,1.9-1.3,2.6c-0.9,0.7-2.3,1-4.2,1
	c-2.2,0-4.7-0.4-7.4-1.1c-2.7-0.7-5.2-1.7-7.7-3V279c2.3,1.1,4.6,1.9,6.8,2.3s4.8,0.7,8,0.7c3.8,0,7.2-0.6,10-1.9
	c2.8-1.3,5-3.1,6.5-5.4c1.5-2.3,2.3-5,2.3-7.9c0-3.2-0.8-5.9-2.4-8.1C212.7,256.6,209.8,254.6,205.7,252.8z"/>
</svg>
