<?xml version="1.0" encoding="utf-8"?>
<!-- Generator: Adobe Illustrator 22.0.1, SVG Export Plug-In . SVG Version: 6.00 Build 0)  -->
<svg version="1.1" id="Layer_1" xmlns="http://www.w3.org/2000/svg" xmlns:xlink="http://www.w3.org/1999/xlink" x="0px" y="0px"
	 viewBox="0 0 318.2 318.2" style="enable-background:new 0 0 318.2 318.2;" xml:space="preserve">
<path d="M182.9,155h33.7v15h-33.7V155z M101.6,132.7h33.7v15h-33.7V132.7z M182.9,132.7h33.7v15h-33.7V132.7z M182.9,88.1h33.7v15
	h-33.7V88.1z M182.9,110.4h33.7v15h-33.7V110.4z M101.6,155h33.7v15h-33.7V155z M112.1,123.7L112.1,123.7l6.2-10l6.3,10h10
	l-10.9-15.8l10.2-16.4h-9.9l-5.6,9.9l-5.8-9.9h-9.6l10,15.7l-10.7,16.4H112.1z M201,249.5c-0.3,1.3-0.7,3-1.2,5.2
	c-0.4,2.2-0.7,4.1-0.9,5.6c-0.1-2.1-0.8-5.7-2.2-10.9l-6.3-23.5h-14.1l15.1,46.4h14.8l15.2-46.4h-14L201,249.5z M142.5,110.4h33.7
	v15h-33.7V110.4z M142.5,88.1h33.7v15h-33.7V88.1z M283.1,52.7L232.6,2.2c-1.4-1.4-3.3-2.2-5.3-2.2h-187c-4.1,0-7.5,3.4-7.5,7.5
	v303.2c0,4.1,3.4,7.5,7.5,7.5h237.5c4.1,0,7.5-3.4,7.5-7.5V58C285.3,56,284.6,54.1,283.1,52.7z M234.8,25.6l24.9,24.9h-24.9
	L234.8,25.6L234.8,25.6z M47.8,15h172v10.3h-172V15z M47.8,303.2V40.3h172V58c0,4.1,3.4,7.5,7.5,7.5h43v237.7H47.8z M142.5,132.7
	h33.7v15h-33.7V132.7z M122.4,235.5c2,0,3.8,0.3,5.5,0.8c1.7,0.6,3.4,1.2,5.1,2l3.8-9.9c-4.6-2.2-9.4-3.3-14.4-3.3
	c-4.6,0-8.6,1-12,2.9c-3.4,2-6,4.8-7.8,8.4c-1.8,3.6-2.7,7.9-2.7,12.7c0,7.7,1.9,13.6,5.6,17.6c3.7,4.1,9.1,6.1,16.1,6.1
	c4.9,0,9.3-0.9,13.1-2.6v-10.6c-1.9,0.8-3.9,1.5-5.8,2.1c-1.9,0.6-3.9,0.9-6,0.9c-6.8,0-10.2-4.5-10.2-13.4c0-4.3,0.8-7.7,2.5-10.1
	C117.1,236.7,119.4,235.5,122.4,235.5z M163.6,244.6c-4.2-1.9-6.7-3.2-7.7-3.9c-0.9-0.7-1.4-1.5-1.4-2.4c0-0.8,0.4-1.6,1.1-2.1
	c0.7-0.6,1.9-0.9,3.6-0.9c3.2,0,6.9,1,11.2,3l3.8-9.7c-5-2.2-9.9-3.3-14.7-3.3c-5.4,0-9.7,1.2-12.8,3.6c-3.1,2.4-4.7,5.7-4.7,10
	c0,2.3,0.4,4.3,1.1,5.9s1.9,3.2,3.4,4.4s3.8,2.6,6.8,4c3.3,1.5,5.4,2.5,6.2,3c0.8,0.5,1.3,1,1.7,1.4c0.4,0.5,0.5,1,0.5,1.7
	c0,1-0.4,1.8-1.3,2.5c-0.9,0.6-2.2,1-4.1,1c-2.2,0-4.5-0.3-7.1-1c-2.6-0.7-5.1-1.6-7.5-2.9V270c2.3,1.1,4.4,1.8,6.5,2.3
	s4.7,0.6,7.8,0.6c3.7,0,6.9-0.6,9.7-1.9c2.8-1.2,4.9-3,6.3-5.2c1.5-2.2,2.2-4.8,2.2-7.7c0-3.1-0.8-5.7-2.3-7.8
	C170.3,248.3,167.6,246.4,163.6,244.6z M142.5,155h33.7v15h-33.7V155z"/>
</svg>
