<?xml version="1.0" encoding="utf-8"?>
<!-- Generator: Adobe Illustrator 22.0.1, SVG Export Plug-In . SVG Version: 6.00 Build 0)  -->
<svg version="1.1" id="Layer_1" xmlns="http://www.w3.org/2000/svg" xmlns:xlink="http://www.w3.org/1999/xlink" x="0px" y="0px"
	 viewBox="0 0 318.2 318.2" style="enable-background:new 0 0 318.2 318.2;" xml:space="preserve">
<path d="M118.5,225.9h-16.1v46.4h15c7.7,0,13.7-2.1,18-6.3c4.3-4.2,6.4-10.2,6.4-17.9c0-7.2-2-12.7-6.1-16.5
	S125.9,225.9,118.5,225.9z M126.1,258.7c-1.8,2.2-4.6,3.3-8.4,3.3H115v-26h3.7c3.4,0,6,1,7.7,3.1c1.7,2.1,2.5,5.2,2.5,9.5
	C128.8,253.1,127.9,256.5,126.1,258.7z M162.7,225.9h-12.5v46.4h30.4v-10.1h-17.9V225.9z M129.8,99.7c-14,0-25.4,11.4-25.4,25.4
	c0,14,11.4,25.4,25.4,25.4s25.4-11.4,25.4-25.4C155.2,111.1,143.8,99.7,129.8,99.7z M129.8,135.6c-5.7,0-10.4-4.7-10.4-10.4
	c0-5.7,4.7-10.4,10.4-10.4s10.4,4.7,10.4,10.4C140.2,130.9,135.5,135.6,129.8,135.6z M218.1,111.7c-0.5-0.1-1.1-0.2-1.7-0.2
	c-1.3-3.5-4.7-5.9-8.5-5.9c-0.7,0-1.3,0.1-2,0.2c-0.3,0.1-0.5,0.1-0.8,0.2l-11.1,3.7c-0.3,0.1-0.5,0.2-0.8,0.3
	c-0.6,0.3-1.1,0.6-1.6,0.9l-1.8-8.5c-0.1-0.3-0.1-0.5-0.2-0.8c-1.4-4.2-5.3-7-9.7-7c-1.5,0-3,0.3-4.4,1l-0.1,0
	c-1.7-2.6-3.6-5-5.7-7.3l0.1-0.1c1.9-2.3,2.7-5.2,2.3-8.1s-2.1-5.5-4.6-7.1c-0.2-0.2-0.5-0.3-0.7-0.4L149.6,64
	c-0.2-0.1-0.5-0.2-0.8-0.3c-1.2-0.4-2.4-0.6-3.6-0.6c-4.7,0-8.8,3.2-9.9,7.9l0,0.1c-3.4-0.3-6.8-0.4-10.2-0.1l0-0.1
	c-1.1-4.7-5.2-8-10-8c-1.2,0-2.3,0.2-3.5,0.6c-0.3,0.1-0.5,0.2-0.8,0.3l-17.3,8.3c-0.3,0.1-0.5,0.3-0.7,0.4c-2.5,1.6-4.2,4.1-4.7,7
	c-0.5,2.9,0.3,5.8,2.1,8.2l0,0.1c-2.1,2.2-4.1,4.6-5.8,7.2l-0.1,0c-1.4-0.7-3-1.1-4.5-1.1c-4.3,0-8.2,2.8-9.7,6.9
	c-0.1,0.3-0.2,0.5-0.2,0.8l-4.3,18.7c-0.1,0.3-0.1,0.5-0.1,0.8c-0.3,2.9,0.6,5.9,2.5,8c1.9,2.2,4.7,3.4,7.7,3.4h0.1
	c0.4,3.1,1.1,6.1,2,9l-0.1,0c-2.7,1.3-4.7,3.6-5.5,6.4c-0.8,2.8-0.4,5.8,1.2,8.3c0.1,0.2,0.3,0.5,0.5,0.7L85.8,172
	c0.2,0.2,0.4,0.4,0.5,0.6c2,2,4.6,3.1,7.3,3.1c3.1,0,6-1.4,8-3.9l0-0.1c2.6,1.6,5.4,2.9,8.3,4.1l0,0.1c-0.7,2.9-0.1,5.9,1.6,8.3
	s4.3,4,7.2,4.3c0.3,0,0.6,0.1,0.8,0.1l19.2,0.1h0.1c0.3,0,0.5,0,0.8,0c2.9-0.3,5.6-1.8,7.3-4.2c1.7-2.4,2.3-5.4,1.7-8.3l0-0.1
	c2.9-1.1,5.7-2.4,8.4-3.9l0.1,0.1c2,2.5,4.9,4,8.1,4c2.7,0,5.3-1.1,7.2-3c0.2-0.2,0.4-0.4,0.6-0.6l3.7-4.6l3.8,6.1
	c0.1,0.2,0.3,0.5,0.5,0.7c1.8,2.2,4.4,3.5,7.2,3.5c1.6,0,3.1-0.4,4.5-1.2c0.5,0.3,0.9,0.6,1.4,0.9c-0.1,1.7,0.2,3.5,1.1,5
	c1.3,2.3,3.4,3.9,6,4.5c0.3,0.1,0.5,0.1,0.8,0.1l11.6,1.4c0.3,0,0.6,0.1,0.8,0.1h0.1c2.6,0,5.1-1.1,6.9-3c1.2-1.3,1.9-2.9,2.2-4.6
	c0.5-0.2,1-0.3,1.6-0.5c1.7,1.6,3.9,2.4,6.2,2.4c2.1,0,4.1-0.7,5.7-2c0.2-0.2,0.4-0.4,0.6-0.5l8.3-8.2c0.2-0.2,0.4-0.4,0.6-0.6
	c1.7-2,2.4-4.7,2-7.3c-0.3-1.7-1.1-3.4-2.2-4.6c0.2-0.5,0.4-1,0.6-1.6c4.4-0.6,7.8-4.4,7.8-9c0-0.3,0-0.6,0-0.8l-1.2-11.6
	c0-0.3-0.1-0.5-0.1-0.8c-0.9-4.3-4.6-7.3-9-7.3c-0.2,0-0.3,0-0.5,0c-0.3-0.5-0.6-1-0.9-1.4c0.9-1.5,1.3-3.2,1.2-5
	c-0.1-2.6-1.4-5.1-3.4-6.7c-0.2-0.2-0.4-0.3-0.7-0.5l-9.8-6.3c-0.2-0.2-0.5-0.3-0.7-0.4c-1.3-0.6-2.7-1-4.1-1
	C222.5,107.9,219.8,109.3,218.1,111.7z M176.8,118.2c-2,0-3.9,0.7-5.3,2.1c-1.4,1.4-2.2,3.3-2.3,5.3c-0.1,6-1.4,11.7-4.1,17
	c-0.9,1.8-1,3.8-0.4,5.7c0.6,1.9,2,3.4,3.8,4.3l1,0.5l-4.3,5.2l-0.7-0.9c-1.2-1.6-3-2.6-5-2.8c-2-0.2-4,0.3-5.5,1.5
	c-4.7,3.7-10,6.2-15.8,7.4c-1.9,0.4-3.6,1.6-4.7,3.3c-1.1,1.7-1.4,3.7-1,5.7l0.2,1.1l-6.8-0.1l0.3-1.1c0.5-1.9,0.1-4-0.9-5.7
	c-1-1.7-2.7-2.9-4.7-3.4c-5.7-1.3-11.1-4-15.7-7.7c-1.5-1.3-3.5-1.8-5.5-1.6c-2,0.2-3.8,1.2-5,2.8l-0.7,0.9l-4.2-5.3l1-0.5
	c1.8-0.9,3.2-2.4,3.9-4.3c0.7-1.9,0.6-3.9-0.3-5.7c-2.5-5.3-3.8-10.9-3.8-16.8c0-0.1,0-0.2,0-0.3c0-4.1-3.3-7.5-7.5-7.5l-1.1,0
	l1.5-6.6l1,0.5c1.8,0.9,3.9,1,5.7,0.3c1.9-0.6,3.4-2,4.3-3.8c2.6-5.3,6.3-10,10.9-13.6c1.6-1.2,2.6-3,2.8-5c0.2-2-0.3-4-1.6-5.5
	l-0.7-0.9l6.1-2.9l0.2,1.1c0.4,1.9,1.6,3.6,3.3,4.7c1.7,1.1,3.7,1.4,5.7,1c6-1.4,12.2-1.3,18.1,0.1c4,1,8.1-1.5,9.1-5.5l0.3-1.1l6,3
	l-0.7,0.9c-1.3,1.5-1.9,3.5-1.7,5.5c0.2,2,1.2,3.8,2.7,5.1c4.5,3.7,8.2,8.5,10.7,13.8c0.8,1.8,2.4,3.2,4.2,3.9
	c1.9,0.7,3.9,0.6,5.7-0.3l1-0.5l1.4,6.6L176.8,118.2z M227.8,132.7c2.2,2.3,3.9,4.9,4.9,7.9c0.6,1.9,2,3.4,3.8,4.3
	c-1.6,1.2-2.6,3-2.8,5c-0.4,3.1-1.4,6.1-3.1,8.7c-1.1,1.7-1.4,3.7-1,5.6c-1.9-0.5-4-0.1-5.7,0.9c-2.7,1.7-5.7,2.7-8.8,3
	c-2,0.2-3.8,1.2-5,2.7c-0.9-1.8-2.4-3.2-4.3-3.8c-2.9-1-5.5-2.7-7.7-4.9c0-0.1-0.1-0.1-0.1-0.1c-1.5-1.5-3.4-2.2-5.3-2.2
	c0.9-1.8,1-3.8,0.3-5.7c-1-2.9-1.4-6.1-1-9.3c0.2-2-0.3-4-1.6-5.5c1.9-0.4,3.6-1.6,4.7-3.3c0.8-1.3,1.8-2.6,2.9-3.7
	c1.2-1.2,2.5-2.2,4-3.1c1.8-1.1,2.9-2.8,3.4-4.6c1.5,1.3,3.5,1.9,5.5,1.7c3.1-0.3,6.3,0.1,9.2,1.2c1.9,0.7,3.9,0.6,5.7-0.2
	C225.6,129.3,226.4,131.2,227.8,132.7z M283.1,52.7L232.6,2.2c-1.4-1.4-3.3-2.2-5.3-2.2h-187c-4.1,0-7.5,3.4-7.5,7.5v303.2
	c0,4.1,3.4,7.5,7.5,7.5h237.5c4.1,0,7.5-3.4,7.5-7.5V58C285.3,56,284.6,54.1,283.1,52.7z M234.8,25.6l24.9,24.9h-24.9L234.8,25.6
	L234.8,25.6z M47.8,15h172v10.3h-172V15z M270.3,303.2H47.8V40.3h172V58c0,4.1,3.4,7.5,7.5,7.5h43L270.3,303.2L270.3,303.2z
	 M199.7,134.3c-3.5,3.5-5.4,8.1-5.4,13c0,4.9,1.9,9.5,5.4,13c3.5,3.5,8.1,5.4,13,5.4c4.9,0,9.5-1.9,13-5.4c3.5-3.5,5.4-8.1,5.4-13
	c0-4.9-1.9-9.5-5.4-13c-3.5-3.5-8.1-5.4-13-5.4S203.2,130.9,199.7,134.3z M216.1,147.3c0,0.5-0.1,1.5-1,2.4c-0.9,0.9-1.9,1-2.4,1
	c-0.5,0-1.5-0.1-2.4-1s-1-1.9-1-2.4s0.1-1.5,1-2.4c0.9-0.9,1.9-1,2.4-1s1.5,0.1,2.4,1C216,145.8,216.1,146.8,216.1,147.3z
	 M200.5,225.9H188v46.4h30.4v-10.1h-17.9V225.9z"/>
</svg>
