<?xml version="1.0" encoding="utf-8"?>
<!-- Generator: Adobe Illustrator 22.0.1, SVG Export Plug-In . SVG Version: 6.00 Build 0)  -->
<svg version="1.1" id="Layer_1" xmlns="http://www.w3.org/2000/svg" xmlns:xlink="http://www.w3.org/1999/xlink" x="0px" y="0px"
	 viewBox="0 0 318.2 318.2" style="enable-background:new 0 0 318.2 318.2;" xml:space="preserve">
<path d="M283.1,52.7L232.6,2.2c-1.4-1.4-3.3-2.2-5.3-2.2h-187c-4.1,0-7.5,3.4-7.5,7.5v303.2c0,4.1,3.4,7.5,7.5,7.5h237.5
	c4.1,0,7.5-3.4,7.5-7.5V58C285.3,56,284.6,54.1,283.1,52.7z M234.8,25.6l24.9,24.9h-24.9L234.8,25.6L234.8,25.6z M47.8,15h172v10.3
	h-172V15z M270.3,303.2H47.8V40.3h172V58c0,4.1,3.4,7.5,7.5,7.5h43L270.3,303.2L270.3,303.2z M106.9,233.4H90.3v48h15.5
	c8,0,14.2-2.2,18.6-6.5s6.6-10.5,6.6-18.5c0-7.4-2.1-13.1-6.3-17.1C120.5,235.4,114.6,233.4,106.9,233.4z M114.8,267.3
	c-1.8,2.3-4.7,3.4-8.7,3.4h-2.9v-26.9h3.8c3.5,0,6.2,1.1,7.9,3.2c1.7,2.1,2.6,5.4,2.6,9.8C117.6,261.5,116.6,265,114.8,267.3z
	 M161.2,232.6c-7.6,0-13.4,2.1-17.4,6.3c-4,4.2-6,10.3-6,18.3c0,8.1,2,14.2,6,18.4c4,4.2,9.8,6.3,17.3,6.3c7.6,0,13.4-2.1,17.4-6.3
	c4-4.2,5.9-10.3,5.9-18.4c0-8.1-2-14.2-5.9-18.4C174.7,234.7,168.9,232.6,161.2,232.6z M168.5,267.9c-1.6,2.3-4,3.4-7.3,3.4
	c-6.5,0-9.7-4.6-9.7-13.9c0-9.4,3.2-14,9.7-14c3.2,0,5.6,1.1,7.2,3.4c1.6,2.3,2.4,5.8,2.4,10.6C170.9,262.1,170.1,265.6,168.5,267.9
	z M105.8,189.2h105.1c4.1,0,7.5-3.4,7.5-7.5V76.6c0-4.1-3.4-7.5-7.5-7.5H105.8c-4.1,0-7.5,3.4-7.5,7.5v105.1
	C98.3,185.8,101.6,189.2,105.8,189.2z M113.3,84.1L113.3,84.1h90.1v14h-9.8l-14,35.1c-3.8,9.8-5.8,15.1-6.1,16
	c0.8-4.9,1.2-9.8,1.2-14.6V98.1h-15.5l-15.5,35.6l-4.3,10.7l-1.8,4.8c0.6-3.3,1-9.1,1.2-17.3l0.5-33.8h-17.1l2.3,67.4h20l11.7-27.4
	c2.6-6.6,4.4-12,5.4-16.1c-0.4,5.2-0.6,10.2-0.6,14.9v28.6h21.3l21.3-48.9v57.6h-90.1L113.3,84.1L113.3,84.1z M214.5,243.3
	c2,0,3.9,0.3,5.7,0.9c1.8,0.6,3.5,1.3,5.3,2.1l4-10.2c-4.7-2.3-9.7-3.4-14.9-3.4c-4.7,0-8.9,1-12.4,3s-6.2,4.9-8.1,8.7
	c-1.9,3.8-2.8,8.1-2.8,13.1c0,7.9,1.9,14,5.8,18.2s9.4,6.3,16.7,6.3c5.1,0,9.6-0.9,13.6-2.7v-11c-2,0.8-4,1.5-6,2.1
	c-2,0.6-4,0.9-6.2,0.9c-7,0-10.5-4.6-10.5-13.8c0-4.4,0.9-7.9,2.6-10.5C209,244.6,211.4,243.3,214.5,243.3z"/>
</svg>
