<?xml version="1.0" encoding="utf-8"?>
<!-- Generator: Adobe Illustrator 22.0.1, SVG Export Plug-In . SVG Version: 6.00 Build 0)  -->
<svg version="1.1" id="Layer_1" xmlns="http://www.w3.org/2000/svg" xmlns:xlink="http://www.w3.org/1999/xlink" x="0px" y="0px"
	 viewBox="0 0 318.2 318.2" style="enable-background:new 0 0 318.2 318.2;" xml:space="preserve">
<path d="M136.4,169.7c7-6.6,10.5-16,10.5-28.4c0-11.6-3.4-20.6-10.2-27.1c-6.8-6.5-16.3-9.7-28.5-9.7H84.7v75H106
	C119.2,179.6,129.4,176.3,136.4,169.7z M100.6,117.7L100.6,117.7h8.5c14.2,0,21.3,8,21.3,24.1c0,16.4-7.7,24.7-23,24.7h-6.8
	C100.6,166.5,100.6,117.7,100.6,117.7z M219.7,147.6c-0.3,1.5-0.9,4.4-1.7,8.7c-0.8,4.3-1.3,7.7-1.6,10.1H216c0-1-0.2-2.2-0.4-3.8
	c-0.2-1.6-0.5-3.2-0.7-4.9c-0.3-1.7-0.6-3.2-0.8-4.7c-0.3-1.5-0.5-2.6-0.6-3.3l-6.7-27.5h-17.2l-7.1,27.5l-0.8,4.4
	c-1.1,5.6-1.7,9.8-1.8,12.4h-0.3c-1.1-8-2.2-14.3-3.2-18.8l-6.6-25.4H154l16.3,57.3h16.8l10.5-45.4h0.4l5.9,25.3l4.4,20h17
	l16.5-57.3h-15.3L219.7,147.6z M199.7,244h11.7v37.4h13V244h11.7v-10.6h-36.4V244z M100.7,233.4H84.1v48h15.5c8,0,14.2-2.2,18.6-6.5
	c4.4-4.3,6.6-10.5,6.6-18.5c0-7.4-2.1-13.1-6.3-17.1C114.3,235.4,108.4,233.4,100.7,233.4z M108.6,267.3c-1.8,2.3-4.7,3.4-8.7,3.4
	h-2.9v-26.9h3.8c3.5,0,6.2,1.1,7.9,3.2s2.6,5.4,2.6,9.8C111.4,261.5,110.4,265,108.6,267.3z M283.1,52.7L232.6,2.2
	c-1.4-1.4-3.3-2.2-5.3-2.2h-187c-4.1,0-7.5,3.4-7.5,7.5v303.2c0,4.1,3.4,7.5,7.5,7.5h237.5c4.1,0,7.5-3.4,7.5-7.5V58
	C285.3,56,284.6,54.1,283.1,52.7z M234.8,25.6l24.9,24.9h-24.9L234.8,25.6L234.8,25.6z M47.8,15h172v10.3h-172V15z M270.3,303.2
	H47.8V40.3h172V58c0,4.1,3.4,7.5,7.5,7.5h43L270.3,303.2L270.3,303.2z M179.2,257.5c-1.3,6-2,10.2-2.3,12.6
	c-0.2-1.9-0.7-4.7-1.4-8.5c-0.7-3.8-1.4-7.2-2.1-10.1l-4.1-18.1h-12l-4.2,18.1c-0.6,2.5-1.3,5.7-2.1,9.5s-1.2,6.9-1.5,9.1
	c-0.4-3.1-1.2-7.4-2.4-12.7l-5.2-24.1h-12.5l11.9,48h15.3c2.8-12.6,4.4-19.8,4.8-21.5c0.4-1.8,0.8-3.7,1.2-5.8s0.7-3.9,0.9-5.3
	c0.2,1.8,0.6,3.9,1,6.5c0.5,2.6,0.8,4.3,1,5.2l4.6,20.9h15.3l11.8-48h-12.5L179.2,257.5z"/>
</svg>
