<?xml version="1.0" encoding="utf-8"?>
<!-- Generator: Adobe Illustrator 22.0.1, SVG Export Plug-In . SVG Version: 6.00 Build 0)  -->
<svg version="1.1" id="Layer_1" xmlns="http://www.w3.org/2000/svg" xmlns:xlink="http://www.w3.org/1999/xlink" x="0px" y="0px"
	 viewBox="0 0 318.2 318.2" style="enable-background:new 0 0 318.2 318.2;" xml:space="preserve">
<path d="M95.7,233.4H79.1v48h15.5c8,0,14.2-2.2,18.6-6.5c4.4-4.3,6.6-10.5,6.6-18.5c0-7.4-2.1-13.1-6.3-17.1
	C109.3,235.4,103.4,233.4,95.7,233.4z M103.6,267.3c-1.8,2.3-4.7,3.4-8.7,3.4H92v-26.9h3.8c3.5,0,6.2,1.1,7.9,3.2
	c1.7,2.1,2.6,5.4,2.6,9.8C106.3,261.5,105.4,265,103.6,267.3z M219.7,282c6.7,0,12.9-1,18.5-2.9v-25.9h-20.7v10h8.6v7.5
	c-1.6,0.4-3.4,0.6-5.3,0.6c-3.5,0-6.2-1.2-8.1-3.5c-1.9-2.4-2.8-5.8-2.8-10.3c0-4.6,1-8.1,3.1-10.6c2.1-2.5,5-3.7,8.8-3.7
	c4.1,0,7.9,0.9,11.4,2.6l4.1-10.2c-2-0.9-4.3-1.6-7-2.2c-2.7-0.6-5.5-0.9-8.5-0.9c-8,0-14.2,2.2-18.6,6.5
	c-4.4,4.3-6.6,10.3-6.6,18.1c0,7.9,2,14.1,6.1,18.3C206.6,279.9,212.3,282,219.7,282z M283.1,52.7L232.6,2.2
	c-1.4-1.4-3.3-2.2-5.3-2.2h-187c-4.1,0-7.5,3.4-7.5,7.5v303.2c0,4.1,3.4,7.5,7.5,7.5h237.5c4.1,0,7.5-3.4,7.5-7.5V58
	C285.3,56,284.6,54.1,283.1,52.7z M234.8,25.6l24.9,24.9h-24.9L234.8,25.6L234.8,25.6z M227.3,65.5h43v34.7H151.9V88.9
	c0-4.1-3.4-7.5-7.5-7.5H133V40.3h86.8V58C219.8,62.2,223.2,65.5,227.3,65.5z M136.9,96.4V119h-22.6V96.4H136.9z M47.8,15h172v10.3
	h-172V15z M47.8,40.3H118v41.2h-11.3c-4.1,0-7.5,3.4-7.5,7.5v11.3H47.8V40.3z M270.3,303.2H47.8v-188h51.4v11.3
	c0,4.1,3.4,7.5,7.5,7.5H118v65.3h15V134h11.3c4.1,0,7.5-3.4,7.5-7.5v-11.3h118.5V303.2z M145.9,261.1c-0.7,3.8-1.2,6.9-1.5,9.1
	c-0.4-3.1-1.2-7.4-2.4-12.7l-5.2-24.1h-12.5l11.9,48h15.3c2.8-12.6,4.4-19.8,4.8-21.5c0.4-1.8,0.8-3.7,1.2-5.8
	c0.4-2.1,0.7-3.9,0.9-5.3c0.2,1.8,0.6,3.9,1,6.5c0.5,2.6,0.8,4.3,1,5.2l4.6,20.9h15.3l11.8-48h-12.5l-5.3,24.1
	c-1.3,6-2,10.2-2.3,12.6c-0.2-1.9-0.7-4.7-1.4-8.5c-0.7-3.8-1.4-7.2-2.1-10.1l-4.1-18.1h-12l-4.2,18.1
	C147.3,254.1,146.6,257.2,145.9,261.1z"/>
</svg>
