<?xml version="1.0" encoding="utf-8"?>
<!-- Generator: Adobe Illustrator 22.0.1, SVG Export Plug-In . SVG Version: 6.00 Build 0)  -->
<svg version="1.1" id="Layer_1" xmlns="http://www.w3.org/2000/svg" xmlns:xlink="http://www.w3.org/1999/xlink" x="0px" y="0px"
	 viewBox="0 0 318.2 318.2" style="enable-background:new 0 0 318.2 318.2;" xml:space="preserve">
<path d="M95.9,272.3h27.5V262h-15v-8.8h13.9v-10.1h-13.9v-7.3h15v-10.1H95.9V272.3z M215.1,83.4H103.1c-7.9,0-14.3,6.4-14.3,14.3
	v58.5c0,7.9,6.4,14.3,14.3,14.3h111.9c7.9,0,14.3-6.4,14.3-14.3V97.7C229.4,89.8,223,83.4,215.1,83.4z M199.6,98.4L159.1,129
	l-40.5-30.7H199.6z M103.8,106l27.6,21l-27.6,21C103.8,147.9,103.8,106,103.8,106z M118.6,155.5l25.3-19.1l10.7,8.1
	c1.3,1,2.9,1.5,4.5,1.5s3.2-0.5,4.5-1.5l10.7-8.1l25.3,19.1H118.6z M214.4,147.9l-27.6-21l27.6-21V147.9z M283.1,52.7L232.6,2.2
	c-1.4-1.4-3.3-2.2-5.3-2.2h-187c-4.1,0-7.5,3.4-7.5,7.5v303.2c0,4.1,3.4,7.5,7.5,7.5h237.5c4.1,0,7.5-3.4,7.5-7.5V58
	C285.3,56,284.6,54.1,283.1,52.7z M234.8,25.6l24.9,24.9h-24.9L234.8,25.6L234.8,25.6z M47.8,15h172v10.3h-172V15z M270.3,303.2
	H47.8V40.3h172V58c0,4.1,3.4,7.5,7.5,7.5h43L270.3,303.2L270.3,303.2z M158.2,258.8H158l-9.7-32.9h-16.7v46.4h11.1v-20.2
	c0-3.2-0.2-7.6-0.7-13.3h0.3l9.5,33.4h11.9l9.4-33.4h0.3c-0.3,5-0.4,8.2-0.4,9.5s0,2.5,0,3.5v20.3h11.5v-46.4h-16.7L158.2,258.8z
	 M207,225.9h-12.5v46.4h30.4v-10.1H207V225.9z"/>
</svg>
