<?xml version="1.0" encoding="utf-8"?>
<!-- Generator: Adobe Illustrator 22.0.1, SVG Export Plug-In . SVG Version: 6.00 Build 0)  -->
<svg version="1.1" id="Layer_1" xmlns="http://www.w3.org/2000/svg" xmlns:xlink="http://www.w3.org/1999/xlink" x="0px" y="0px"
	 viewBox="0 0 318.2 318.2" style="enable-background:new 0 0 318.2 318.2;" xml:space="preserve">
<path d="M283.1,52.7L232.6,2.2c-1.4-1.4-3.3-2.2-5.3-2.2h-187c-4.1,0-7.5,3.4-7.5,7.5v303.2c0,4.1,3.4,7.5,7.5,7.5h237.5
	c4.1,0,7.5-3.4,7.5-7.5V58C285.3,56,284.6,54.1,283.1,52.7z M234.8,25.6l24.9,24.9h-24.9L234.8,25.6L234.8,25.6z M47.8,15h172v10.3
	h-172V15z M270.3,303.2H47.8V40.3h172V58c0,4.1,3.4,7.5,7.5,7.5h43L270.3,303.2L270.3,303.2z M104.5,281.4h28.5v-10.6h-15.5v-9.1
	h14.4v-10.4h-14.4v-7.5h15.5v-10.4h-28.5V281.4z M214.9,127.7l-12.3-12.3l2.3-2.3c1.4-1.4,2.2-3.3,2.2-5.3s-0.8-3.9-2.2-5.3
	l-15.2-15.2c-1.4-1.4-3.3-2.2-5.3-2.2c-2,0-3.9,0.8-5.3,2.2l-2.3,2.3l-12.3-12.3c0.9-2.2,1.4-4.6,1.4-7c0-10.5-8.5-19-19-19
	c-5.1,0-9.9,2-13.5,5.6c-3.6,3.6-5.6,8.4-5.6,13.5c0,5.1,2,9.9,5.6,13.5c3.6,3.6,8.4,5.6,13.5,5.6c2.5,0,4.9-0.5,7-1.4l4.8,4.8
	c-4-0.9-8.2-1.4-12.5-1.4c-11.8,0-23,3.7-32.3,10.5l-2.8-2.8c-1.4-1.4-3.3-2.2-5.3-2.2c-2,0-3.9,0.8-5.3,2.2l-15.2,15.2
	c-2.9,2.9-2.9,7.7,0,10.6l15.2,15.2c1.5,1.5,3.4,2.2,5.3,2.2c1.9,0,3.8-0.7,5.3-2.2l15.3-15.2c1.4-1.4,2.2-3.3,2.2-5.3
	c0-2-0.8-3.9-2.2-5.3l-1.6-1.6c6.3-4.1,13.8-6.3,21.5-6.3c5.5,0,10.7,1.1,15.6,3.2c0.3,1.3,1,2.6,2,3.6l15.2,15.2c1,1,2.3,1.7,3.6,2
	c5.1,12,4.1,25.9-3.1,37.1l-1.7-1.7c-2.9-2.9-7.7-2.9-10.6,0L152.1,181c-1.4,1.4-2.2,3.3-2.2,5.3c0,2,0.8,3.9,2.2,5.3l15.2,15.2
	c1.5,1.5,3.4,2.2,5.3,2.2s3.8-0.7,5.3-2.2l15.2-15.2c2.9-2.9,2.9-7.7,0-10.6l-2.8-2.8c9.6-13.1,12.6-29.6,9.1-44.8l4.9,4.9
	c-0.9,2.2-1.4,4.6-1.4,7c0,10.5,8.5,19,19,19c5.1,0,9.9-2,13.5-5.6s5.6-8.4,5.6-13.5c0-10.5-8.5-19-19-19
	C219.5,126.3,217.1,126.8,214.9,127.7z M146.8,74.2c-1.1,0-2.1-0.4-2.8-1.2c-0.8-0.8-1.2-1.8-1.2-2.8c0-1.1,0.4-2.1,1.2-2.8
	c0.8-0.8,1.8-1.2,2.8-1.2c2.2,0,4,1.8,4,4C150.9,72.4,149.1,74.2,146.8,74.2z M105.8,124.2l-4.6-4.6l4.6-4.6c0.4,1.1,1,2.1,1.8,2.9
	c0.8,0.8,1.8,1.4,2.8,1.8L105.8,124.2z M172.6,190.9l-4.6-4.6l4.6-4.6c0.4,1,0.9,2,1.8,2.9c0.8,0.8,1.8,1.4,2.9,1.8L172.6,190.9z
	 M187.2,109.7c-0.7-0.8-1.5-1.6-2.2-2.4c-0.8-0.8-1.6-1.5-2.4-2.2l1.9-1.9l4.6,4.6L187.2,109.7z M226,145.4c0,1.1-0.4,2.1-1.2,2.8
	c-0.8,0.8-1.8,1.2-2.8,1.2c-2.2,0-4-1.8-4-4c0-2.2,1.8-4,4-4C224.2,141.3,226,143.1,226,145.4z M171.6,237.4c-3-2.6-7.6-4-13.7-4
	h-16.6v48h13v-15.9h3.6c5.8,0,10.3-1.5,13.5-4.4c3.2-2.9,4.7-7.1,4.7-12.4C176.2,243.8,174.6,240,171.6,237.4z M161.3,253.2
	c-1.1,1.1-2.7,1.6-4.6,1.6h-2.4v-11h3.3c3.6,0,5.4,1.6,5.4,4.9C163,250.6,162.5,252.2,161.3,253.2z M204.2,252.8
	c-4.3-2-7-3.3-7.9-4.1c-1-0.7-1.5-1.6-1.5-2.5c0-0.9,0.4-1.6,1.1-2.2c0.8-0.6,2-0.9,3.7-0.9c3.3,0,7.1,1,11.6,3.1l4-10
	c-5.2-2.3-10.2-3.4-15.2-3.4c-5.6,0-10,1.2-13.3,3.7c-3.2,2.5-4.8,5.9-4.8,10.3c0,2.4,0.4,4.4,1.1,6.1s1.9,3.3,3.5,4.6
	s3.9,2.7,7,4.1c3.5,1.6,5.6,2.6,6.4,3.1c0.8,0.5,1.4,1,1.7,1.5c0.4,0.5,0.5,1.1,0.5,1.7c0,1-0.4,1.9-1.3,2.6c-0.9,0.7-2.3,1-4.2,1
	c-2.2,0-4.7-0.4-7.4-1.1c-2.7-0.7-5.2-1.7-7.7-3V279c2.3,1.1,4.6,1.9,6.8,2.3s4.8,0.7,8,0.7c3.8,0,7.2-0.6,10-1.9
	c2.8-1.3,5-3.1,6.5-5.4c1.5-2.3,2.3-5,2.3-7.9c0-3.2-0.8-5.9-2.4-8.1C211.2,256.6,208.3,254.6,204.2,252.8z"/>
</svg>
