<?xml version="1.0" encoding="utf-8"?>
<!-- Generator: Adobe Illustrator 22.0.1, SVG Export Plug-In . SVG Version: 6.00 Build 0)  -->
<svg version="1.1" id="Layer_1" xmlns="http://www.w3.org/2000/svg" xmlns:xlink="http://www.w3.org/1999/xlink" x="0px" y="0px"
	 viewBox="0 0 318.2 318.2" style="enable-background:new 0 0 318.2 318.2;" xml:space="preserve">
<path d="M283.1,52.7L232.6,2.2c-1.4-1.4-3.3-2.2-5.3-2.2h-187c-4.1,0-7.5,3.4-7.5,7.5v303.2c0,4.1,3.4,7.5,7.5,7.5h237.5
	c4.1,0,7.5-3.4,7.5-7.5V58C285.3,56,284.6,54.1,283.1,52.7z M234.8,25.6l24.9,24.9h-24.9L234.8,25.6L234.8,25.6z M47.8,15h172v10.3
	h-172V15z M270.3,303.2H47.8V40.3h172V58c0,1.6,0.5,3,1.3,4.2c-0.9-0.4-1.8-0.6-2.8-0.6H98.4c-4.1,0-7.5,3.4-7.5,7.5v119.9
	c0,4.1,3.4,7.5,7.5,7.5h119.9c4.1,0,7.5-3.4,7.5-7.5V69.2c0-1.6-0.5-3-1.3-4.2c0.9,0.4,1.8,0.6,2.8,0.6h43L270.3,303.2L270.3,303.2z
	 M210.8,76.7v104.9H105.9V76.7H210.8z M128.1,263.3L128.1,263.3h8.6v7.5c-1.6,0.4-3.4,0.6-5.3,0.6c-3.5,0-6.2-1.2-8.1-3.5
	c-1.9-2.4-2.8-5.8-2.8-10.3c0-4.6,1-8.1,3.1-10.6c2.1-2.5,5-3.7,8.8-3.7c4.1,0,7.9,0.9,11.4,2.6l4.1-10.2c-2-0.9-4.3-1.6-7-2.2
	c-2.7-0.6-5.5-0.9-8.5-0.9c-8,0-14.2,2.2-18.6,6.5c-4.4,4.3-6.6,10.3-6.6,18.1c0,7.9,2,14.1,6.1,18.3c4,4.3,9.8,6.4,17.1,6.4
	c6.7,0,12.9-1,18.5-2.9v-25.9h-20.7L128.1,263.3L128.1,263.3z M116.8,132C116.8,132.1,116.8,132.1,116.8,132l0,0.1c0,0,0,0,0,0.1
	c0.1,0.2,0.2,0.4,0.3,0.7c0,0.1,0.1,0.1,0.1,0.2c0.1,0.2,0.2,0.3,0.3,0.5c0.1,0.1,0.1,0.1,0.2,0.2c0.1,0.2,0.3,0.3,0.4,0.5
	c0,0,0.1,0.1,0.1,0.1c0.2,0.2,0.4,0.4,0.6,0.6c0.1,0,0.1,0.1,0.2,0.1c0.2,0.1,0.3,0.3,0.5,0.4c0.1,0,0.1,0.1,0.2,0.1
	c0.2,0.1,0.4,0.2,0.5,0.3c0.1,0,0.1,0.1,0.2,0.1c0.2,0.1,0.5,0.2,0.7,0.3c0,0,0.1,0,0.1,0c0.3,0.1,0.6,0.2,0.8,0.2c0,0,0,0,0,0
	c0.1,0,0.2,0,0.3,0c0.1,0,0.2,0,0.4,0.1c0.2,0,0.5,0,0.7,0c0.2,0,0.5,0,0.7,0c0.1,0,0.3,0,0.4-0.1c0.1,0,0.2,0,0.3,0
	c0.2,0,0.3-0.1,0.5-0.1c0.1,0,0.1,0,0.2-0.1c0.2-0.1,0.3-0.1,0.5-0.2c0.1,0,0.1,0,0.2-0.1c0.2-0.1,0.3-0.1,0.5-0.2
	c0.1,0,0.1-0.1,0.2-0.1c0.1-0.1,0.3-0.2,0.4-0.2c0.1,0,0.2-0.1,0.2-0.1c0.1-0.1,0.2-0.2,0.3-0.3c0.1-0.1,0.2-0.1,0.2-0.2
	c0.1-0.1,0.2-0.2,0.3-0.3c0.1-0.1,0.1-0.1,0.2-0.2l10.5-10.4c2.9-2.9,3-7.7,0.1-10.6c-0.7-0.7-1.4-1.2-2.2-1.5c5-6.1,12.6-10,21-10
	c9.7,0,18.7,5.2,23.5,13.6c2.1,3.6,6.7,4.8,10.2,2.7c3.6-2.1,4.8-6.7,2.7-10.2C187.4,95,173.4,87,158.3,87
	c-15.8,0-29.7,8.8-36.9,21.7c-2-1.2-4.6-1.5-6.9-0.5c-3.8,1.7-5.5,6.1-3.9,9.9L116.8,132z M195.3,122c-0.3-0.1-0.6-0.2-0.8-0.2
	c0,0,0,0,0,0c0,0-0.1,0-0.1,0c-0.2,0-0.4-0.1-0.7-0.1c-0.1,0-0.2,0-0.3,0c-0.1,0-0.2,0-0.3,0c-0.1,0-0.2,0-0.2,0c-0.1,0-0.2,0-0.3,0
	c-0.2,0-0.4,0-0.6,0.1c-0.1,0-0.2,0-0.2,0c-0.3,0.1-0.5,0.1-0.8,0.2c0,0,0,0,0,0c-0.3,0.1-0.6,0.2-0.8,0.3c0,0-0.1,0-0.1,0.1
	c-0.2,0.1-0.4,0.2-0.6,0.3c-0.1,0-0.1,0.1-0.2,0.1c-0.2,0.1-0.3,0.2-0.5,0.3c-0.1,0.1-0.1,0.1-0.2,0.2c-0.2,0.1-0.4,0.3-0.5,0.5
	c0,0-0.1,0-0.1,0.1l-10.5,10.4c-2.9,2.9-3,7.7-0.1,10.6c0.7,0.7,1.4,1.2,2.2,1.5c-5,6.1-12.6,10-21,10c-9.7,0-18.7-5.2-23.5-13.6
	c-2.1-3.6-6.7-4.8-10.2-2.7c-3.6,2.1-4.8,6.7-2.7,10.2c7.5,13,21.5,21.1,36.5,21.1c15.9,0,29.7-8.8,36.9-21.7
	c1.2,0.7,2.5,1.1,3.9,1.1c1,0,2-0.2,3-0.6c3.8-1.7,5.5-6.1,3.9-9.9l-6.1-13.9c0,0,0,0,0-0.1l0-0.1c0,0,0,0,0-0.1
	c-0.1-0.2-0.2-0.4-0.3-0.7c0-0.1-0.1-0.1-0.1-0.2c-0.1-0.2-0.2-0.3-0.3-0.5c-0.1-0.1-0.1-0.1-0.2-0.2c-0.1-0.2-0.3-0.3-0.4-0.5
	c0,0-0.1-0.1-0.1-0.1c-0.2-0.2-0.4-0.4-0.6-0.6c-0.1,0-0.1-0.1-0.2-0.1c-0.2-0.1-0.3-0.3-0.5-0.4c-0.1,0-0.1-0.1-0.2-0.1
	c-0.2-0.1-0.4-0.2-0.5-0.3c-0.1,0-0.1-0.1-0.2-0.1C195.9,122.2,195.6,122.1,195.3,122C195.4,122,195.3,122,195.3,122z M182,281.4
	h12.8v-18h14.4V253h-14.4v-9.2h15.6v-10.4H182V281.4z M158.6,233.4h13v48h-13V233.4z"/>
</svg>
