<?xml version="1.0" encoding="utf-8"?>
<!-- Generator: Adobe Illustrator 22.0.1, SVG Export Plug-In . SVG Version: 6.00 Build 0)  -->
<svg version="1.1" id="Layer_1" xmlns="http://www.w3.org/2000/svg" xmlns:xlink="http://www.w3.org/1999/xlink" x="0px" y="0px"
	 viewBox="0 0 318.2 318.2" style="enable-background:new 0 0 318.2 318.2;" xml:space="preserve">
<path d="M86.9,142.1l38,18.6c1.1,0.5,2.2,0.8,3.3,0.8c2.8,0,5.4-1.5,6.7-4.2c1.8-3.7,0.3-8.2-3.4-10l-24.3-11.9l24.3-11.9
	c3.7-1.8,5.3-6.3,3.4-10c-1.8-3.7-6.3-5.3-10-3.4l-38,18.6c-2.6,1.3-4.2,3.9-4.2,6.7S84.3,140.9,86.9,142.1z M100.9,254.4H87.4
	v-15.9H75.8v42.8h11.6v-17.5h13.4v17.5h11.6v-42.8h-11.6V254.4z M185.6,123.5l24.3,11.9l-24.3,11.9c-3.7,1.8-5.3,6.3-3.4,10
	c1.3,2.7,4,4.2,6.7,4.2c1.1,0,2.2-0.2,3.3-0.8l38-18.6c2.6-1.3,4.2-3.9,4.2-6.7s-1.6-5.5-4.2-6.7l-38-18.6c-3.7-1.8-8.2-0.3-10,3.4
	C180.3,117.2,181.9,121.7,185.6,123.5z M181.8,268.9h-0.2l-8.9-30.4h-15.4v42.8h10.3v-18.6c0-2.9-0.2-7-0.6-12.2h0.3l8.8,30.9h11
	l8.6-30.8h0.3c-0.2,4.6-0.4,7.6-0.4,8.8s0,2.3,0,3.3v18.8H206v-42.8h-15.4L181.8,268.9z M118.6,248h10.5v33.4h11.6V248h10.4v-9.5
	h-32.5V248z M226.8,238.5h-11.6v42.8h28.1V272h-16.5V238.5z M283.1,52.7L232.6,2.2c-1.4-1.4-3.3-2.2-5.3-2.2h-187
	c-4.1,0-7.5,3.4-7.5,7.5v303.2c0,4.1,3.4,7.5,7.5,7.5h237.5c4.1,0,7.5-3.4,7.5-7.5V58C285.3,56,284.6,54.1,283.1,52.7z M234.8,25.6
	l24.9,24.9h-24.9L234.8,25.6L234.8,25.6z M47.8,15h172v10.3h-172V15z M47.8,303.2V40.3h172V58c0,4.1,3.4,7.5,7.5,7.5h43v237.7H47.8z
	 M175.1,92c-3.9-1.4-8.2,0.6-9.6,4.5l-26.4,72.7c-1.4,3.9,0.6,8.2,4.5,9.6c0.8,0.3,1.7,0.5,2.6,0.5c3.1,0,5.9-1.9,7.1-4.9l26.4-72.7
	C181,97.7,179,93.4,175.1,92z"/>
</svg>
