<?xml version="1.0" encoding="utf-8"?>
<!-- Generator: Adobe Illustrator 22.0.1, SVG Export Plug-In . SVG Version: 6.00 Build 0)  -->
<svg version="1.1" id="Layer_1" xmlns="http://www.w3.org/2000/svg" xmlns:xlink="http://www.w3.org/1999/xlink" x="0px" y="0px"
	 viewBox="0 0 318.2 318.2" style="enable-background:new 0 0 318.2 318.2;" xml:space="preserve">
<path d="M196.9,66.2h-75.5c-15.7,0-28.5,12.8-28.5,28.5v75.5c0,15.7,12.8,28.5,28.5,28.5h75.5c15.7,0,28.5-12.8,28.5-28.5V94.7
	C225.3,79,212.6,66.2,196.9,66.2z M210.3,170.2c0,7.4-6,13.5-13.5,13.5h-75.5c-7.4,0-13.5-6-13.5-13.5V94.7c0-7.4,6-13.5,13.5-13.5
	h75.5c7.4,0,13.5,6,13.5,13.5V170.2z M103.2,233.4h13v48h-13V233.4z M283.1,52.7L232.6,2.2c-1.4-1.4-3.3-2.2-5.3-2.2h-187
	c-4.1,0-7.5,3.4-7.5,7.5v303.2c0,4.1,3.4,7.5,7.5,7.5h237.5c4.1,0,7.5-3.4,7.5-7.5V58C285.3,56,284.6,54.1,283.1,52.7z M234.8,25.6
	l24.9,24.9h-24.9L234.8,25.6L234.8,25.6z M47.8,15h172v10.3h-172V15z M270.3,303.2H47.8V40.3h172V58c0,4.1,3.4,7.5,7.5,7.5h43
	L270.3,303.2L270.3,303.2z M142.7,116.3h8.9v32.4h-8.9v15h32.9v-15h-8.9v-32.4h8.9v-15h-32.9V116.3z M148,243.3c2,0,3.9,0.3,5.7,0.9
	c1.8,0.6,3.5,1.3,5.3,2.1l4-10.2c-4.7-2.3-9.7-3.4-14.9-3.4c-4.7,0-8.9,1-12.4,3c-3.5,2-6.2,4.9-8.1,8.7c-1.9,3.8-2.8,8.1-2.8,13.1
	c0,7.9,1.9,14,5.8,18.2c3.9,4.2,9.4,6.3,16.7,6.3c5.1,0,9.6-0.9,13.6-2.7v-11c-2,0.8-4,1.5-6,2.1c-2,0.6-4,0.9-6.2,0.9
	c-7,0-10.5-4.6-10.5-13.9c0-4.4,0.9-7.9,2.6-10.5C142.5,244.6,144.9,243.3,148,243.3z M191.9,232.6c-7.6,0-13.4,2.1-17.4,6.3
	c-4,4.2-6,10.3-6,18.3c0,8.1,2,14.2,6,18.4c4,4.2,9.8,6.3,17.3,6.3c7.6,0,13.4-2.1,17.4-6.3s5.9-10.3,5.9-18.4
	c0-8.1-2-14.2-5.9-18.4C205.3,234.7,199.5,232.6,191.9,232.6z M199.1,267.9c-1.6,2.3-4,3.4-7.3,3.4c-6.5,0-9.7-4.6-9.7-13.9
	c0-9.4,3.2-14,9.7-14c3.2,0,5.6,1.1,7.2,3.4c1.6,2.3,2.4,5.8,2.4,10.6C201.5,262.1,200.7,265.6,199.1,267.9z"/>
</svg>
