<?xml version="1.0" encoding="utf-8"?>
<!-- Generator: Adobe Illustrator 22.0.1, SVG Export Plug-In . SVG Version: 6.00 Build 0)  -->
<svg version="1.1" id="Layer_1" xmlns="http://www.w3.org/2000/svg" xmlns:xlink="http://www.w3.org/1999/xlink" x="0px" y="0px"
	 viewBox="0 0 318.2 318.2" style="enable-background:new 0 0 318.2 318.2;" xml:space="preserve">
<path d="M213.3,141.4c0-11.6-3.4-20.6-10.2-27.1c-6.8-6.5-16.3-9.7-28.5-9.7h-23.5v75h21.2c13.3,0,23.4-3.3,30.4-9.8
	C209.8,163.2,213.3,153.7,213.3,141.4z M173.8,166.5H167v-48.8h8.5c14.2,0,21.3,8,21.3,24.1C196.8,158.2,189.2,166.5,173.8,166.5z
	 M110.6,87.7h19.5v91.9h-19.5V87.7z M283.1,52.7L232.6,2.2c-1.4-1.4-3.3-2.2-5.3-2.2h-187c-4.1,0-7.5,3.4-7.5,7.5v303.2
	c0,4.1,3.4,7.5,7.5,7.5h237.5c4.1,0,7.5-3.4,7.5-7.5V58C285.3,56,284.6,54.1,283.1,52.7z M234.8,25.6l24.9,24.9h-24.9L234.8,25.6
	L234.8,25.6z M47.8,15h172v10.3h-172V15z M270.3,303.2H47.8V40.3h172V58c0,4.1,3.4,7.5,7.5,7.5h43L270.3,303.2L270.3,303.2z
	 M132,255.1L132,255.1c0,2.9,0.2,6.8,0.5,11.7h-0.2l-17.5-33.3H97.9v48h11.5v-21.6c0-2.8-0.2-6.9-0.6-12.2h0.3l17.5,33.8h17v-48H132
	V255.1z M203.3,233.4v48h15.5c8,0,14.2-2.2,18.6-6.5c4.4-4.3,6.6-10.5,6.6-18.5c0-7.4-2.1-13.1-6.3-17.1c-4.2-3.9-10.1-5.9-17.8-5.9
	L203.3,233.4L203.3,233.4z M227.9,247c1.7,2.1,2.6,5.4,2.6,9.8c0,4.7-0.9,8.2-2.8,10.5c-1.8,2.3-4.7,3.4-8.7,3.4h-2.9v-26.9h3.8
	C223.5,243.9,226.2,244.9,227.9,247z M74.5,233.4h13v48h-13V233.4z M170.5,233.4h-16.6v48h15.5c8,0,14.2-2.2,18.6-6.5
	c4.4-4.3,6.6-10.5,6.6-18.5c0-7.4-2.1-13.1-6.3-17.1C184.2,235.4,178.2,233.4,170.5,233.4z M178.4,267.3c-1.8,2.3-4.7,3.4-8.7,3.4
	h-2.9v-26.9h3.8c3.5,0,6.2,1.1,7.9,3.2c1.7,2.1,2.6,5.4,2.6,9.8C181.2,261.5,180.3,265,178.4,267.3z"/>
</svg>
