<?xml version="1.0" encoding="utf-8"?>
<!-- Generator: Adobe Illustrator 22.0.1, SVG Export Plug-In . SVG Version: 6.00 Build 0)  -->
<svg version="1.1" id="Layer_1" xmlns="http://www.w3.org/2000/svg" xmlns:xlink="http://www.w3.org/1999/xlink" x="0px" y="0px"
	 viewBox="0 0 318.2 318.2" style="enable-background:new 0 0 318.2 318.2;" xml:space="preserve">
<path d="M104.8,277.8L104.8,277.8c0,3.1-0.5,5.3-1.4,6.6c-0.9,1.3-2.5,1.9-4.6,1.9c-0.9,0-1.8-0.1-2.6-0.2c-0.8-0.2-1.5-0.3-2.2-0.4
	v10.1c2.1,0.5,4.4,0.7,6.7,0.7c5.7,0,10-1.7,12.8-5s4.3-8.3,4.3-14.8v-43.3h-13V277.8z M283.1,52.7L232.6,2.2
	c-1.4-1.4-3.3-2.2-5.3-2.2h-187c-4.1,0-7.5,3.4-7.5,7.5v303.2c0,4.1,3.4,7.5,7.5,7.5h237.5c4.1,0,7.5-3.4,7.5-7.5V58
	C285.3,56,284.6,54.1,283.1,52.7z M234.8,25.6l24.9,24.9h-24.9L234.8,25.6L234.8,25.6z M47.8,15h172v10.3h-172V15z M270.3,303.2
	H47.8V40.3h172V58c0,4.1,3.4,7.5,7.5,7.5h43L270.3,303.2L270.3,303.2z M221.8,109.1c0.5-2.2,0-4.6-1.4-6.4c-1.4-1.8-3.6-2.8-5.9-2.8
	H90.7c-2.3,0-4.4,1-5.9,2.8c-1.4,1.8-2,4.1-1.4,6.4c4.7,20.2,12.3,35.3,23.1,45.5c-2.9,1-5,3.8-5,7.1c0,4.1,3.4,7.5,7.5,7.5h87.2
	c4.1,0,7.5-3.4,7.5-7.5c0-3.3-2.1-6.1-5-7.1c1-1,2-2,3-3h16.5c10.2,0,18.6-8.3,18.6-18.6c0-9.5-7.1-17.3-16.3-18.4
	C220.9,112.8,221.3,111,221.8,109.1z M167.6,154.1h-30c-18-3.8-30-16.3-37.1-39.2h104.2C197.6,137.8,185.6,150.4,167.6,154.1z
	 M221.7,132.9c0,2-1.6,3.6-3.6,3.6H212c1.2-2.3,2.3-4.6,3.3-7.1h2.8C220.1,129.4,221.7,131,221.7,132.9z M212.3,247.6
	c0-9.5-6.5-14.2-19.6-14.2H177v48h13v-17.5h3.3l10.2,17.5h14.7l-14-20.9C209.6,257.4,212.3,253.1,212.3,247.6z M192.4,254.2H190v-11
	h2.6c4.4,0,6.7,1.7,6.7,5C199.2,252.2,196.9,254.2,192.4,254.2z M138.7,233.2L123,281.4h14.2l2.4-9h15.6l2.4,9h14.2L156,233.2H138.7
	z M142.4,261.7c2-7.5,3.3-12.6,3.9-15.1c0.6-2.6,1-4.4,1.2-5.5c0.2,1.2,0.7,3.2,1.4,6c0.7,2.8,1.3,5,1.8,6.8l2.1,7.9H142.4z"/>
</svg>
