<?xml version="1.0" encoding="utf-8"?>
<!-- Generator: Adobe Illustrator 22.0.1, SVG Export Plug-In . SVG Version: 6.00 Build 0)  -->
<svg version="1.1" id="Layer_1" xmlns="http://www.w3.org/2000/svg" xmlns:xlink="http://www.w3.org/1999/xlink" x="0px" y="0px"
	 viewBox="0 0 318.2 318.2" style="enable-background:new 0 0 318.2 318.2;" xml:space="preserve">
<path d="M283.1,52.7L232.6,2.2c-1.4-1.4-3.3-2.2-5.3-2.2h-187c-4.1,0-7.5,3.4-7.5,7.5v303.2c0,4.1,3.4,7.5,7.5,7.5h237.5
	c4.1,0,7.5-3.4,7.5-7.5V58C285.3,56,284.6,54.1,283.1,52.7z M234.8,25.6l24.9,24.9h-24.9L234.8,25.6L234.8,25.6z M47.8,15h172v10.3
	h-172V15z M270.3,303.2H47.8V40.3h172V58c0,1.6,0.5,3,1.3,4.2c-0.9-0.4-1.8-0.6-2.8-0.6H98.4c-4.1,0-7.5,3.4-7.5,7.5v119.9
	c0,4.1,3.4,7.5,7.5,7.5h119.9c4.1,0,7.5-3.4,7.5-7.5V69.2c0-1.6-0.5-3-1.3-4.2c0.9,0.4,1.8,0.6,2.8,0.6h43L270.3,303.2L270.3,303.2z
	 M198.7,126.4c-1.4-2.3-3.8-3.7-6.5-3.7c-2.6,0-5.1,1.4-6.5,3.7l-17.4,29.3l-32.3-54.5c-1.4-2.3-3.8-3.7-6.5-3.7s-5.1,1.4-6.5,3.7
	l-17.4,29.3V76.7h104.9v70L198.7,126.4z M210.8,176.1v5.5H105.9v-21.7l23.8-40.2l32.3,54.5c1.4,2.3,3.8,3.7,6.5,3.7
	c2.6,0,5.1-1.4,6.5-3.7l17.4-29.3L210.8,176.1z M159.5,237.4c-3-2.6-7.6-4-13.7-4h-16.6v48h13v-15.9h3.6c5.8,0,10.3-1.5,13.5-4.4
	c3.2-2.9,4.7-7.1,4.7-12.4C164.1,243.8,162.6,240,159.5,237.4z M149.2,253.2c-1.1,1.1-2.7,1.6-4.6,1.6h-2.4v-11h3.3
	c3.6,0,5.4,1.6,5.4,4.9C150.9,250.6,150.4,252.2,149.2,253.2z M191,263.3L191,263.3h8.6v7.5c-1.6,0.4-3.4,0.6-5.3,0.6
	c-3.5,0-6.2-1.2-8.1-3.5c-1.9-2.4-2.8-5.8-2.8-10.3c0-4.6,1-8.1,3.1-10.6c2.1-2.5,5-3.7,8.8-3.7c4.1,0,7.9,0.9,11.4,2.6l4.1-10.2
	c-2-0.9-4.3-1.6-7-2.2c-2.7-0.6-5.5-0.9-8.5-0.9c-8,0-14.2,2.2-18.6,6.5c-4.4,4.3-6.6,10.3-6.6,18.1c0,7.9,2,14.1,6.1,18.3
	c4,4.3,9.8,6.4,17.1,6.4c6.7,0,12.9-1,18.5-2.9v-25.9H191V263.3z M105.9,277.8L105.9,277.8c0,3.1-0.5,5.3-1.4,6.6
	c-0.9,1.3-2.5,1.9-4.6,1.9c-0.9,0-1.8-0.1-2.6-0.2c-0.8-0.2-1.5-0.3-2.2-0.4v10.1c2.1,0.5,4.4,0.7,6.7,0.7c5.7,0,10-1.7,12.8-5
	s4.3-8.3,4.3-14.8v-43.3h-13C105.9,233.4,105.9,277.8,105.9,277.8z"/>
</svg>
