<?xml version="1.0" encoding="utf-8"?>
<!-- Generator: Adobe Illustrator 22.0.1, SVG Export Plug-In . SVG Version: 6.00 Build 0)  -->
<svg version="1.1" id="Layer_1" xmlns="http://www.w3.org/2000/svg" xmlns:xlink="http://www.w3.org/1999/xlink" x="0px" y="0px"
	 viewBox="0 0 318.2 318.2" style="enable-background:new 0 0 318.2 318.2;" xml:space="preserve">
<path d="M126.9,193.7c4.8-5.5,7.2-13.4,7.2-23.9V86.2h-19V170c0,5.5-0.9,9.6-2.7,12.1c-1.8,2.6-4.8,3.9-8.9,3.9
	c-2.7,0-5.7-0.4-8.9-1.2v15.8c3.2,0.9,6.9,1.3,11.2,1.3C115.1,201.9,122.2,199.2,126.9,193.7z M283.1,52.7L232.6,2.2
	c-1.4-1.4-3.3-2.2-5.3-2.2h-187c-4.1,0-7.5,3.4-7.5,7.5v303.2c0,4.1,3.4,7.5,7.5,7.5h237.5c4.1,0,7.5-3.4,7.5-7.5V58
	C285.3,56,284.6,54.1,283.1,52.7z M234.8,25.6l24.9,24.9h-24.9L234.8,25.6L234.8,25.6z M47.8,15h172v10.3h-172V15z M270.3,303.2
	H47.8V40.3h172V58c0,4.1,3.4,7.5,7.5,7.5h43L270.3,303.2L270.3,303.2z M187.5,124c-6.3-3-10.3-5.1-12-6.3c-1.7-1.2-2.9-2.4-3.7-3.6
	c-0.8-1.2-1.2-2.7-1.2-4.4c0-2.7,1-4.9,2.9-6.5c1.9-1.7,4.7-2.5,8.3-2.5c3,0,6.1,0.4,9.2,1.2c3.1,0.8,7.1,2.1,11.8,4.1l6.1-14.7
	c-4.6-2-9-3.5-13.2-4.6c-4.2-1.1-8.7-1.7-13.3-1.7c-9.5,0-16.9,2.3-22.2,6.8c-5.4,4.5-8,10.7-8,18.7c0,4.2,0.8,7.9,2.4,11
	s3.8,5.9,6.5,8.3c2.7,2.4,6.8,4.8,12.3,7.4c5.8,2.8,9.7,4.8,11.6,6.1c1.9,1.3,3.3,2.6,4.3,3.9c1,1.4,1.5,2.9,1.5,4.7
	c0,3.1-1.1,5.5-3.3,7.1c-2.2,1.6-5.4,2.4-9.6,2.4c-3.5,0-7.3-0.6-11.5-1.7s-9.3-3-15.3-5.7v17.6c7.3,3.6,15.8,5.4,25.3,5.4
	c10.4,0,18.4-2.3,24.3-7c5.8-4.6,8.7-11,8.7-19.1c0-5.8-1.5-10.8-4.6-14.8C201.6,132,195.9,128,187.5,124z M132.6,277.8L132.6,277.8
	c0,3.1-0.5,5.3-1.4,6.6c-0.9,1.3-2.5,1.9-4.6,1.9c-0.9,0-1.8-0.1-2.6-0.2c-0.8-0.2-1.5-0.3-2.2-0.4v10.1c2.1,0.5,4.4,0.7,6.7,0.7
	c5.7,0,10-1.7,12.8-5s4.3-8.3,4.3-14.8v-43.3h-13V277.8z M176.3,252.8c-4.3-2-7-3.3-7.9-4.1c-1-0.7-1.5-1.6-1.5-2.5
	c0-0.9,0.4-1.6,1.1-2.2s2-0.9,3.7-0.9c3.3,0,7.1,1,11.6,3.1l4-10c-5.2-2.3-10.2-3.4-15.2-3.4c-5.6,0-10,1.2-13.3,3.7
	c-3.2,2.5-4.8,5.9-4.8,10.3c0,2.4,0.4,4.4,1.1,6.1c0.8,1.7,1.9,3.3,3.5,4.6c1.6,1.3,3.9,2.7,7,4.1c3.5,1.6,5.6,2.6,6.4,3.1
	c0.8,0.5,1.4,1,1.7,1.5c0.4,0.5,0.5,1.1,0.5,1.7c0,1-0.4,1.9-1.3,2.6c-0.9,0.7-2.3,1-4.2,1c-2.2,0-4.7-0.4-7.4-1.1
	c-2.7-0.7-5.2-1.7-7.7-3V279c2.3,1.1,4.6,1.9,6.8,2.3c2.2,0.4,4.8,0.7,8,0.7c3.8,0,7.2-0.6,10-1.9c2.8-1.3,5-3.1,6.5-5.4
	c1.5-2.3,2.3-5,2.3-7.9c0-3.2-0.8-5.9-2.4-8.1C183.3,256.6,180.5,254.6,176.3,252.8z"/>
</svg>
