<?xml version="1.0" encoding="utf-8"?>
<!-- Generator: Adobe Illustrator 22.0.1, SVG Export Plug-In . SVG Version: 6.00 Build 0)  -->
<svg version="1.1" id="Layer_1" xmlns="http://www.w3.org/2000/svg" xmlns:xlink="http://www.w3.org/1999/xlink" x="0px" y="0px"
	 viewBox="0 0 318.2 318.2" style="enable-background:new 0 0 318.2 318.2;" xml:space="preserve">
<path d="M283.1,52.7L232.6,2.2c-1.4-1.4-3.3-2.2-5.3-2.2h-187c-4.1,0-7.5,3.4-7.5,7.5v303.2c0,4.1,3.4,7.5,7.5,7.5h237.5
	c4.1,0,7.5-3.4,7.5-7.5V58C285.3,56,284.6,54.1,283.1,52.7z M234.8,25.6l24.9,24.9h-24.9L234.8,25.6L234.8,25.6z M47.8,15h172v10.3
	h-172V15z M270.3,303.2H47.8V40.3h172V58c0,4.1,3.4,7.5,7.5,7.5h43L270.3,303.2L270.3,303.2z M195.3,86.9c0-0.2-0.1-0.4-0.1-0.6
	c0-0.1,0-0.1-0.1-0.2c0-0.2-0.1-0.4-0.2-0.6c0-0.1-0.1-0.1-0.1-0.2c-0.1-0.2-0.1-0.3-0.2-0.5c0-0.1-0.1-0.1-0.1-0.2
	c-0.1-0.2-0.2-0.3-0.2-0.5c0-0.1-0.1-0.2-0.1-0.2c-0.1-0.1-0.2-0.3-0.3-0.4c-0.1-0.1-0.1-0.2-0.2-0.2c-0.1-0.1-0.2-0.3-0.3-0.4
	c-0.1-0.1-0.1-0.1-0.2-0.2c-0.1-0.1-0.3-0.3-0.4-0.4c0,0-0.1-0.1-0.1-0.1c0,0,0,0,0,0c-0.2-0.2-0.4-0.3-0.6-0.5c0,0-0.1,0-0.1-0.1
	c-0.2-0.1-0.4-0.2-0.6-0.3c-0.1,0-0.1-0.1-0.2-0.1c-0.2-0.1-0.3-0.2-0.5-0.2c-0.1,0-0.2-0.1-0.3-0.1c-0.1-0.1-0.3-0.1-0.4-0.1
	c-0.1,0-0.2-0.1-0.3-0.1c-0.1,0-0.3-0.1-0.4-0.1c-0.1,0-0.3,0-0.4-0.1c-0.1,0-0.2,0-0.4,0c-0.1,0-0.3,0-0.4,0c0,0-0.1,0-0.1,0
	c-0.1,0-0.1,0-0.2,0c-0.1,0-0.3,0-0.4,0c-0.2,0-0.3,0-0.5,0.1c-0.1,0-0.1,0-0.2,0l-42.5,7.5c0,0-0.1,0-0.1,0c-0.1,0-0.2,0.1-0.4,0.1
	c-0.1,0-0.2,0.1-0.3,0.1c-0.1,0-0.2,0.1-0.4,0.1c-0.1,0-0.2,0.1-0.3,0.1c-0.1,0-0.2,0.1-0.3,0.1c-0.1,0-0.2,0.1-0.3,0.2
	c-0.1,0.1-0.2,0.1-0.3,0.2c-0.1,0.1-0.2,0.1-0.3,0.2c-0.1,0.1-0.2,0.1-0.2,0.2c-0.1,0.1-0.2,0.2-0.4,0.3c-0.1,0.1-0.1,0.1-0.2,0.2
	c-0.1,0.1-0.3,0.3-0.4,0.4c0,0-0.1,0-0.1,0.1c-0.2,0.2-0.3,0.3-0.5,0.5c-0.1,0.1-0.1,0.1-0.2,0.2c-0.1,0.1-0.2,0.2-0.3,0.3
	c-0.1,0.1-0.1,0.2-0.2,0.3c-0.1,0.1-0.1,0.2-0.2,0.3c-0.1,0.1-0.1,0.2-0.2,0.3c-0.1,0.1-0.1,0.2-0.2,0.3c0,0.1-0.1,0.2-0.1,0.3
	c0,0.1-0.1,0.2-0.1,0.3c0,0.1-0.1,0.2-0.1,0.3c0,0.1-0.1,0.3-0.1,0.4c0,0.1,0,0.2-0.1,0.3c0,0.1,0,0.3-0.1,0.4c0,0.1,0,0.2,0,0.3
	c0,0.2,0,0.5,0,0.7v17.5v26.9c-0.8-0.1-1.7-0.1-2.5-0.1c-1.6,0-3.3,0.2-5,0.5c-11.4,2-20,9.9-20,18.4c0,8.1,7.4,14,17.5,14
	c1.6,0,3.3-0.2,5-0.5c11-1.9,19.3-9.4,19.9-17.6c0-0.3,0.1-0.6,0.1-0.9v-1.4c0.7,7.5,7.8,12.8,17.5,12.8c1.6,0,3.3-0.2,5-0.5
	c11-1.9,19.3-9.4,19.9-17.6c0-0.3,0.1-0.6,0.1-0.9v-40.8V87.8c0-0.3,0-0.5,0-0.8C195.3,87,195.3,86.9,195.3,86.9z M130.3,157.3
	c-1.3,0.2-2.7,0.3-3.7,0.2c1.3-1,3.4-2.1,6.3-2.6c1.3-0.2,2.7-0.3,3.7-0.2C135.3,155.7,133.2,156.8,130.3,157.3z M172.8,149.9
	c-1.3,0.2-2.7,0.3-3.7,0.2c1.3-1,3.4-2.1,6.3-2.6c1.3-0.2,2.7-0.3,3.7-0.2C177.8,148.2,175.6,149.3,172.8,149.9z M180.3,132.3
	c-0.8-0.1-1.7-0.1-2.5-0.1c-1.6,0-3.3,0.2-5,0.5c-10.9,1.9-19.2,9.2-19.9,17.3v-30.7l27.5-4.8V132.3z M180.3,99.1l-27.5,4.8v-2.3
	l27.5-4.8V99.1z M157.8,55.1c-41.1,0-74.6,33.5-74.6,74.6c0,41.1,33.5,74.6,74.6,74.6c41.1,0,74.6-33.5,74.6-74.6
	C232.4,88.5,198.9,55.1,157.8,55.1z M157.8,189.2c-32.9,0-59.6-26.7-59.6-59.6c0-32.9,26.7-59.6,59.6-59.6
	c32.9,0,59.6,26.7,59.6,59.6C217.4,162.5,190.7,189.2,157.8,189.2z M113.5,267.5h-0.3l-10-34.1H85.9v48h11.5v-20.8
	c0-3.3-0.2-7.8-0.7-13.7H97l9.8,34.6h12.3l9.7-34.5h0.3c-0.3,5.2-0.4,8.5-0.4,9.8c0,1.3,0,2.5,0,3.6v21h11.9v-48h-17.3L113.5,267.5z
	 M170.3,256.3v-0.2c3.4-1,6.1-2.5,7.9-4.6c1.8-2.1,2.7-4.7,2.7-7.7c0-3.5-1.4-6.2-4.2-8.1s-6.7-3-11.7-3c-3.4,0-6.5,0.4-9.1,1.1
	c-2.7,0.7-5.3,2-7.8,3.7l5.4,8.7c3.3-2.1,6.5-3.1,9.5-3.1c1.6,0,2.9,0.3,3.9,0.9s1.5,1.6,1.5,2.8c0,3.4-3.3,5.1-9.9,5.1h-3v9.7h3
	c2.4,0,4.4,0.2,5.9,0.5c1.5,0.4,2.6,0.9,3.3,1.6c0.7,0.7,1,1.7,1,3c0,1.7-0.6,3-2,3.8c-1.3,0.8-3.4,1.2-6.2,1.2
	c-1.8,0-3.8-0.3-6-0.8s-4.3-1.3-6.4-2.4v10.8c2.6,1,4.9,1.7,7.1,2s4.6,0.6,7.2,0.6c6.3,0,11.2-1.3,14.7-3.8
	c3.5-2.6,5.3-6.1,5.3-10.5C182.3,261.1,178.3,257.3,170.3,256.3z M218.1,261.5L218.1,261.5c0,3.5-0.6,5.9-1.8,7.5
	c-1.2,1.5-3.1,2.3-5.8,2.3c-2.5,0-4.3-0.8-5.6-2.3c-1.3-1.5-1.9-4-1.9-7.4v-28.2h-13v29.2c0,6.3,1.8,11.1,5.3,14.4
	c3.5,3.3,8.5,5,15.1,5c6.7,0,11.8-1.7,15.4-5.2c3.6-3.4,5.3-8.3,5.3-14.6v-28.9h-13V261.5z"/>
</svg>
