<?xml version="1.0" encoding="utf-8"?>
<!-- Generator: Adobe Illustrator 22.0.1, SVG Export Plug-In . SVG Version: 6.00 Build 0)  -->
<svg version="1.1" id="Layer_1" xmlns="http://www.w3.org/2000/svg" xmlns:xlink="http://www.w3.org/1999/xlink" x="0px" y="0px"
	 viewBox="0 0 318.2 318.2" style="enable-background:new 0 0 318.2 318.2;" xml:space="preserve">
<path d="M121.3,189.9h77.5c9.6,0,17.4-7.8,17.4-17.4v-50.1c0-9.6-7.8-17.4-17.4-17.4h-48.6c-9.6,0-17.4,7.8-17.4,17.4v20.3
	c0,9.6,7.8,17.4,17.4,17.4h3.6c6.5,0,33.4,5.1,33.4-12c0-17.1-38.3-0.4-38.3-18.5c1.1-7.3,8.5-10.2,15.8-10.2h19.6
	c9.6,0,17.4,7.8,17.4,17.4v21c0,9.6-7.8,17.4-17.4,17.4h-48.4c-9.6,0-17.4-7.8-17.4-17.4v-49.8c0-9.6,7.8-17.4,17.4-17.4h55.7
	c9.6,0,17.4-3.3,17.4-7.3s-7.8-7.3-17.4-7.3h-70.2c-9.6,0-17.4,7.8-17.4,17.4v78.9C103.9,182.1,111.7,189.9,121.3,189.9z
	 M170.3,133.3l-3.5-7.3l-9.2,3.7L170.3,133.3z M238.2,233.4h-14.8v0l-8.3,14.8l-8.7-14.8H192l15,23.4l-15.9,24.5h14.7l9.3-15l9.4,15
	h15L223,257.8L238.2,233.4z M109.9,267.5h-0.3l-10-34.1H82.3v48h11.5v-20.8c0-3.3-0.2-7.8-0.7-13.7h0.3l9.8,34.6h12.3l9.7-34.5h0.3
	c-0.3,5.2-0.4,8.5-0.4,9.8c0,1.3,0,2.5,0,3.6v21H137v-48h-17.3L109.9,267.5z M283.1,52.7L232.6,2.2c-1.4-1.4-3.3-2.2-5.3-2.2h-187
	c-4.1,0-7.5,3.4-7.5,7.5v303.2c0,4.1,3.4,7.5,7.5,7.5h237.5c4.1,0,7.5-3.4,7.5-7.5V58C285.3,56,284.6,54.1,283.1,52.7z M234.8,25.6
	l24.9,24.9h-24.9L234.8,25.6L234.8,25.6z M47.8,15h172v10.3h-172V15z M47.8,303.2V40.3h172V58c0,4.1,3.4,7.5,7.5,7.5h43v237.7H47.8z
	 M157.8,233.2l-15.7,48.2h14.2l2.4-9h15.6l2.4,9h14.2l-15.9-48.2H157.8z M161.5,261.7c2-7.5,3.3-12.6,3.9-15.1
	c0.6-2.6,1-4.4,1.2-5.5c0.2,1.2,0.7,3.2,1.4,6c0.7,2.8,1.3,5,1.8,6.8l2.1,7.9H161.5z"/>
</svg>
