<?xml version="1.0" encoding="utf-8"?>
<!-- Generator: Adobe Illustrator 22.0.1, SVG Export Plug-In . SVG Version: 6.00 Build 0)  -->
<svg version="1.1" id="Layer_1" xmlns="http://www.w3.org/2000/svg" xmlns:xlink="http://www.w3.org/1999/xlink" x="0px" y="0px"
	 viewBox="0 0 318.2 318.2" style="enable-background:new 0 0 318.2 318.2;" xml:space="preserve">
<path d="M283.1,52.7L232.6,2.2c-1.4-1.4-3.3-2.2-5.3-2.2h-187c-4.1,0-7.5,3.4-7.5,7.5v303.2c0,4.1,3.4,7.5,7.5,7.5h237.5
	c4.1,0,7.5-3.4,7.5-7.5V58C285.3,56,284.6,54.1,283.1,52.7z M234.8,25.6l24.9,24.9h-24.9L234.8,25.6L234.8,25.6z M47.8,15h172v10.3
	h-172V15z M270.3,303.2H47.8V40.3h172V58c0,4.1,3.4,7.5,7.5,7.5h43L270.3,303.2L270.3,303.2z M214.9,249.5c-0.3,1.3-0.7,3-1.2,5.2
	c-0.4,2.2-0.7,4.1-0.9,5.6c-0.1-2.1-0.8-5.7-2.2-10.9l-6.3-23.5h-27.5l-9.7,14.2c-1.9,2.7-3.2,4.7-3.8,5.9v-20.2h-12.6v46.4h12.6
	v-15.5l3.7-2.2l9.2,17.7h14.2l-14.4-25.6l14.5-20.5l15.1,46.2h14.8l15.2-46.4h-14L214.9,249.5z M102.3,195.6h113.6
	c4.1,0,7.5-3.4,7.5-7.5V169c0-4.1-3.4-7.5-7.5-7.5h-8.6l-34-85.3c-1.1-2.9-3.9-4.7-7-4.7h-14.5c-3.1,0-5.8,1.9-7,4.7l-34,85.3h-8.6
	c-4.1,0-7.5,3.4-7.5,7.5v19.1C94.8,192.2,98.1,195.6,102.3,195.6z M156.9,86.5h4.3l4.5,11.3h-13.3L156.9,86.5z M146.5,112.8h25.3
	l8.4,20.9h-42L146.5,112.8z M132.1,148.7h54l5.1,12.8H127L132.1,148.7z M109.8,176.5L109.8,176.5h92.4c0,0,0,0,0,0c0,0,0,0,0,0h6.1
	v4.1h-98.6V176.5z M114.4,258.8h-0.3l-9.7-32.9H87.8v46.4h11.1v-20.2c0-3.2-0.2-7.6-0.7-13.3h0.3l9.5,33.4H120l9.4-33.4h0.3
	c-0.3,5-0.4,8.2-0.4,9.5c0,1.3,0,2.5,0,3.5v20.3h11.5v-46.4h-16.7L114.4,258.8z"/>
</svg>
