<?xml version="1.0" encoding="utf-8"?>
<!-- Generator: Adobe Illustrator 22.0.1, SVG Export Plug-In . SVG Version: 6.00 Build 0)  -->
<svg version="1.1" id="Layer_1" xmlns="http://www.w3.org/2000/svg" xmlns:xlink="http://www.w3.org/1999/xlink" x="0px" y="0px"
	 viewBox="0 0 318.2 318.2" style="enable-background:new 0 0 318.2 318.2;" xml:space="preserve">
<path d="M108.5,267.5h-0.3l-10-34.1H80.9v48h11.5v-20.8c0-3.3-0.2-7.8-0.7-13.7H92l9.8,34.6h12.3l9.7-34.5h0.3
	c-0.3,5.2-0.4,8.5-0.4,9.8c0,1.3-0.1,2.5-0.1,3.6v21h11.9v-48h-17.3L108.5,267.5z M283.1,52.7L232.6,2.2c-1.4-1.4-3.3-2.2-5.3-2.2
	h-187c-4.1,0-7.5,3.4-7.5,7.5v303.2c0,4.1,3.4,7.5,7.5,7.5h237.5c4.1,0,7.5-3.4,7.5-7.5V58C285.3,56,284.6,54.1,283.1,52.7z
	 M234.8,25.6l24.9,24.9h-24.9L234.8,25.6L234.8,25.6z M47.8,15h172v10.3h-172V15z M270.3,303.2H47.8V40.3h172V58
	c0,4.1,3.4,7.5,7.5,7.5h43L270.3,303.2L270.3,303.2z M219.8,257.8c-0.4,1.3-0.8,3.1-1.2,5.4c-0.5,2.3-0.8,4.2-0.9,5.7
	c-0.1-2.1-0.9-5.9-2.2-11.3l-6.5-24.3h-14.6l15.7,48h15.3l15.7-48h-14.5L219.8,257.8z M167.6,232.6c-7.6,0-13.4,2.1-17.4,6.3
	c-4,4.2-6,10.3-6,18.3c0,8.1,2,14.2,6,18.4c4,4.2,9.8,6.3,17.3,6.3c7.6,0,13.4-2.1,17.4-6.3c4-4.2,5.9-10.3,5.9-18.4
	c0-8.1-2-14.2-5.9-18.4C181,234.7,175.2,232.6,167.6,232.6z M174.8,267.9c-1.6,2.3-4,3.4-7.3,3.4c-6.5,0-9.7-4.6-9.7-13.9
	c0-9.4,3.2-14,9.7-14c3.2,0,5.6,1.1,7.2,3.4c1.6,2.3,2.4,5.8,2.4,10.6C177.2,262.1,176.4,265.6,174.8,267.9z M217.3,196.6
	c4.1,0,7.5-3.4,7.5-7.5v-19c0-2-0.8-3.9-2.2-5.3l-5-5c4.7-9.3,7.2-19.6,7.2-30.2c0-36.9-30-66.9-66.9-66.9s-66.9,30-66.9,66.9
	s30,66.9,66.9,66.9c10.5,0,20.9-2.5,30.2-7.2l5,5c1.4,1.4,3.3,2.2,5.3,2.2L217.3,196.6L217.3,196.6z M157.9,181.6
	c-28.6,0-51.9-23.3-51.9-51.9s23.3-51.9,51.9-51.9s51.9,23.3,51.9,51.9c0,6.5-1.2,12.9-3.5,18.8l-8-8c0.9-3.5,1.4-7.2,1.4-10.9
	c0-23.1-18.8-41.9-41.9-41.9S116,106.5,116,129.6s18.8,41.9,41.9,41.9h0c3.7,0,7.3-0.5,10.8-1.4l8,8
	C170.7,180.4,164.3,181.6,157.9,181.6z M152.5,153.9l2.4,2.4c-13.5-1.4-24-12.9-24-26.7c0-14.8,12.1-26.9,26.9-26.9
	c13.9,0,25.3,10.5,26.7,24l-2.4-2.4c-4-4-9.2-6.1-14.8-6.1s-10.8,2.2-14.8,6.1c-4,4-6.1,9.2-6.1,14.8
	C146.4,144.7,148.6,150,152.5,153.9z M163.2,143.3c-1.1-1.1-1.7-2.6-1.7-4.2c0-1.6,0.6-3.1,1.7-4.2s2.6-1.7,4.2-1.7
	c1.6,0,3.1,0.6,4.2,1.7l38.3,38.3v8.4h-8.4L163.2,143.3z"/>
</svg>
