<?xml version="1.0" encoding="utf-8"?>
<!-- Generator: Adobe Illustrator 22.0.1, SVG Export Plug-In . SVG Version: 6.00 Build 0)  -->
<svg version="1.1" id="Layer_1" xmlns="http://www.w3.org/2000/svg" xmlns:xlink="http://www.w3.org/1999/xlink" x="0px" y="0px"
	 viewBox="0 0 318.2 318.2" style="enable-background:new 0 0 318.2 318.2;" xml:space="preserve">
<path d="M283.1,52.7L232.6,2.2c-1.4-1.4-3.3-2.2-5.3-2.2h-187c-4.1,0-7.5,3.4-7.5,7.5v303.2c0,4.1,3.4,7.5,7.5,7.5h237.5
	c4.1,0,7.5-3.4,7.5-7.5V58C285.3,56,284.6,54.1,283.1,52.7z M234.8,25.6l24.9,24.9h-24.9L234.8,25.6L234.8,25.6z M47.8,15h172v10.3
	h-172V15z M270.3,303.2H47.8V40.3h172V58c0,4.1,3.4,7.5,7.5,7.5h43L270.3,303.2L270.3,303.2z M217,256.3v-0.2c3.4-1,6.1-2.5,7.9-4.6
	c1.8-2.1,2.7-4.7,2.7-7.7c0-3.5-1.4-6.2-4.2-8.1c-2.8-2-6.7-3-11.7-3c-3.4,0-6.5,0.4-9.1,1.1c-2.7,0.7-5.3,2-7.8,3.7l5.4,8.7
	c3.3-2.1,6.5-3.1,9.5-3.1c1.6,0,2.9,0.3,3.9,0.9c1,0.6,1.5,1.6,1.5,2.8c0,3.4-3.3,5.1-9.9,5.1h-3v9.7h3c2.4,0,4.4,0.2,5.9,0.5
	c1.5,0.4,2.6,0.9,3.3,1.6s1,1.7,1,3c0,1.7-0.6,3-2,3.8s-3.4,1.2-6.2,1.2c-1.8,0-3.8-0.3-6-0.8s-4.3-1.3-6.4-2.4v10.8
	c2.6,1,4.9,1.7,7.1,2s4.6,0.6,7.2,0.6c6.3,0,11.2-1.3,14.7-3.8c3.5-2.6,5.3-6.1,5.3-10.5C229,261.1,225,257.3,217,256.3z
	 M117.7,267.5h-0.3l-10-34.1H90.1v48h11.5v-20.8c0-3.3-0.2-7.8-0.7-13.7h0.3l9.8,34.6h12.3l9.7-34.5h0.3c-0.3,5.2-0.4,8.5-0.4,9.8
	c0,1.3,0,2.5,0,3.6v21h11.9v-48h-17.3L117.7,267.5z M157.8,55.1c-41.1,0-74.6,33.5-74.6,74.6s33.5,74.6,74.6,74.6
	c41.1,0,74.6-33.5,74.6-74.6C232.4,88.5,198.9,55.1,157.8,55.1z M157.8,189.2c-32.9,0-59.6-26.7-59.6-59.6
	c0-32.9,26.7-59.6,59.6-59.6c32.9,0,59.6,26.7,59.6,59.6S190.7,189.2,157.8,189.2z M195.3,86.9c0-0.2-0.1-0.4-0.1-0.6
	c0-0.1,0-0.1-0.1-0.2c0-0.2-0.1-0.4-0.2-0.6c0-0.1-0.1-0.1-0.1-0.2c-0.1-0.2-0.1-0.3-0.2-0.5c0-0.1-0.1-0.2-0.1-0.2
	c-0.1-0.2-0.2-0.3-0.2-0.5c0-0.1-0.1-0.2-0.1-0.2c-0.1-0.1-0.2-0.3-0.3-0.4c-0.1-0.1-0.1-0.2-0.2-0.2c-0.1-0.1-0.2-0.3-0.3-0.4
	c-0.1-0.1-0.1-0.1-0.2-0.2c-0.1-0.1-0.3-0.3-0.4-0.4c0,0-0.1-0.1-0.1-0.1c0,0,0,0,0,0c-0.2-0.2-0.4-0.3-0.6-0.5c0,0-0.1,0-0.1-0.1
	c-0.2-0.1-0.4-0.2-0.6-0.3c-0.1,0-0.1-0.1-0.2-0.1c-0.2-0.1-0.3-0.2-0.5-0.2c-0.1,0-0.2-0.1-0.2-0.1c-0.2-0.1-0.3-0.1-0.5-0.2
	c-0.1,0-0.2,0-0.3-0.1c-0.2,0-0.3-0.1-0.5-0.1c-0.1,0-0.2,0-0.3,0c-0.2,0-0.3,0-0.5,0c-0.1,0-0.2,0-0.3,0c-0.1,0-0.1,0-0.2,0
	c-0.1,0-0.2,0-0.3,0c-0.1,0-0.2,0-0.3,0c-0.2,0-0.3,0-0.5,0.1c-0.1,0-0.1,0-0.2,0l-42.5,7.5c0,0-0.1,0-0.1,0c-0.1,0-0.2,0-0.3,0.1
	c-0.1,0-0.2,0.1-0.3,0.1c-0.1,0-0.2,0.1-0.3,0.1c-0.1,0-0.2,0.1-0.3,0.1c-0.1,0-0.2,0.1-0.3,0.1c-0.1,0.1-0.2,0.1-0.3,0.2
	c-0.1,0-0.2,0.1-0.3,0.1c-0.1,0.1-0.2,0.1-0.3,0.2c-0.1,0.1-0.2,0.1-0.2,0.2c-0.1,0.1-0.2,0.2-0.4,0.3c-0.1,0-0.1,0.1-0.2,0.1
	c-0.2,0.1-0.3,0.3-0.4,0.4c0,0,0,0-0.1,0.1c-0.2,0.2-0.3,0.3-0.5,0.5c-0.1,0.1-0.1,0.1-0.2,0.2c-0.1,0.1-0.2,0.2-0.3,0.3
	c-0.1,0.1-0.1,0.2-0.2,0.3c-0.1,0.1-0.1,0.2-0.2,0.3c-0.1,0.1-0.1,0.2-0.2,0.3c-0.1,0.1-0.1,0.2-0.2,0.3c0,0.1-0.1,0.2-0.1,0.3
	c0,0.1-0.1,0.2-0.1,0.3c0,0.1-0.1,0.2-0.1,0.3c0,0.1-0.1,0.2-0.1,0.4c0,0.1,0,0.2-0.1,0.3c0,0.1,0,0.3-0.1,0.4c0,0.1,0,0.2,0,0.3
	c0,0.2,0,0.5,0,0.7v44.4c-0.8-0.1-1.7-0.1-2.5-0.1c-1.6,0-3.3,0.2-5,0.5c-11.4,2-20,9.9-20,18.4c0,8.1,7.4,14,17.5,14
	c1.6,0,3.3-0.2,5-0.5c11-1.9,19.3-9.4,19.9-17.6c0-0.3,0.1-0.6,0.1-0.9v-1.4c0.7,7.5,7.8,12.8,17.5,12.8c1.6,0,3.3-0.2,5-0.5
	c11-1.9,19.3-9.4,19.9-17.6c0-0.3,0.1-0.6,0.1-0.9V87.8c0-0.3,0-0.5,0-0.8C195.3,87,195.3,86.9,195.3,86.9z M130.3,157.3
	c-1.3,0.2-2.7,0.3-3.7,0.2c1.3-1,3.4-2.1,6.3-2.6c1.3-0.2,2.7-0.3,3.7-0.2C135.3,155.7,133.2,156.8,130.3,157.3z M152.9,101.6
	l27.5-4.8v2.3l-27.5,4.8V101.6z M172.8,149.9c-1.3,0.2-2.7,0.3-3.7,0.2c1.3-1,3.4-2.1,6.3-2.6c1.3-0.2,2.7-0.3,3.7-0.2
	C177.8,148.2,175.6,149.3,172.8,149.9z M180.3,132.3L180.3,132.3c-0.8-0.1-1.7-0.1-2.5-0.1c-1.6,0-3.3,0.2-5,0.5
	c-10.9,1.9-19.2,9.2-19.9,17.3v-30.7l27.5-4.8L180.3,132.3L180.3,132.3z M185.4,237.4c-3-2.6-7.6-4-13.7-4h-16.6v48h13v-15.9h3.6
	c5.8,0,10.3-1.5,13.5-4.4c3.2-2.9,4.7-7.1,4.7-12.4C189.9,243.8,188.4,240,185.4,237.4z M175.1,253.2c-1.1,1.1-2.7,1.6-4.6,1.6h-2.4
	v-11h3.3c3.6,0,5.4,1.6,5.4,4.9C176.8,250.6,176.2,252.2,175.1,253.2z"/>
</svg>
