<?xml version="1.0" encoding="utf-8"?>
<!-- Generator: Adobe Illustrator 22.0.1, SVG Export Plug-In . SVG Version: 6.00 Build 0)  -->
<svg version="1.1" id="Layer_1" xmlns="http://www.w3.org/2000/svg" xmlns:xlink="http://www.w3.org/1999/xlink" x="0px" y="0px"
	 viewBox="0 0 318.2 318.2" style="enable-background:new 0 0 318.2 318.2;" xml:space="preserve">
<path d="M283.1,52.7L232.6,2.2c-1.4-1.4-3.3-2.2-5.3-2.2h-187c-4.1,0-7.5,3.4-7.5,7.5v303.2c0,4.1,3.4,7.5,7.5,7.5h237.5
	c4.1,0,7.5-3.4,7.5-7.5V58C285.3,56,284.6,54.1,283.1,52.7z M234.8,25.6l24.9,24.9h-24.9L234.8,25.6L234.8,25.6z M47.8,15h172v10.3
	h-172V15z M270.3,303.2H47.8V40.3h172V58c0,0.3,0,0.5,0,0.8H95.5c-4.1,0-7.5,3.4-7.5,7.5V192c0,4.1,3.4,7.5,7.5,7.5h125.7
	c4.1,0,7.5-3.4,7.5-7.5V66.3c0-0.3,0-0.5,0-0.8h41.7V303.2z M213.7,73.8v110.7H103V73.8H213.7z M147.9,160.4c2.6,0,5.3-0.8,7.8-2.5
	l26.9-17.4c4.2-2.7,6.7-6.9,6.7-11.4c0-4.5-2.4-8.7-6.7-11.4l-26.9-17.4c-2.6-1.7-5.2-2.5-7.8-2.5c-5.8,0-11.7,4.5-11.7,13.1v36.4
	C136.2,155.9,142.1,160.4,147.9,160.4z M151.2,115.3l21.4,13.8L151.2,143V115.3z M117.7,267.5h-0.3l-10-34.1H90.1v48h11.5v-20.8
	c0-3.3-0.2-7.8-0.7-13.7h0.3l9.8,34.6h12.3l9.7-34.5h0.3c-0.3,5.2-0.4,8.5-0.4,9.8c0,1.3,0,2.5,0,3.6v21h11.9v-48h-17.3L117.7,267.5
	z M225.5,233.4h-12l-20,29.2v9.5h19.1v9.3h12.8v-9.3h5.3v-9.7h-5.3L225.5,233.4L225.5,233.4z M212.8,252.6c-0.1,1.8-0.1,3.2-0.1,4.3
	v5.6h-7.9l5.3-7.9c0.9-1.5,1.8-3,2.5-4.7h0.4C212.9,249.9,212.9,250.8,212.8,252.6z M158.3,184.3c30.4,0,55.2-24.8,55.2-55.2
	S188.8,74,158.3,74s-55.2,24.8-55.2,55.2S127.9,184.3,158.3,184.3z M158.3,89c22.2,0,40.2,18,40.2,40.2c0,22.2-18,40.2-40.2,40.2
	s-40.2-18-40.2-40.2C118.2,107,136.2,89,158.3,89z M185.4,237.4c-3-2.6-7.6-4-13.7-4h-16.6v48h13v-15.9h3.6c5.8,0,10.3-1.5,13.5-4.4
	c3.2-2.9,4.7-7.1,4.7-12.4C189.9,243.8,188.4,240,185.4,237.4z M175.1,253.2c-1.1,1.1-2.7,1.6-4.6,1.6h-2.4v-11h3.3
	c3.6,0,5.4,1.6,5.4,4.9C176.8,250.6,176.2,252.2,175.1,253.2z"/>
</svg>
