<?xml version="1.0" encoding="utf-8"?>
<!-- Generator: Adobe Illustrator 22.0.1, SVG Export Plug-In . SVG Version: 6.00 Build 0)  -->
<svg version="1.1" id="Layer_1" xmlns="http://www.w3.org/2000/svg" xmlns:xlink="http://www.w3.org/1999/xlink" x="0px" y="0px"
	 viewBox="0 0 318.2 318.2" style="enable-background:new 0 0 318.2 318.2;" xml:space="preserve">
<path d="M94,193.3h128.6c4.1,0,7.5-3.4,7.5-7.5V77.1c0-4.1-3.4-7.5-7.5-7.5H94c-4.1,0-7.5,3.4-7.5,7.5v108.7
	C86.5,189.9,89.9,193.3,94,193.3z M210.6,84.6h4.6v6.3h-4.6V84.6z M210.6,105.8h4.6v7.1h-4.6V105.8z M210.6,127.9h4.6v7.1h-4.6
	V127.9z M210.6,149.9h4.6v7.1h-4.6V149.9z M210.6,172h4.6v6.3h-4.6V172z M121.1,84.6h74.5v39.4h-74.5
	C121.1,123.9,121.1,84.6,121.1,84.6z M121.1,138.9h74.5v39.4h-74.5C121.1,178.3,121.1,138.9,121.1,138.9z M101.5,84.6h4.6v6.3h-4.6
	V84.6z M101.5,105.8h4.6v7.1h-4.6V105.8z M101.5,127.9h4.6v7.1h-4.6V127.9z M101.5,149.9h4.6v7.1h-4.6V149.9z M101.5,172h4.6v6.3
	h-4.6V172z M283.1,52.7L232.6,2.2c-1.4-1.4-3.3-2.2-5.3-2.2h-187c-4.1,0-7.5,3.4-7.5,7.5v303.2c0,4.1,3.4,7.5,7.5,7.5h237.5
	c4.1,0,7.5-3.4,7.5-7.5V58C285.3,56,284.6,54.1,283.1,52.7z M234.8,25.6l24.9,24.9h-24.9L234.8,25.6L234.8,25.6z M47.8,15h172v10.3
	h-172V15z M47.8,303.2V40.3h172V58c0,4.1,3.4,7.5,7.5,7.5h43v237.7H47.8z M161.4,242.1c-2.7-2.4-6.8-3.5-12.2-3.5h-14.8v42.8h11.6
	v-14.2h3.3c5.2,0,9.2-1.3,12-3.9s4.2-6.3,4.2-11.1C165.4,247.8,164.1,244.4,161.4,242.1z M152.2,256.3c-1,1-2.4,1.5-4.1,1.5h-2.1
	v-9.8h3c3.2,0,4.8,1.4,4.8,4.3C153.7,253.9,153.2,255.3,152.2,256.3z M100.9,268.9h-0.2l-8.9-30.4H76.3v42.8h10.3v-18.6
	c0-2.9-0.2-7-0.6-12.2h0.3l8.8,30.9h11l8.6-30.8h0.3c-0.2,4.6-0.4,7.6-0.4,8.8c0,1.2,0,2.3,0,3.3v18.8h10.6v-42.8h-15.4L100.9,268.9
	z M172.3,281.4h25.4v-9.4h-13.9v-8.1h12.8v-9.3h-12.8v-6.7h13.9v-9.3h-25.4V281.4z M222.4,265.2h7.6v6.7c-1.4,0.3-3,0.5-4.7,0.5
	c-3.1,0-5.6-1-7.2-3.1s-2.5-5.2-2.5-9.2c0-4.1,0.9-7.2,2.8-9.4c1.8-2.2,4.5-3.3,7.8-3.3c3.7,0,7.1,0.8,10.2,2.3l3.7-9.1
	c-1.8-0.8-3.9-1.4-6.3-1.9s-4.9-0.8-7.6-0.8c-7.1,0-12.6,1.9-16.6,5.8c-3.9,3.8-5.9,9.2-5.9,16.1c0,7.1,1.8,12.5,5.4,16.4
	c3.6,3.8,8.7,5.7,15.3,5.7c6,0,11.5-0.9,16.6-2.6v-23.1h-18.5L222.4,265.2L222.4,265.2z"/>
</svg>
