<?xml version="1.0" encoding="utf-8"?>
<!-- Generator: Adobe Illustrator 22.0.1, SVG Export Plug-In . SVG Version: 6.00 Build 0)  -->
<svg version="1.1" id="Layer_1" xmlns="http://www.w3.org/2000/svg" xmlns:xlink="http://www.w3.org/1999/xlink" x="0px" y="0px"
	 viewBox="0 0 318.2 318.2" style="enable-background:new 0 0 318.2 318.2;" xml:space="preserve">
<path d="M123.9,232.6c-7.6,0-13.4,2.1-17.4,6.3c-4,4.2-6,10.3-6,18.3c0,8.1,2,14.2,6,18.4c4,4.2,9.8,6.3,17.3,6.3
	c7.6,0,13.4-2.1,17.4-6.3c4-4.2,5.9-10.3,5.9-18.4c0-8.1-2-14.2-5.9-18.4C137.3,234.7,131.5,232.6,123.9,232.6z M131.1,267.9
	c-1.6,2.3-4,3.4-7.3,3.4c-6.5,0-9.7-4.6-9.7-13.9c0-9.4,3.2-14,9.7-14c3.2,0,5.6,1.1,7.2,3.4c1.6,2.3,2.4,5.8,2.4,10.6
	C133.5,262.1,132.7,265.6,131.1,267.9z M201.4,277.8c0,3.1-0.5,5.3-1.4,6.6c-0.9,1.3-2.4,1.9-4.6,1.9c-0.9,0-1.8-0.1-2.6-0.2
	c-0.8-0.2-1.5-0.3-2.2-0.4v10.1c2.1,0.5,4.4,0.7,6.7,0.7c5.7,0,10-1.7,12.8-5c2.8-3.3,4.3-8.3,4.3-14.8v-43.3h-13L201.4,277.8
	L201.4,277.8z M283.1,52.7L232.6,2.2c-1.4-1.4-3.3-2.2-5.3-2.2h-187c-4.1,0-7.5,3.4-7.5,7.5v303.2c0,4.1,3.4,7.5,7.5,7.5h237.5
	c4.1,0,7.5-3.4,7.5-7.5V58C285.3,56,284.6,54.1,283.1,52.7z M234.8,25.6l24.9,24.9h-24.9L234.8,25.6L234.8,25.6z M47.8,15h172v10.3
	h-172V15z M47.8,303.2V40.3h172V58c0,4.1,3.4,7.5,7.5,7.5h43v237.7H47.8z M194.7,70.6c-1.4-1.4-3.3-2.2-5.3-2.2h-85.8
	c-4.1,0-7.5,3.4-7.5,7.5v85.8c0,2,0.8,3.9,2.2,5.3l23.5,23.5c1.4,1.4,3.2,2.2,5.3,2.2h85.8c4.1,0,7.5-3.4,7.5-7.5V99.4
	c0-2.1-0.8-3.9-2.2-5.3L194.7,70.6z M119.6,167.1l-8.5-8.5V94l8.5,8.5V167.1z M121.7,83.4h64.6l8.5,8.5h-64.6L121.7,83.4z
	 M205.4,177.7h-70.8v-70.8h70.8V177.7z M190.8,260.2c-1.3-1.8-3.5-3.1-6.5-3.9v-0.3c2.3-0.5,4.1-1.8,5.4-3.7
	c1.4-1.9,2.1-4.2,2.1-6.9c0-4.1-1.6-7.1-4.7-9c-3.2-1.9-8-2.9-14.5-2.9h-16.7v48h18.7c5.6,0,10.1-1.3,13.4-3.8
	c3.3-2.5,4.9-5.9,4.9-10.3C192.8,264.4,192.1,262,190.8,260.2z M172.4,243.2c4.1,0,6.1,1.3,6.1,4c0,1.5-0.5,2.6-1.5,3.4
	c-1,0.8-2.5,1.1-4.3,1.1h-3.9v-8.6L172.4,243.2L172.4,243.2z M173.4,271.4h-4.6v-10.1h4.3c2.1,0,3.6,0.4,4.7,1.3s1.6,2.1,1.6,3.7
	C179.4,269.7,177.4,271.4,173.4,271.4z"/>
</svg>
