<?xml version="1.0" encoding="utf-8"?>
<!-- Generator: Adobe Illustrator 22.0.1, SVG Export Plug-In . SVG Version: 6.00 Build 0)  -->
<svg version="1.1" id="Layer_1" xmlns="http://www.w3.org/2000/svg" xmlns:xlink="http://www.w3.org/1999/xlink" x="0px" y="0px"
	 viewBox="0 0 318.2 318.2" style="enable-background:new 0 0 318.2 318.2;" xml:space="preserve">
<path d="M100.3,148.2h107.5v15H100.3V148.2z M100.3,172.8h49.5v15h-49.5V172.8z M100.3,138.5h117.6v-15l0,0H100.3V138.5z
	 M162.4,233.4h-16.6v48h15.5c8,0,14.2-2.2,18.6-6.5s6.6-10.5,6.6-18.5c0-7.4-2.1-13.1-6.3-17.1C176,235.4,170.1,233.4,162.4,233.4z
	 M170.3,267.3c-1.8,2.3-4.7,3.4-8.7,3.4h-2.9v-26.9h3.8c3.5,0,6.2,1.1,7.9,3.2s2.6,5.4,2.6,9.8C173.1,261.5,172.1,265,170.3,267.3z
	 M191.6,244h11.7v37.4h13V244H228v-10.6h-36.4V244z M283.1,52.7L232.6,2.2c-1.4-1.4-3.3-2.2-5.3-2.2h-187c-4.1,0-7.5,3.4-7.5,7.5
	v303.2c0,4.1,3.4,7.5,7.5,7.5h237.5c4.1,0,7.5-3.4,7.5-7.5V58C285.3,56,284.6,54.1,283.1,52.7z M234.8,25.6l24.9,24.9h-24.9
	L234.8,25.6L234.8,25.6z M47.8,15h172v10.3h-172V15z M270.3,303.2H47.8V40.3h172V58c0,4.1,3.4,7.5,7.5,7.5h43L270.3,303.2
	L270.3,303.2z M92.3,113.2c3.2,2.7,7.9,2.3,10.6-0.9c1.2-1.4,6.1-4.6,10-4.2c1.4,0.1,3.5,0.8,5.6,4.6c1.3,2.5,3.9,3.9,6.6,3.9
	c0.8,0,1.6-0.1,2.4-0.4c3.5-1.2,5.6-4.7,5-8.3c-0.6-3.7,0.8-7.6,3.4-9.8c2-1.6,4.3-1.9,7.1-0.9c3.9,1.4,8.2-0.6,9.6-4.4
	c1.4-3.9-0.6-8.2-4.4-9.6c-7.7-2.8-15.7-1.6-21.8,3.4c-2.6,2.2-4.8,4.9-6.3,8c-2-0.8-3.9-1.2-5.6-1.4c-10.1-1-19.5,5.2-23,9.4
	C88.8,105.7,89.2,110.5,92.3,113.2z M113.9,232.6c-7.6,0-13.4,2.1-17.4,6.3c-4,4.2-6,10.3-6,18.3c0,8.1,2,14.2,6,18.4
	c4,4.2,9.8,6.3,17.3,6.3c7.6,0,13.4-2.1,17.4-6.3c4-4.2,5.9-10.3,5.9-18.4c0-8.1-2-14.2-5.9-18.4
	C127.3,234.7,121.5,232.6,113.9,232.6z M121.1,267.9c-1.6,2.3-4,3.4-7.3,3.4c-6.5,0-9.7-4.6-9.7-13.9c0-9.4,3.2-14,9.7-14
	c3.2,0,5.6,1.1,7.2,3.4c1.6,2.3,2.4,5.8,2.4,10.6C123.5,262.1,122.7,265.6,121.1,267.9z M99.2,81c3.2,2.7,7.9,2.3,10.6-0.9
	c0.7-0.8,3.5-2.5,5.4-2.2c0.3,0,1.1,0.1,2.2,2.1c1.3,2.5,3.9,3.9,6.6,3.9c0.8,0,1.6-0.1,2.4-0.4c3.5-1.2,5.6-4.7,5-8.3
	c-0.3-1.9,0.4-3.9,1.7-5c0.6-0.5,1.4-0.9,2.9-0.3c3.9,1.4,8.2-0.6,9.6-4.4c1.4-3.9-0.6-8.2-4.4-9.6c-6.2-2.3-12.7-1.3-17.6,2.8
	c-1.6,1.3-3,3-4.1,4.8c-0.9-0.2-1.8-0.4-2.7-0.5c-8.1-0.8-15.3,4-18.3,7.5C95.7,73.6,96.1,78.3,99.2,81z"/>
</svg>
