<?xml version="1.0" encoding="utf-8"?>
<!-- Generator: Adobe Illustrator 22.0.1, SVG Export Plug-In . SVG Version: 6.00 Build 0)  -->
<svg version="1.1" id="Layer_1" xmlns="http://www.w3.org/2000/svg" xmlns:xlink="http://www.w3.org/1999/xlink" x="0px" y="0px"
	 viewBox="0 0 318.2 318.2" style="enable-background:new 0 0 318.2 318.2;" xml:space="preserve">
<path d="M283.1,52.7L232.6,2.2c-1.4-1.4-3.3-2.2-5.3-2.2h-187c-4.1,0-7.5,3.4-7.5,7.5v303.2c0,4.1,3.4,7.5,7.5,7.5h237.5
	c4.1,0,7.5-3.4,7.5-7.5V58C285.3,56,284.6,54.1,283.1,52.7z M234.8,25.6l24.9,24.9h-24.9L234.8,25.6L234.8,25.6z M47.8,15h172v10.3
	h-172V15z M270.3,303.2H47.8V40.3h172V58c0,4.1,3.4,7.5,7.5,7.5h43L270.3,303.2L270.3,303.2z M201.7,147c-3.6,0-7.2,0.2-10.7,0.4
	c-1.3,0.1-2.6,0.2-3.9,0.3c-1.3-1.4-2.6-2.8-3.8-4.2c-7.8-9.3-14.1-19.8-19.3-30.7c1.4-5.3,2.5-10.8,3.1-16.5
	c1.2-10.4,1.6-22.3-2.3-32.3c-1.3-3.4-4.9-7.6-9.1-5.5c-4.8,2.4-6.1,9.2-6.5,14c-0.3,3.9-0.1,7.8,0.6,11.6c0.7,3.8,1.7,7.5,2.9,11.1
	c1.1,3.3,2.3,6.7,3.6,9.9c-0.8,2.6-1.7,5.1-2.6,7.6c-2.2,5.6-4.5,11-6.7,16.2c-1.2,2.6-2.3,5.1-3.5,7.5c-3.6,7.9-7.5,15.6-11.8,23
	c-10.2,3.6-19.3,7.7-26.9,12.6c-4.1,2.6-7.7,5.5-10.6,8.6c-2.8,3-5.7,6.8-5.9,11c-0.1,2.4,0.8,4.7,2.8,6.1c2.7,2,6.3,1.9,9.4,1.2
	c10.3-2.1,18.1-11,24.8-18.4c4.6-5.1,9.9-11.6,15.4-19.5c0,0,0,0,0-0.1c9.4-2.9,19.7-5.4,30.6-7.2c5-0.8,10.1-1.5,15.3-2
	c3.7,3.4,7.6,6.6,11.9,9.2c3.4,2.1,6.9,3.8,10.7,5.1c3.8,1.2,7.6,2.2,11.5,2.9c2,0.3,4,0.4,6.1,0.3c4.6-0.2,11.3-2,11.7-7.6
	c0.1-1.7-0.2-3.2-1-4.6c-3.6-6.5-16.2-8.5-22-9.5C211,147.3,206.3,147,201.7,147z M126.6,167.7c-2.2,3.4-4.3,6.4-6.2,9
	c-4.8,6.6-10.3,14.4-18.3,17.3c-1.5,0.6-3.5,1.1-5.6,1c-1.9-0.1-3.7-0.9-3.6-3.1c0-1.1,0.6-2.5,1.4-3.9c0.9-1.5,2-2.9,3.3-4.2
	c2.6-2.8,6-5.4,9.8-7.9c5.9-3.8,12.9-7.2,20.7-10.3C127.5,166.4,127.1,167.1,126.6,167.7z M153.9,83.5c-0.6-3.5-0.7-7.1-0.3-10.5
	c0.2-1.7,0.5-3.4,1-5c0.4-1.3,1.4-4.6,2.8-5c2.4-0.7,3.2,4.5,3.5,6c1.6,8.4,0.2,17.7-1.7,26c-0.3,1.3-0.6,2.6-1,3.9
	c-0.6-1.6-1.1-3.2-1.6-4.8C155.4,90.5,154.4,87,153.9,83.5z M170.5,149.8c-9.1,1.5-17.8,3.4-26,5.7c1-0.3,5.5-8.8,6.5-10.6
	c4.7-8.3,8.6-17,11.4-26.2c4.9,9.7,10.8,19,18.2,27.2c0.7,0.7,1.4,1.5,2.1,2.2C178.5,148.6,174.5,149.1,170.5,149.8z M232.3,161.5
	c-0.3,1.8-4.2,2.8-6,3.1c-5.3,0.8-10.9,0.2-16-1.5c-3.5-1.2-6.9-2.8-10.1-4.7c-3.2-1.9-6.2-4.2-8.9-6.7c3.4-0.2,6.9-0.3,10.4-0.3
	c3.5,0,7,0.2,10.5,0.7c6.5,0.7,13.8,3,18.9,7.2C232.1,160.1,232.4,160.8,232.3,161.5z M158.6,233.4H142v48h15.5
	c8,0,14.2-2.2,18.6-6.5s6.6-10.5,6.6-18.5c0-7.4-2.1-13.1-6.3-17.1C172.2,235.4,166.3,233.4,158.6,233.4z M166.5,267.3
	c-1.8,2.3-4.7,3.4-8.7,3.4H155v-26.9h3.8c3.5,0,6.2,1.1,7.9,3.2c1.7,2.1,2.6,5.4,2.6,9.8C169.3,261.5,168.3,265,166.5,267.3z
	 M129.8,237.4c-3-2.6-7.6-4-13.7-4H99.5v48h13v-15.9h3.6c5.8,0,10.3-1.5,13.5-4.4c3.2-2.9,4.7-7.1,4.7-12.4
	C134.3,243.8,132.8,240,129.8,237.4z M119.5,253.2c-1.1,1.1-2.7,1.6-4.6,1.6h-2.4v-11h3.3c3.6,0,5.4,1.6,5.4,4.9
	C121.2,250.6,120.6,252.2,119.5,253.2z M191.3,281.4h12.8v-18h14.4V253h-14.4v-9.2h15.6v-10.4h-28.4V281.4z"/>
</svg>
