<?xml version="1.0" encoding="utf-8"?>
<!-- Generator: Adobe Illustrator 22.0.1, SVG Export Plug-In . SVG Version: 6.00 Build 0)  -->
<svg version="1.1" id="Layer_1" xmlns="http://www.w3.org/2000/svg" xmlns:xlink="http://www.w3.org/1999/xlink" x="0px" y="0px"
	 viewBox="0 0 318.2 318.2" style="enable-background:new 0 0 318.2 318.2;" xml:space="preserve">
<path d="M283.1,52.7L232.6,2.2c-1.4-1.4-3.3-2.2-5.3-2.2h-187c-4.1,0-7.5,3.4-7.5,7.5v303.2c0,4.1,3.4,7.5,7.5,7.5h237.5
	c4.1,0,7.5-3.4,7.5-7.5V58C285.3,56,284.6,54.1,283.1,52.7z M234.8,25.6l24.9,24.9h-24.9L234.8,25.6L234.8,25.6z M47.8,15h172v10.3
	h-172V15z M270.3,303.2H47.8V40.3h172V58c0,1.6,0.5,3,1.3,4.2c-0.9-0.4-1.8-0.6-2.8-0.6H98.4c-4.1,0-7.5,3.4-7.5,7.5v119.9
	c0,4.1,3.4,7.5,7.5,7.5h119.9c4.1,0,7.5-3.4,7.5-7.5V69.2c0-1.6-0.5-3-1.3-4.2c0.9,0.4,1.8,0.6,2.8,0.6h43L270.3,303.2L270.3,303.2z
	 M120,106.7l-14.1,23.8v-23.8C105.9,106.7,120,106.7,120,106.7z M105.9,91.7v-15h15v15H105.9z M129.7,119.7l32.3,54.5
	c1.4,2.3,3.8,3.7,6.5,3.7c2.6,0,5.1-1.4,6.5-3.7l17.4-29.3l18.5,31.2v5.5H105.9v-21.7L129.7,119.7z M135.9,91.7v-15h15v15H135.9z
	 M150.8,106.7v15h-2.5l-8.9-15H150.8z M180.8,106.7v15h-15v-15H180.8z M165.8,91.7v-15h15v15H165.8z M179.7,136.6l-11.3,19l-2.6-4.4
	v-14.5L179.7,136.6L179.7,136.6z M204.8,136.6h5.9v10L204.8,136.6z M195.8,121.6v-15h15v15H195.8z M195.8,91.7v-15h15v15H195.8z
	 M207.2,263.3L207.2,263.3h8.6v7.5c-1.6,0.4-3.4,0.6-5.3,0.6c-3.5,0-6.2-1.2-8.1-3.5c-1.9-2.4-2.8-5.8-2.8-10.3
	c0-4.6,1-8.1,3.1-10.6c2.1-2.5,5-3.7,8.8-3.7c4.1,0,7.9,0.9,11.4,2.6l4.1-10.2c-2-0.9-4.3-1.6-7-2.2c-2.7-0.6-5.5-0.9-8.5-0.9
	c-8,0-14.2,2.2-18.6,6.5c-4.4,4.3-6.6,10.3-6.6,18.1c0,7.9,2,14.1,6.1,18.3c4,4.3,9.8,6.4,17.1,6.4c6.7,0,12.9-1,18.5-2.9v-25.9
	h-20.7V263.3z M119.7,237.4c-3-2.6-7.6-4-13.7-4H89.4v48h13v-15.9h3.6c5.8,0,10.3-1.5,13.5-4.4c3.2-2.9,4.7-7.1,4.7-12.4
	C124.2,243.8,122.7,240,119.7,237.4z M109.4,253.2c-1.1,1.1-2.7,1.6-4.6,1.6h-2.4v-11h3.3c3.6,0,5.4,1.6,5.4,4.9
	C111.1,250.6,110.5,252.2,109.4,253.2z M166,255.1L166,255.1c0,2.9,0.2,6.8,0.5,11.7h-0.2l-17.5-33.3h-16.9v48h11.5v-21.6
	c0-2.8-0.2-6.9-0.6-12.2h0.3l17.5,33.8h17v-48H166L166,255.1L166,255.1z"/>
</svg>
