<?xml version="1.0" encoding="utf-8"?>
<!-- Generator: Adobe Illustrator 22.0.1, SVG Export Plug-In . SVG Version: 6.00 Build 0)  -->
<svg version="1.1" id="Layer_1" xmlns="http://www.w3.org/2000/svg" xmlns:xlink="http://www.w3.org/1999/xlink" x="0px" y="0px"
	 viewBox="0 0 318.2 318.2" style="enable-background:new 0 0 318.2 318.2;" xml:space="preserve">
<path d="M176.2,125.9h17.4v15h-17.4V125.9z M123.1,92.2h70.5v15h-70.5V92.2z M162.8,126h-10.5v-10.5c0-4.1-3.4-7.5-7.5-7.5
	c-14.1,0-25.5,11.4-25.5,25.5s11.4,25.5,25.5,25.5s25.5-11.4,25.5-25.5C170.3,129.3,167,126,162.8,126z M144.8,144
	c-5.8,0-10.5-4.7-10.5-10.5c0-2.9,1.1-5.4,3-7.3v7.3c0,4.1,3.4,7.5,7.5,7.5h7.3C150.3,142.8,147.7,144,144.8,144z M173.9,237.4
	c-3-2.6-7.6-4-13.7-4h-16.6v48h13v-15.9h3.6c5.8,0,10.3-1.5,13.5-4.4c3.2-2.9,4.7-7.1,4.7-12.4C178.5,243.8,177,240,173.9,237.4z
	 M163.6,253.2c-1.1,1.1-2.7,1.6-4.6,1.6h-2.4v-11h3.3c3.6,0,5.4,1.6,5.4,4.9C165.4,250.6,164.8,252.2,163.6,253.2z M182.6,244h11.7
	v37.4h13V244H219v-10.6h-36.4V244z M159.1,108.8h34.5v15h-34.5V108.8z M283.1,52.7L232.6,2.2c-1.4-1.4-3.3-2.2-5.3-2.2h-187
	c-4.1,0-7.5,3.4-7.5,7.5v303.2c0,4.1,3.4,7.5,7.5,7.5h237.5c4.1,0,7.5-3.4,7.5-7.5V58C285.3,56,284.6,54.1,283.1,52.7z M234.8,25.6
	l24.9,24.9h-24.9L234.8,25.6L234.8,25.6z M47.8,15h172v10.3h-172V15z M47.8,303.2V40.3h172V58c0,4.1,3.4,7.5,7.5,7.5h43v237.7H47.8z
	 M210.9,189.2c4.1,0,7.5-3.4,7.5-7.5V76.6c0-4.1-3.4-7.5-7.5-7.5H105.8c-4.1,0-7.5,3.4-7.5,7.5v105.1c0,4.1,3.4,7.5,7.5,7.5
	L210.9,189.2L210.9,189.2z M113.3,84.1h90.1v90.1h-90.1V84.1z M131.5,237.4c-3-2.6-7.6-4-13.7-4h-16.6v48h13v-15.9h3.6
	c5.8,0,10.3-1.5,13.5-4.4c3.2-2.9,4.7-7.1,4.7-12.4C136,243.8,134.5,240,131.5,237.4z M121.2,253.2c-1.1,1.1-2.7,1.6-4.6,1.6h-2.4
	v-11h3.3c3.6,0,5.4,1.6,5.4,4.9C122.9,250.6,122.3,252.2,121.2,253.2z"/>
</svg>
