<?xml version="1.0" encoding="utf-8"?>
<!-- Generator: Adobe Illustrator 22.0.1, SVG Export Plug-In . SVG Version: 6.00 Build 0)  -->
<svg version="1.1" id="Layer_1" xmlns="http://www.w3.org/2000/svg" xmlns:xlink="http://www.w3.org/1999/xlink" x="0px" y="0px"
	 viewBox="0 0 318.2 318.2" style="enable-background:new 0 0 318.2 318.2;" xml:space="preserve">
<path d="M117.7,146.9L117.7,146.9h8.4c11.4,0,20.2-2.6,26.4-7.9s9.3-12.8,9.3-22.7c0-9.5-2.9-16.7-8.7-21.5
	c-5.8-4.8-14.3-7.2-25.4-7.2H98.2v91.9h19.5V146.9z M117.7,103.6h8.9c5.3,0,9.2,1.1,11.7,3.3c2.5,2.2,3.7,5.6,3.7,10.1
	c0,4.5-1.5,8-4.5,10.3c-3,2.4-7.5,3.6-13.5,3.6h-6.4C117.7,130.9,117.7,103.6,117.7,103.6z M128.5,237.4c-3-2.6-7.6-4-13.7-4H98.2
	v48h13v-15.9h3.6c5.8,0,10.3-1.5,13.5-4.4c3.2-2.9,4.7-7.1,4.7-12.4C133.1,243.8,131.5,240,128.5,237.4z M118.2,253.2
	c-1.1,1.1-2.7,1.6-4.6,1.6h-2.4v-11h3.3c3.6,0,5.4,1.6,5.4,4.9C119.9,250.6,119.4,252.2,118.2,253.2z M152.8,244
	c0.8-0.6,2-0.9,3.7-0.9c3.3,0,7.1,1,11.6,3.1l4-10c-5.2-2.3-10.2-3.4-15.2-3.4c-5.6,0-10,1.2-13.3,3.7c-3.2,2.5-4.8,5.9-4.8,10.3
	c0,2.4,0.4,4.4,1.1,6.1c0.8,1.7,1.9,3.3,3.5,4.6c1.6,1.3,3.9,2.7,7,4.1c3.5,1.6,5.6,2.6,6.4,3.1c0.8,0.5,1.4,1,1.7,1.5
	c0.4,0.5,0.5,1.1,0.5,1.7c0,1-0.4,1.9-1.3,2.6c-0.9,0.7-2.3,1-4.2,1c-2.2,0-4.7-0.4-7.4-1.1c-2.7-0.7-5.2-1.7-7.7-3V279
	c2.3,1.1,4.6,1.9,6.8,2.3c2.2,0.4,4.8,0.7,8,0.7c3.8,0,7.2-0.6,10-1.9s5-3.1,6.5-5.4c1.5-2.3,2.3-5,2.3-7.9c0-3.2-0.8-5.9-2.4-8.1
	c-1.6-2.1-4.5-4.1-8.6-6c-4.3-2-7-3.3-7.9-4.1c-1-0.7-1.5-1.6-1.5-2.5C151.7,245.3,152.1,244.6,152.8,244z M219.1,143.1
	c-2.6-1.9-6.6-4-12.1-6.2c-6.2-2.5-10.2-4.3-12-5.6c-1.8-1.3-2.7-2.7-2.7-4.5c0-3.1,2.8-4.6,8.5-4.6c3.2,0,6.3,0.5,9.4,1.4
	c3.1,1,6.3,2.2,9.9,3.7l5.8-13.8c-8-3.7-16.2-5.5-24.7-5.5c-8.9,0-15.7,1.7-20.6,5.1c-4.8,3.4-7.3,8.2-7.3,14.5
	c0,3.6,0.6,6.7,1.7,9.2c1.2,2.5,3,4.7,5.5,6.6c2.5,1.9,6.5,4,11.9,6.3c3.8,1.6,6.8,3,9.1,4.2c2.3,1.2,3.9,2.3,4.8,3.2
	c0.9,0.9,1.4,2.2,1.4,3.7c0,4-3.5,6-10.4,6c-3.4,0-7.3-0.6-11.8-1.7c-4.5-1.1-8.5-2.5-12-4.2v15.8c3.1,1.3,6.5,2.4,10.1,3
	c3.6,0.7,8,1,13.1,1c10,0,17.5-1.9,22.5-5.7c5-3.8,7.5-9.3,7.5-16.5c0-3.5-0.6-6.5-1.8-9C223.6,147.2,221.7,145,219.1,143.1z
	 M283.1,52.7L232.6,2.2c-1.4-1.4-3.3-2.2-5.3-2.2h-187c-4.1,0-7.5,3.4-7.5,7.5v303.2c0,4.1,3.4,7.5,7.5,7.5h237.5
	c4.1,0,7.5-3.4,7.5-7.5V58C285.3,56,284.6,54.1,283.1,52.7z M234.8,25.6l24.9,24.9h-24.9L234.8,25.6L234.8,25.6z M47.8,15h172v10.3
	h-172V15z M47.8,303.2V40.3h172V58c0,4.1,3.4,7.5,7.5,7.5h43v237.7H47.8z M196.1,233.4h-16.6v48H195c8,0,14.2-2.2,18.6-6.5
	s6.6-10.5,6.6-18.5c0-7.4-2.1-13.1-6.3-17.1C209.8,235.4,203.8,233.4,196.1,233.4z M204,267.3c-1.8,2.3-4.7,3.4-8.7,3.4h-2.9v-26.9
	h3.8c3.5,0,6.2,1.1,7.9,3.2c1.7,2.1,2.6,5.4,2.6,9.8C206.8,261.5,205.9,265,204,267.3z"/>
</svg>
