<?xml version="1.0" encoding="utf-8"?>
<!-- Generator: Adobe Illustrator 22.0.1, SVG Export Plug-In . SVG Version: 6.00 Build 0)  -->
<svg version="1.1" id="Layer_1" xmlns="http://www.w3.org/2000/svg" xmlns:xlink="http://www.w3.org/1999/xlink" x="0px" y="0px"
	 viewBox="0 0 318.2 318.2" style="enable-background:new 0 0 318.2 318.2;" xml:space="preserve">
<path d="M148.7,88.3c2,0,3.6,1.6,3.6,3.6s-1.6,3.6-3.6,3.6s-3.6-1.6-3.6-3.6S146.7,88.3,148.7,88.3z M168,173.5c2,0,3.6,1.6,3.6,3.6
	s-1.6,3.6-3.6,3.6s-3.6-1.6-3.6-3.6S166,173.5,168,173.5z M283.1,52.7L232.6,2.2c-1.4-1.4-3.3-2.2-5.3-2.2h-187
	c-4.1,0-7.5,3.4-7.5,7.5v303.2c0,4.1,3.4,7.5,7.5,7.5h237.5c4.1,0,7.5-3.4,7.5-7.5V58C285.3,56,284.6,54.1,283.1,52.7z M234.8,25.6
	l24.9,24.9h-24.9L234.8,25.6L234.8,25.6z M47.8,15h172v10.3h-172V15z M270.3,303.2H47.8V40.3h172V58c0,4.1,3.4,7.5,7.5,7.5h43
	L270.3,303.2L270.3,303.2z M205.6,101.8h-14.6l0-14.6c0-11.3-14.1-19.8-32.7-19.8s-32.7,8.5-32.7,19.8v14.6h-14.6
	c-11.3,0-19.8,14.1-19.8,32.7s8.5,32.7,19.8,32.7h14.6v14.6c0,11.3,14.1,19.8,32.7,19.8s32.7-8.5,32.7-19.8v-14.6h14.6
	c11.3,0,19.8-14.1,19.8-32.7C225.5,115.9,216.9,101.8,205.6,101.8z M122.8,147.7v4.5h-11.3c-1.5-1-5.2-6.7-5.2-17.7
	c0-11.1,3.7-16.7,5.2-17.7h46.9c4.1,0,7.5-3.4,7.5-7.5v-2.9c0-4.1-3.4-7.5-7.5-7.5h-17.7V87.6c1-1.5,6.7-5.2,17.7-5.2
	c11.1,0,16.7,3.7,17.7,5.2l0,33.6c0,2.4-1.9,4.3-4.3,4.3l-26.8,0C132.7,125.6,122.8,135.5,122.8,147.7z M205.2,152.2h-46.9
	c-4.1,0-7.5,3.4-7.5,7.5v2.9c0,4.1,3.4,7.5,7.5,7.5h17.7v11.3c-1,1.5-6.7,5.2-17.7,5.2s-16.7-3.7-17.7-5.2V161c0-0.1,0-0.1,0-0.2
	v-13.1c0-2.4,1.9-4.3,4.3-4.3l26.8,0c12.2,0,22.2-9.9,22.2-22.2v-4.5h11.3c1.5,1,5.2,6.7,5.2,17.7
	C210.5,145.6,206.7,151.2,205.2,152.2z M179.6,251.2l-8.2-17.8h-14.1l15.8,29.6v18.3h13.1v-18.7l15.8-29.2h-14L179.6,251.2z
	 M150.2,237.4c-3-2.6-7.6-4-13.7-4H120v48h13v-15.9h3.6c5.8,0,10.3-1.5,13.5-4.4c3.2-2.9,4.7-7.1,4.7-12.4
	C154.8,243.8,153.3,240,150.2,237.4z M140,253.2c-1.1,1.1-2.7,1.6-4.6,1.6h-2.4v-11h3.3c3.6,0,5.4,1.6,5.4,4.9
	C141.7,250.6,141.1,252.2,140,253.2z"/>
</svg>
