<?xml version="1.0" encoding="utf-8"?>
<!-- Generator: Adobe Illustrator 22.0.1, SVG Export Plug-In . SVG Version: 6.00 Build 0)  -->
<svg version="1.1" id="Layer_1" xmlns="http://www.w3.org/2000/svg" xmlns:xlink="http://www.w3.org/1999/xlink" x="0px" y="0px"
	 viewBox="0 0 318.2 318.2" style="enable-background:new 0 0 318.2 318.2;" xml:space="preserve">
<path d="M106.4,170.3L106.4,170.3l9.7,9.7c1.4,1.4,3.3,2.2,5.3,2.2h49.3c1.1,0,2.1-0.2,3.1-0.7l19.3-8.8v4.4h-2.9v15h20.9v-15h-2.9
	v-4.5h2.9c4.1,0,7.5-3.4,7.5-7.5s-3.4-7.5-7.5-7.5h-2.9V152l4.3-0.8c4.1-0.8,6.7-4.7,6-8.8c-0.8-4.1-4.7-6.7-8.8-6l-1.5,0.3v-3.5
	l4.3-0.8c4.1-0.8,6.7-4.7,6-8.8c-0.8-4.1-4.7-6.7-8.8-6l-1.5,0.3v-3.5l4.3-0.8c4.1-0.8,6.7-4.7,6-8.8c-0.8-4.1-4.7-6.7-8.8-6
	l-1.5,0.3v-3.4h2.9c4.1,0,7.5-3.4,7.5-7.5s-3.4-7.5-7.5-7.5h-17.6l-19.6-9c-1-0.4-2-0.7-3.1-0.7h-49.3c-2,0-3.9,0.8-5.3,2.2
	l-9.7,9.7h-9.2c-4.1,0-7.5,3.4-7.5,7.5v72.2c0,4.1,3.4,7.5,7.5,7.5L106.4,170.3L106.4,170.3z M175.6,89.2l13.1,6
	c1,0.4,2,0.7,3.1,0.7h1.3v6.3l-4.3,0.8c-4.1,0.8-6.7,4.7-6,8.8c0.7,3.6,3.8,6.1,7.4,6.1c0.5,0,0.9,0,1.4-0.1l1.5-0.3v3.5l-4.3,0.8
	c-4.1,0.8-6.7,4.7-6,8.8c0.7,3.6,3.8,6.1,7.4,6.1c0.5,0,0.9,0,1.4-0.1l1.5-0.3v3.5l-4.3,0.8c-4.1,0.8-6.7,4.7-6,8.8
	c0.7,3.6,3.8,6.1,7.4,6.1c0.5,0,0.9,0,1.4-0.1l1.5-0.3v2.6h-1.3c-1.1,0-2.1,0.2-3.1,0.7l-13.1,6c0.1-0.5,0.1-1,0.1-1.5V90.6
	C175.7,90.1,175.7,89.6,175.6,89.2z M104.7,98.1h56.1v21.1h-56.1C104.7,119.2,104.7,98.1,104.7,98.1z M104.7,134.2h56.1v21.1h-56.1
	C104.7,155.3,104.7,134.2,104.7,134.2z M119.9,136.7h25.6v15h-25.6V136.7z M283.1,52.7L232.6,2.2c-1.4-1.4-3.3-2.2-5.3-2.2h-187
	c-4.1,0-7.5,3.4-7.5,7.5v303.2c0,4.1,3.4,7.5,7.5,7.5h237.5c4.1,0,7.5-3.4,7.5-7.5V58C285.3,56,284.6,54.1,283.1,52.7z M234.8,25.6
	l24.9,24.9h-24.9L234.8,25.6L234.8,25.6z M47.8,15h172v10.3h-172V15z M270.3,303.2H47.8V40.3h172V58c0,4.1,3.4,7.5,7.5,7.5h43
	L270.3,303.2L270.3,303.2z M223.2,247.6c0-9.5-6.5-14.2-19.6-14.2h-15.7v48h13v-17.5h3.3l10.2,17.5h14.7l-14-20.9
	C220.5,257.4,223.2,253.1,223.2,247.6z M203.3,254.2h-2.4v-11h2.6c4.4,0,6.7,1.7,6.7,5C210.1,252.2,207.9,254.2,203.3,254.2z
	 M119.9,100.6h25.6v15h-25.6V100.6z M149.6,233.2L149.6,233.2l-15.4,47.4l-13.4-20.1c5.4-3,8.1-7.3,8.1-12.9
	c0-9.5-6.5-14.2-19.6-14.2H93.6v48h13v-17.5h3.3l10.2,17.5h28.1l2.4-9h15.6l2.4,9h14.2l-15.9-48.2L149.6,233.2L149.6,233.2z
	 M109,254.2h-2.4v-11h2.6c4.4,0,6.7,1.7,6.7,5C115.8,252.2,113.6,254.2,109,254.2z M153.3,261.7L153.3,261.7
	c2-7.5,3.3-12.6,3.9-15.1c0.6-2.6,1-4.4,1.2-5.5c0.2,1.2,0.7,3.2,1.4,6c0.7,2.8,1.3,5,1.8,6.8l2.1,7.9H153.3z"/>
</svg>
