<?xml version="1.0" encoding="utf-8"?>
<!-- Generator: Adobe Illustrator 22.0.1, SVG Export Plug-In . SVG Version: 6.00 Build 0)  -->
<svg version="1.1" id="Layer_1" xmlns="http://www.w3.org/2000/svg" xmlns:xlink="http://www.w3.org/1999/xlink" x="0px" y="0px"
	 viewBox="0 0 318.2 318.2" style="enable-background:new 0 0 318.2 318.2;" xml:space="preserve">
<path d="M283.1,52.7L232.6,2.2c-1.4-1.4-3.3-2.2-5.3-2.2h-187c-4.1,0-7.5,3.4-7.5,7.5v303.2c0,4.1,3.4,7.5,7.5,7.5h237.5
	c4.1,0,7.5-3.4,7.5-7.5V58C285.3,56,284.6,54.1,283.1,52.7z M234.8,25.6l24.9,24.9h-24.9L234.8,25.6L234.8,25.6z M47.8,15h172v10.3
	h-172V15z M270.3,303.2H47.8V40.3h172V58c0,4.1,3.4,7.5,7.5,7.5h43L270.3,303.2L270.3,303.2z M221.6,257.5c-1.3,6-2,10.2-2.3,12.6
	c-0.2-1.9-0.7-4.7-1.4-8.5c-0.7-3.8-1.4-7.2-2.1-10.1l-4.1-18.1h-12l-4.2,18.1c-0.6,2.5-1.3,5.7-2.1,9.5s-1.2,6.9-1.5,9.1
	c-0.4-3.1-1.2-7.4-2.4-12.7l-5.2-24.1h-12.5l11.9,48h15.3c2.8-12.6,4.4-19.8,4.8-21.5c0.4-1.8,0.8-3.7,1.2-5.8s0.7-3.9,0.9-5.3
	c0.2,1.8,0.6,3.9,1,6.5s0.8,4.3,1,5.2l4.6,20.9h15.3l11.8-48h-12.5L221.6,257.5z M159.1,61.2c-38.7,0-70.2,31.5-70.2,70.2
	s31.5,70.2,70.2,70.2s70.2-31.5,70.2-70.2S197.8,61.2,159.1,61.2z M172.7,77.9c13.7,3.5,25.3,12,32.8,23.5h-46.3L172.7,77.9z
	 M176.4,131.4l-8.7,15h-17.3l-8.7-15l8.7-15h17.3L176.4,131.4z M156.3,76.2l-23.2,40.2l-13.6-23.5C129,83.2,141.9,77,156.3,76.2z
	 M105.9,146.4c-1.4-4.8-2.1-9.8-2.1-15c0-9,2.2-17.6,6.1-25.1l23.2,40.1H105.9z M145.5,185c-13.7-3.5-25.3-12-32.8-23.5h46.3
	L145.5,185z M161.9,186.6l23.2-40.2l13.6,23.5C189.2,179.6,176.3,185.8,161.9,186.6z M214.3,131.4c0,9-2.2,17.6-6.1,25.1l-23.2-40.1
	h27.2C213.6,121.2,214.3,126.2,214.3,131.4z M137.4,233.2L137.4,233.2L122,280.5l-13.4-20.1c5.4-3,8.1-7.3,8.1-12.9
	c0-9.5-6.5-14.2-19.6-14.2H81.5v48h13v-17.5h3.3l10.2,17.5H136l2.4-9H154l2.4,9h14.2l-15.9-48.2L137.4,233.2L137.4,233.2z
	 M96.9,254.2h-2.4v-11H97c4.4,0,6.7,1.7,6.7,5C103.7,252.2,101.4,254.2,96.9,254.2z M141.1,261.7c2-7.5,3.3-12.6,3.9-15.1
	c0.6-2.6,1-4.4,1.2-5.5c0.2,1.2,0.7,3.2,1.4,6c0.7,2.8,1.3,5,1.8,6.8l2.1,7.9H141.1z"/>
</svg>
