<?xml version="1.0" encoding="utf-8"?>
<!-- Generator: Adobe Illustrator 22.0.1, SVG Export Plug-In . SVG Version: 6.00 Build 0)  -->
<svg version="1.1" id="Layer_1" xmlns="http://www.w3.org/2000/svg" xmlns:xlink="http://www.w3.org/1999/xlink" x="0px" y="0px"
	 viewBox="0 0 318.2 318.2" style="enable-background:new 0 0 318.2 318.2;" xml:space="preserve">
<path d="M100.3,148.2h107.5v15H100.3V148.2z M100.3,172.8h49.5v15h-49.5V172.8z M100.3,98.9h82.2v15h-82.2V98.9z M188,281.4h12.8
	v-18h14.4V253h-14.4v-9.2h15.6v-10.4H188V281.4z M283.1,52.7L232.6,2.2c-1.4-1.4-3.3-2.2-5.3-2.2h-187c-4.1,0-7.5,3.4-7.5,7.5v303.2
	c0,4.1,3.4,7.5,7.5,7.5h237.5c4.1,0,7.5-3.4,7.5-7.5V58C285.3,56,284.6,54.1,283.1,52.7z M234.8,25.6l24.9,24.9h-24.9L234.8,25.6
	L234.8,25.6z M47.8,15h172v10.3h-172V15z M47.8,303.2V40.3h172V58c0,4.1,3.4,7.5,7.5,7.5h43v237.7H47.8z M100.3,74.2h117.6v15H100.3
	V74.2z M100.3,123.5h117.6v15H100.3V123.5z M144.8,244h11.7v37.4h13V244h11.7v-10.6h-36.4V244z M138.1,247.6
	c0-9.5-6.5-14.2-19.6-14.2h-15.7v48h13v-17.5h3.3l10.2,17.5h14.7l-14-20.9C135.4,257.4,138.1,253.1,138.1,247.6z M118.2,254.2h-2.4
	v-11h2.6c4.4,0,6.7,1.7,6.7,5C125,252.2,122.7,254.2,118.2,254.2z"/>
</svg>
