<?xml version="1.0" encoding="utf-8"?>
<!-- Generator: Adobe Illustrator 22.0.1, SVG Export Plug-In . SVG Version: 6.00 Build 0)  -->
<svg version="1.1" id="Layer_1" xmlns="http://www.w3.org/2000/svg" xmlns:xlink="http://www.w3.org/1999/xlink" x="0px" y="0px"
	 viewBox="0 0 318.2 318.2" style="enable-background:new 0 0 318.2 318.2;" xml:space="preserve">
<path d="M118.5,161.5c3.8-2.9,5.7-7,5.7-12.5c0-2.6-0.5-4.9-1.4-6.8c-0.9-1.9-2.4-3.6-4.3-5.1c-1.9-1.5-5-3-9.2-4.7
	c-4.7-1.9-7.7-3.3-9.1-4.2c-1.4-1-2.1-2.1-2.1-3.4c0-2.3,2.1-3.5,6.4-3.5c2.4,0,4.8,0.4,7.1,1.1c2.3,0.7,4.8,1.7,7.5,2.8l4.4-10.5
	c-6.1-2.8-12.3-4.2-18.8-4.2c-6.7,0-12,1.3-15.6,3.9c-3.7,2.6-5.5,6.3-5.5,11c0,2.8,0.4,5.1,1.3,7c0.9,1.9,2.3,3.6,4.2,5
	c1.9,1.5,4.9,3.1,9,4.8c2.9,1.2,5.2,2.3,6.9,3.2c1.7,0.9,2.9,1.7,3.6,2.4c0.7,0.7,1.1,1.6,1.1,2.8c0,3.1-2.6,4.6-7.9,4.6
	c-2.6,0-5.6-0.4-9-1.3c-3.4-0.9-6.4-1.9-9.1-3.2v12c2.4,1,4.9,1.8,7.7,2.3c2.7,0.5,6,0.8,9.9,0.8C109,165.8,114.7,164.4,118.5,161.5
	z M108.1,244c0.8-0.6,2-0.9,3.7-0.9c3.3,0,7.1,1,11.6,3.1l4-10c-5.2-2.3-10.2-3.4-15.2-3.4c-5.6,0-10,1.2-13.3,3.7
	c-3.2,2.5-4.8,5.9-4.8,10.3c0,2.4,0.4,4.4,1.1,6.1c0.8,1.7,1.9,3.3,3.5,4.6c1.6,1.3,3.9,2.7,7,4.1c3.5,1.6,5.6,2.6,6.4,3.1
	c0.8,0.5,1.4,1,1.7,1.5c0.4,0.5,0.5,1.1,0.5,1.7c0,1-0.4,1.9-1.3,2.6c-0.9,0.7-2.3,1-4.2,1c-2.2,0-4.7-0.4-7.4-1.1
	c-2.7-0.7-5.2-1.7-7.7-3V279c2.3,1.1,4.6,1.9,6.8,2.3c2.2,0.4,4.8,0.7,8,0.7c3.8,0,7.2-0.6,10-1.9c2.8-1.3,5-3.1,6.5-5.4
	c1.5-2.3,2.3-5,2.3-7.9c0-3.2-0.8-5.9-2.4-8.1c-1.6-2.1-4.5-4.1-8.6-6c-4.3-2-7-3.3-7.9-4.1c-1-0.7-1.5-1.6-1.5-2.5
	C106.9,245.3,107.3,244.6,108.1,244z M215.1,110.9c-2.1-0.3-3.8-0.4-5.3-0.4c-7,0-12.4,1.6-16.2,4.8c-3.8,3.2-5.7,7.7-5.7,13.5
	c0,3.6,0.8,6.8,2.5,9.5c1.6,2.7,3.9,4.6,6.7,5.8c-2.2,1.3-3.9,2.6-5.1,4c-1.2,1.4-1.8,3-1.8,5.1c0,1.6,0.6,3.2,1.7,4.6
	s2.4,2.5,3.9,3.1c-3.9,0.9-6.8,2.5-8.8,4.6c-2,2.2-3,4.9-3,8.1c0,4.7,2,8.3,5.9,10.9c3.9,2.6,9.6,3.9,17.1,3.9
	c9.7,0,17.2-1.7,22.4-5.2c5.2-3.4,7.8-8.3,7.8-14.5c0-4.9-1.5-8.6-4.6-11.1c-3.1-2.5-7.5-3.8-13.4-3.8H210c-5.3,0-8-1.1-8-3.2
	c0-1.4,0.7-2.7,2.2-3.8l2.1,0.2l2.6,0.1c7.1,0,12.6-1.6,16.6-4.8c4-3.2,6-7.7,6-13.4c0-3-0.8-5.6-2.3-8l8.4-2.1v-7.4h-18.6
	C218.5,111.4,217.2,111.2,215.1,110.9z M205.9,165.5h7.5c3.7,0,6.4,0.4,8.1,1.1s2.6,2.1,2.6,4.2c0,2.5-1.5,4.4-4.4,5.9
	c-3,1.4-7.1,2.1-12.3,2.1c-3.5,0-6.2-0.6-8.1-1.7c-1.9-1.1-2.9-2.7-2.9-4.7c0-2.1,0.9-3.7,2.7-5C201,166.1,203.2,165.5,205.9,165.5z
	 M215.8,135.8c-1.3,1.7-3.3,2.5-6,2.5c-2.7,0-4.7-0.8-6-2.5c-1.3-1.7-2-4-2-6.9c0-6.4,2.7-9.6,8-9.6c5.3,0,7.9,3.2,7.9,9.6
	C217.7,131.8,217.1,134.1,215.8,135.8z M200.6,263.3h8.6v7.5c-1.6,0.4-3.4,0.6-5.3,0.6c-3.5,0-6.2-1.2-8.1-3.5
	c-1.9-2.4-2.8-5.8-2.8-10.3c0-4.6,1-8.1,3.1-10.6c2.1-2.5,5-3.7,8.8-3.7c4.1,0,7.9,0.9,11.4,2.6l4.1-10.2c-2-0.9-4.3-1.6-7-2.2
	c-2.7-0.6-5.5-0.9-8.5-0.9c-8,0-14.2,2.2-18.6,6.5c-4.4,4.3-6.6,10.3-6.6,18.1c0,7.9,2,14.1,6.1,18.3c4,4.3,9.8,6.4,17.1,6.4
	c6.7,0,12.9-1,18.5-2.9v-25.9h-20.7L200.6,263.3L200.6,263.3z M163.2,164.9l20.3-53.4h-15.2l-10.3,30.4c-1.3,4.2-2,7.9-2.1,10.9
	h-0.3c-0.3-3.4-1-7.1-2.1-10.9l-10.3-30.4H128l20.3,53.4H163.2z M283.1,52.7L232.6,2.2c-1.4-1.4-3.3-2.2-5.3-2.2h-187
	c-4.1,0-7.5,3.4-7.5,7.5v303.2c0,4.1,3.4,7.5,7.5,7.5h237.5c4.1,0,7.5-3.4,7.5-7.5V58C285.3,56,284.6,54.1,283.1,52.7z M234.8,25.6
	l24.9,24.9h-24.9L234.8,25.6L234.8,25.6z M47.8,15h172v10.3h-172V15z M270.3,303.2H47.8V40.3h172V58c0,4.1,3.4,7.5,7.5,7.5h43
	L270.3,303.2L270.3,303.2z M155,257.8c-0.4,1.3-0.8,3.1-1.2,5.4c-0.5,2.3-0.8,4.2-0.9,5.7c-0.1-2.1-0.9-5.9-2.2-11.3l-6.5-24.3
	h-14.6l15.7,48h15.3l15.7-48h-14.5L155,257.8z"/>
</svg>
