<?xml version="1.0" encoding="utf-8"?>
<!-- Generator: Adobe Illustrator 22.0.1, SVG Export Plug-In . SVG Version: 6.00 Build 0)  -->
<svg version="1.1" id="Layer_1" xmlns="http://www.w3.org/2000/svg" xmlns:xlink="http://www.w3.org/1999/xlink" x="0px" y="0px"
	 viewBox="0 0 318.2 318.2" style="enable-background:new 0 0 318.2 318.2;" xml:space="preserve">
<path d="M283.1,52.7L232.6,2.2c-1.4-1.4-3.3-2.2-5.3-2.2h-187c-4.1,0-7.5,3.4-7.5,7.5v303.2c0,4.1,3.4,7.5,7.5,7.5h237.5
	c4.1,0,7.5-3.4,7.5-7.5V58C285.3,56,284.6,54.1,283.1,52.7z M234.8,25.6l24.9,24.9h-24.9L234.8,25.6L234.8,25.6z M47.8,15h172v10.3
	h-172V15z M47.8,303.2V40.3h172V58c0,4.1,3.4,7.5,7.5,7.5h43v237.7H47.8z M111.5,252.8c-4.3-2-7-3.3-7.9-4.1c-1-0.7-1.5-1.6-1.5-2.5
	c0-0.9,0.4-1.6,1.1-2.2s2-0.9,3.7-0.9c3.3,0,7.1,1,11.6,3.1l4-10c-5.2-2.3-10.2-3.4-15.2-3.4c-5.6,0-10,1.2-13.3,3.7
	c-3.2,2.5-4.8,5.9-4.8,10.3c0,2.4,0.4,4.4,1.1,6.1s1.9,3.3,3.5,4.6c1.6,1.3,3.9,2.7,7,4.1c3.5,1.6,5.6,2.6,6.4,3.1
	c0.8,0.5,1.4,1,1.7,1.5s0.5,1.1,0.5,1.7c0,1-0.4,1.9-1.3,2.6c-0.9,0.7-2.3,1-4.2,1c-2.2,0-4.7-0.4-7.4-1.1c-2.7-0.7-5.2-1.7-7.7-3
	V279c2.3,1.1,4.6,1.9,6.8,2.3s4.8,0.7,8,0.7c3.8,0,7.2-0.6,10-1.9s5-3.1,6.5-5.4c1.5-2.3,2.3-5,2.3-7.9c0-3.2-0.8-5.9-2.4-8.1
	C118.5,256.6,115.6,254.6,111.5,252.8z M204.7,139.9v-25.1c0-4.1-3.4-7.5-7.5-7.5h-1.3c3.2-2,6.4-2.9,9.9-2.9c4.1,0,7.5-3.4,7.5-7.5
	V71.8c0-4.1-3.4-7.5-7.5-7.5c-38,0-56.5,33.5-69.9,58c-12.5,22.8-19.6,33-28.1,33c-4.1,0-7.5,3.4-7.5,7.5V188c0,4.1,3.4,7.5,7.5,7.5
	c31.7,0,48.2-26.6,60-48h29.3C201.3,147.4,204.7,144.1,204.7,139.9z M189.7,132.4L189.7,132.4h-26.2c-2.7,0-5.3,1.5-6.6,3.9
	c-12.2,22.1-23.3,39.7-41.5,43.4v-10.5c14.4-4.5,23.8-21.7,33.7-39.7c11.8-21.4,25-45.5,49.3-49.6v10.3c-12.2,2.8-20.2,12-26,20.2
	c-1.6,2.3-1.8,5.3-0.5,7.8c1.3,2.5,3.9,4.1,6.7,4.1h11.3L189.7,132.4L189.7,132.4z M199.7,281.4h12.8v-18h14.4V253h-14.4v-9.2h15.6
	v-10.4h-28.4V281.4z M175.7,257.5c-1.3,6-2,10.2-2.3,12.6c-0.2-1.9-0.7-4.7-1.4-8.5c-0.7-3.8-1.4-7.2-2.1-10.1l-4.1-18.1h-12
	l-4.2,18.1c-0.6,2.5-1.3,5.7-2.1,9.5c-0.7,3.8-1.2,6.9-1.5,9.1c-0.4-3.1-1.2-7.4-2.4-12.7l-5.2-24.1h-12.5l11.9,48h15.3
	c2.8-12.6,4.4-19.8,4.8-21.5c0.4-1.8,0.8-3.7,1.2-5.8c0.4-2.1,0.7-3.9,0.9-5.3c0.2,1.8,0.6,3.9,1,6.5c0.5,2.6,0.8,4.3,1,5.2
	l4.6,20.9h15.3l11.8-48H181L175.7,257.5z"/>
</svg>
