<?xml version="1.0" encoding="utf-8"?>
<!-- Generator: Adobe Illustrator 22.0.1, SVG Export Plug-In . SVG Version: 6.00 Build 0)  -->
<svg version="1.1" id="Layer_1" xmlns="http://www.w3.org/2000/svg" xmlns:xlink="http://www.w3.org/1999/xlink" x="0px" y="0px"
	 viewBox="0 0 318.2 318.2" style="enable-background:new 0 0 318.2 318.2;" xml:space="preserve">
<path d="M283.1,52.7L232.6,2.2c-1.4-1.4-3.3-2.2-5.3-2.2h-187c-4.1,0-7.5,3.4-7.5,7.5v303.2c0,4.1,3.4,7.5,7.5,7.5h237.5
	c4.1,0,7.5-3.4,7.5-7.5V58C285.3,56,284.6,54.1,283.1,52.7z M234.8,25.6l24.9,24.9h-24.9L234.8,25.6L234.8,25.6z M47.8,15h172v10.3
	h-172V15z M270.3,303.2H47.8V40.3h172V58c0,4.1,3.4,7.5,7.5,7.5h43L270.3,303.2L270.3,303.2z M92.2,244H104v37.4h13V244h11.7v-10.6
	H92.2V244z M158.9,281.4h12.8v-18H186V253h-14.4v-9.2h15.6v-10.4h-28.4V281.4z M135.5,233.4h13v48h-13V233.4z M195.1,281.4h12.8v-18
	h14.4V253h-14.4v-9.2h15.6v-10.4h-28.4V281.4z M196.4,119.5l7.2-27c0.7-2.6,0-5.3-1.9-7.2c-1.9-1.9-4.7-2.6-7.2-1.9L150.9,95
	c-1.3-2.1-3.7-3.5-6.3-3.5h-43.9c-4.1,0-7.5,3.4-7.5,7.5v43.9c0,4.1,3.4,7.5,7.5,7.5h43.9c4.1,0,7.5-3.4,7.5-7.5v-5.7l6.5,6.5
	c-0.9,3.1-1.3,6.2-1.3,9.5c0,18.8,15.3,34,34,34s34-15.3,34-34C225.2,136.2,212.7,122,196.4,119.5z M137,135.4h-28.9v-28.9h17.5
	c-0.3,2.3,0.4,4.7,2.1,6.4l9.4,9.4V135.4z M147.5,111.4l38.3-10.3l-10.3,38.3L147.5,111.4z M191.2,172.2c-8.8,0-16.2-6-18.4-14.2
	l1.3,1.3c1.4,1.4,3.3,2.2,5.3,2.2c0.6,0,1.3-0.1,1.9-0.3c2.6-0.7,4.6-2.7,5.3-5.3l5.8-21.7c9.9,0.6,17.8,8.9,17.8,19
	C210.2,163.6,201.7,172.2,191.2,172.2z"/>
</svg>
