<?xml version="1.0" encoding="utf-8"?>
<!-- Generator: Adobe Illustrator 22.0.1, SVG Export Plug-In . SVG Version: 6.00 Build 0)  -->
<svg version="1.1" id="Layer_1" xmlns="http://www.w3.org/2000/svg" xmlns:xlink="http://www.w3.org/1999/xlink" x="0px" y="0px"
	 viewBox="0 0 318.2 318.2" style="enable-background:new 0 0 318.2 318.2;" xml:space="preserve">
<path d="M217.9,123.5L217.9,123.5H100.3v15h117.6V123.5z M217.9,74.2L217.9,74.2H100.3v15h117.6V74.2z M100.3,98.9h82.2v15h-82.2
	V98.9z M100.3,148.2h107.5v15H100.3V148.2z M184.3,244H196v37.4h13V244h11.7v-10.6h-36.4V244z M283.1,52.7L232.6,2.2
	c-1.4-1.4-3.3-2.2-5.3-2.2h-187c-4.1,0-7.5,3.4-7.5,7.5v303.2c0,4.1,3.4,7.5,7.5,7.5h237.5c4.1,0,7.5-3.4,7.5-7.5V58
	C285.3,56,284.6,54.1,283.1,52.7z M234.8,25.6l24.9,24.9h-24.9L234.8,25.6L234.8,25.6z M47.8,15h172v10.3h-172V15z M270.3,303.2
	H47.8V40.3h172V58c0,4.1,3.4,7.5,7.5,7.5h43L270.3,303.2L270.3,303.2z M181.3,233.4h-14.8l-8.3,14.8l-8.7-14.8h-14.4l15,23.4
	l-15.9,24.5h14.7l9.3-15l9.4,15h15l-16.3-23.5L181.3,233.4z M96,244h11.7v37.4h13V244h11.7v-10.6H96V244z M100.3,172.8h49.5v15
	h-49.5V172.8z"/>
</svg>
