<?xml version="1.0" encoding="utf-8"?>
<!-- Generator: Adobe Illustrator 22.0.1, SVG Export Plug-In . SVG Version: 6.00 Build 0)  -->
<svg version="1.1" id="Layer_1" xmlns="http://www.w3.org/2000/svg" xmlns:xlink="http://www.w3.org/1999/xlink" x="0px" y="0px"
	 viewBox="0 0 318.2 318.2" style="enable-background:new 0 0 318.2 318.2;" xml:space="preserve">
<path d="M157.6,199c38.3,0,69.4-31.1,69.4-69.4c0-38.3-31.1-69.4-69.4-69.4c-38.3,0-69.4,31.1-69.4,69.4
	C88.2,167.9,119.4,199,157.6,199z M157.6,75.2c30,0,54.4,24.4,54.4,54.4c0,30-24.4,54.4-54.4,54.4c-30,0-54.4-24.4-54.4-54.4
	C103.2,99.6,127.6,75.2,157.6,75.2z M283.1,52.7L232.6,2.2c-1.4-1.4-3.3-2.2-5.3-2.2h-187c-4.1,0-7.5,3.4-7.5,7.5v303.2
	c0,4.1,3.4,7.5,7.5,7.5h237.5c4.1,0,7.5-3.4,7.5-7.5V58C285.3,56,284.6,54.1,283.1,52.7z M234.8,25.6l24.9,24.9h-24.9L234.8,25.6
	L234.8,25.6z M47.8,15h172v10.3h-172V15z M270.3,303.2H47.8V40.3h172V58c0,4.1,3.4,7.5,7.5,7.5h43L270.3,303.2L270.3,303.2z
	 M219.8,257.8c-0.4,1.3-0.8,3.1-1.2,5.4c-0.5,2.3-0.8,4.2-0.9,5.7c-0.1-2.1-0.9-5.9-2.2-11.3l-6.5-24.3h-14.6l15.7,48h15.3l15.7-48
	h-14.5L219.8,257.8z M126.7,257.5c-1.3,6-2,10.2-2.3,12.6c-0.2-1.9-0.7-4.7-1.4-8.5c-0.7-3.8-1.4-7.2-2.1-10.1l-4.1-18.1h-12
	l-4.2,18.1c-0.6,2.5-1.3,5.7-2.1,9.5c-0.7,3.8-1.2,6.9-1.5,9.1c-0.4-3.1-1.2-7.4-2.4-12.7l-5.2-24.1H76.7l11.9,48h15.3
	c2.8-12.6,4.4-19.8,4.8-21.5s0.8-3.7,1.2-5.8c0.4-2.1,0.7-3.9,0.9-5.3c0.2,1.8,0.6,3.9,1,6.5c0.5,2.6,0.8,4.3,1,5.2l4.6,20.9h15.3
	l11.8-48H132L126.7,257.5z M161.2,233.2l-15.7,48.2h14.2l2.4-9h15.6l2.4,9h14.2l-15.9-48.2H161.2z M164.9,261.7
	c2-7.5,3.3-12.6,3.9-15.1c0.6-2.6,1-4.4,1.2-5.5c0.2,1.2,0.7,3.2,1.4,6c0.7,2.8,1.3,5,1.8,6.8l2.1,7.9H164.9z M144,170
	c1.9,0,3.8-0.2,5.7-0.5c12.4-2.2,21.8-10.5,22.4-19.6c0-0.3,0.1-0.6,0.1-0.9v-46.6c2.1,1.4,4.1,3.4,5.6,5.8
	c3.3,5.5,2.9,12.1-1.2,19.5c-2,3.6-0.6,8.2,3,10.2c3.6,2,8.2,0.6,10.2-3c6.6-12.1,6.9-24.3,0.9-34.4c-6.2-10.5-17.8-16-26-16
	c-4.1,0-7.5,3.4-7.5,7.5v42c-1.4-0.2-2.8-0.4-4.4-0.4c-1.9,0-3.8,0.2-5.7,0.5c-12.8,2.3-22.5,11.1-22.5,20.5
	C124.7,163.6,132.8,170,144,170z M149.7,149.1c1.1-0.2,2.1-0.3,3.1-0.3c2,0,3.4,0.4,4.1,0.7c-1,1.5-4.3,4.2-9.8,5.2
	c-1.1,0.2-2.1,0.3-3.1,0.3c-2,0-3.4-0.4-4.1-0.7C141,152.8,144.3,150,149.7,149.1z"/>
</svg>
