<?xml version="1.0" encoding="utf-8"?>
<!-- Generator: Adobe Illustrator 22.0.1, SVG Export Plug-In . SVG Version: 6.00 Build 0)  -->
<svg version="1.1" id="Layer_1" xmlns="http://www.w3.org/2000/svg" xmlns:xlink="http://www.w3.org/1999/xlink" x="0px" y="0px"
	 viewBox="0 0 318.2 318.2" style="enable-background:new 0 0 318.2 318.2;" xml:space="preserve">
<path d="M283.1,52.7L232.6,2.2c-1.4-1.4-3.3-2.2-5.3-2.2h-187c-4.1,0-7.5,3.4-7.5,7.5v303.2c0,4.1,3.4,7.5,7.5,7.5h237.5
	c4.1,0,7.5-3.4,7.5-7.5V58C285.3,56,284.6,54.1,283.1,52.7z M234.8,25.6l24.9,24.9h-24.9L234.8,25.6L234.8,25.6z M47.8,15h172v10.3
	h-172V15z M270.3,303.2H47.8V40.3h172V58c0,4.1,3.4,7.5,7.5,7.5h43L270.3,303.2L270.3,303.2z M122.9,260.1
	c-1.1,5.4-1.8,9.1-2.1,11.3c-0.2-1.7-0.6-4.2-1.3-7.6c-0.6-3.4-1.3-6.4-1.9-9l-3.7-16.2h-10.7l-3.8,16.2c-0.6,2.2-1.2,5.1-1.8,8.5
	c-0.7,3.4-1.1,6.1-1.4,8.1c-0.4-2.8-1.1-6.6-2.2-11.3l-4.7-21.5H78.3l10.6,42.8h13.7c2.5-11.2,3.9-17.6,4.3-19.2
	c0.3-1.6,0.7-3.3,1-5.2s0.6-3.5,0.8-4.7c0.2,1.6,0.5,3.5,0.9,5.8c0.4,2.3,0.7,3.9,0.9,4.7l4.1,18.7h13.7l10.5-42.8h-11.2
	L122.9,260.1z M168.9,268.9h-0.2l-8.9-30.4h-15.4v42.8h10.3v-18.6c0-2.9-0.2-7-0.6-12.2h0.3l8.8,30.9h11l8.6-30.8h0.3
	c-0.2,4.6-0.4,7.6-0.4,8.8c0,1.2,0,2.3,0,3.3v18.8h10.6v-42.8h-15.4L168.9,268.9z M94,69.6c-4.1,0-7.5,3.4-7.5,7.5v108.7
	c0,4.1,3.4,7.5,7.5,7.5h128.6c4.1,0,7.5-3.4,7.5-7.5V77.1c0-4.1-3.4-7.5-7.5-7.5H94z M106.1,178.3h-4.6V172h4.6V178.3z M106.1,157
	h-4.6v-7.1h4.6V157z M106.1,134.9h-4.6v-7.1h4.6V134.9z M106.1,112.9h-4.6v-7.1h4.6V112.9z M106.1,90.8h-4.6v-6.3h4.6V90.8z
	 M195.6,178.3h-74.5v-39.4h74.5V178.3z M195.6,123.9h-74.5V84.6h74.5V123.9z M215.2,178.3h-4.6V172h4.6V178.3z M215.2,157h-4.6v-7.1
	h4.6V157z M215.2,134.9h-4.6v-7.1h4.6V134.9z M215.2,112.9h-4.6v-7.1h4.6V112.9z M215.2,90.8h-4.6v-6.3h4.6V90.8z M220.4,260.4
	c-0.3,1.2-0.7,2.8-1.1,4.8c-0.4,2.1-0.7,3.8-0.8,5.1c-0.1-1.9-0.8-5.3-2-10.1l-5.8-21.7h-13l14,42.8h13.6l14-42.8h-12.9L220.4,260.4
	z"/>
</svg>
