<?xml version="1.0" encoding="utf-8"?>
<!-- Generator: Adobe Illustrator 22.0.1, SVG Export Plug-In . SVG Version: 6.00 Build 0)  -->
<svg version="1.1" id="Layer_1" xmlns="http://www.w3.org/2000/svg" xmlns:xlink="http://www.w3.org/1999/xlink" x="0px" y="0px"
	 viewBox="0 0 318.2 318.2" style="enable-background:new 0 0 318.2 318.2;" xml:space="preserve">
<path d="M105.8,189.2h105.1c4.1,0,7.5-3.4,7.5-7.5V76.6c0-4.1-3.4-7.5-7.5-7.5H105.8c-4.1,0-7.5,3.4-7.5,7.5v105.1
	C98.3,185.8,101.7,189.2,105.8,189.2z M113.3,174.2v-12.5c1.3,2.4,3.8,3.9,6.6,3.9h42.4c-0.4,1.7-0.3,3.5,0.5,5.1
	c0.7,1.5,2,2.7,3.5,3.5H113.3z M113.3,154.6V109c0.2,0.4,0.4,0.8,0.7,1.1l17.4,21.7L114,153.4C113.7,153.8,113.5,154.2,113.3,154.6z
	 M135.5,150.6l11.4-14.2c2.2-2.7,2.2-6.6,0-9.4l-11.4-14.2h10l4.2,5.3c1.4,1.8,3.6,2.8,5.9,2.8s4.4-1,5.9-2.8l4.2-5.3h10.1
	l-11.4,14.2c-2.2,2.7-2.2,6.6,0,9.4l10.5,13.2c0.3,0.4,0.6,0.7,1,1H135.5z M184.3,160c0-0.1,0.1-0.3,0.1-0.4
	c0.1,0.1,0.1,0.3,0.2,0.4H184.3z M183.7,154.8c-0.5-0.9-1.1-1.7-1.8-2.3h2.7C184.2,153.2,183.9,154,183.7,154.8z M203.4,159.6
	l-2.7-3.4l2.7-3.4V159.6z M113.3,84.1L113.3,84.1h90.1v54.1c-1-0.5-2.1-0.8-3.3-0.8h-15.7l-4.5-5.7l17.4-21.7
	c1.8-2.3,2.2-5.3,0.9-7.9c-1.2-2.6-3.9-4.3-6.8-4.3h-29.3c-2.3,0-4.4,1-5.9,2.8l-0.6,0.8l-0.6-0.8c-1.4-1.8-3.6-2.8-5.9-2.8h-29.3
	c-2.8,0-5.3,1.5-6.6,3.9V84.1z M283.1,52.7L232.6,2.2c-1.4-1.4-3.3-2.2-5.3-2.2h-187c-4.1,0-7.5,3.4-7.5,7.5v303.2
	c0,4.1,3.4,7.5,7.5,7.5h237.5c4.1,0,7.5-3.4,7.5-7.5V58C285.3,56,284.6,54.1,283.1,52.7z M234.8,25.6l24.9,24.9h-24.9L234.8,25.6
	L234.8,25.6z M47.8,15h172v10.3h-172V15z M270.3,303.2H47.8V40.3h172V58c0,4.1,3.4,7.5,7.5,7.5h43L270.3,303.2L270.3,303.2z
	 M161.8,233.4h-13v48h31.4v-10.5h-18.5V233.4z M142.3,233.4h-14.8l-8.3,14.8l-8.7-14.8H96.2l15,23.4l-15.9,24.5h14.7l9.3-15l9.4,15
	h15l-16.3-23.5L142.3,233.4z M208.3,252.8c-4.3-2-7-3.3-7.9-4.1c-1-0.7-1.5-1.6-1.5-2.5c0-0.9,0.4-1.6,1.1-2.2s2-0.9,3.7-0.9
	c3.3,0,7.1,1,11.6,3.1l4-10c-5.2-2.3-10.2-3.4-15.2-3.4c-5.6,0-10,1.2-13.3,3.7c-3.2,2.5-4.8,5.9-4.8,10.3c0,2.4,0.4,4.4,1.1,6.1
	c0.8,1.7,1.9,3.3,3.5,4.6c1.6,1.3,3.9,2.7,7,4.1c3.5,1.6,5.6,2.6,6.4,3.1c0.8,0.5,1.4,1,1.7,1.5c0.4,0.5,0.5,1.1,0.5,1.7
	c0,1-0.4,1.9-1.3,2.6c-0.9,0.7-2.3,1-4.2,1c-2.2,0-4.7-0.4-7.4-1.1c-2.7-0.7-5.2-1.7-7.7-3V279c2.3,1.1,4.6,1.9,6.8,2.3
	s4.8,0.7,8,0.7c3.8,0,7.2-0.6,10-1.9c2.8-1.3,5-3.1,6.5-5.4c1.5-2.3,2.3-5,2.3-7.9c0-3.2-0.8-5.9-2.4-8.1
	C215.4,256.6,212.5,254.6,208.3,252.8z"/>
</svg>
