<?xml version="1.0" encoding="utf-8"?>
<!-- Generator: Adobe Illustrator 22.0.1, SVG Export Plug-In . SVG Version: 6.00 Build 0)  -->
<svg version="1.1" id="Layer_1" xmlns="http://www.w3.org/2000/svg" xmlns:xlink="http://www.w3.org/1999/xlink" x="0px" y="0px"
	 viewBox="0 0 318.2 318.2" style="enable-background:new 0 0 318.2 318.2;" xml:space="preserve">
<path d="M283.1,52.7L232.6,2.2c-1.4-1.4-3.3-2.2-5.3-2.2h-187c-4.1,0-7.5,3.4-7.5,7.5v303.2c0,4.1,3.4,7.5,7.5,7.5h237.5
	c4.1,0,7.5-3.4,7.5-7.5V58C285.3,56,284.6,54.1,283.1,52.7z M234.8,25.6l24.9,24.9h-24.9L234.8,25.6L234.8,25.6z M47.8,15h172v10.3
	h-172V15z M159.1,150.1c3.1,3.1,7.4,14.6,7.4,20.5c0,4.1-3.3,7.4-7.4,7.4s-7.4-3.3-7.4-7.4C151.7,164.7,156,153.2,159.1,150.1z
	 M270.3,303.2H47.8V40.3h103v97.2c-3.1,2.3-6.3,6.2-9.2,12.7c-3,6.8-5,15-5,20.4c0,12.4,10.1,22.4,22.4,22.4
	c12.4,0,22.4-10.1,22.4-22.4c0-5.4-2-13.6-5-20.4c-3.4-7.6-7.1-11.7-10.7-13.7V40.3h54V58c0,4.1,3.4,7.5,7.5,7.5h43L270.3,303.2
	L270.3,303.2z M143.7,241.4v-8h-36.4v10.5h20.3l-20.8,29.5v8h37.4v-10.5H123L143.7,241.4z M204.8,237.4c-3-2.6-7.6-4-13.7-4h-16.6
	v48h13v-15.9h3.6c5.8,0,10.3-1.5,13.5-4.4c3.2-2.9,4.7-7.1,4.7-12.4C209.3,243.8,207.8,240,204.8,237.4z M194.5,253.2
	c-1.1,1.1-2.7,1.6-4.6,1.6h-2.4v-11h3.3c3.6,0,5.4,1.6,5.4,4.9C196.2,250.6,195.6,252.2,194.5,253.2z M151.1,233.4h13v48h-13V233.4z
	"/>
</svg>
